<?xml version="1.0" encoding="UTF-8" standalone="no"?><svg xmlns="http://www.w3.org/2000/svg" xmlns:xlink="http://www.w3.org/1999/xlink" contentScriptType="application/ecmascript" contentStyleType="text/css" height="1105px" preserveAspectRatio="none" style="width:4908px;height:1105px;background:#FFFFFF;" version="1.1" viewBox="0 0 4908 1105" width="4908px" zoomAndPan="magnify"><defs><filter height="300%" id="f1qrad3lvvozsd" width="300%" x="-1" y="-1"><feGaussianBlur result="blurOut" stdDeviation="2.0"/><feColorMatrix in="blurOut" result="blurOut2" type="matrix" values="0 0 0 0 0 0 0 0 0 0 0 0 0 0 0 0 0 0 .4 0"/><feOffset dx="4.0" dy="4.0" in="blurOut2" result="blurOut3"/><feBlend in="SourceGraphic" in2="blurOut3" mode="normal"/></filter></defs><g><!--MD5=[5d4cd377749310b66bf14896f5cd8d9b]
cluster model--><polygon fill="#FFFFFF" filter="url(#f1qrad3lvvozsd)" points="16,206,71,206,78,228.2969,3170,228.2969,3170,1098,16,1098,16,206" style="stroke:#000000;stroke-width:1.5;"/><line style="stroke:#000000;stroke-width:1.5;" x1="16" x2="78" y1="228.2969" y2="228.2969"/><text fill="#000000" font-family="sans-serif" font-size="14" font-weight="bold" lengthAdjust="spacing" textLength="49" x="20" y="220.9951">model</text><!--MD5=[08ef9281f9faa26b7455822c0f59c064]
cluster monster--><polygon fill="#FFFFFF" filter="url(#f1qrad3lvvozsd)" points="40,257,114,257,121,279.2969,781,279.2969,781,752,40,752,40,257" style="stroke:#000000;stroke-width:1.5;"/><line style="stroke:#000000;stroke-width:1.5;" x1="40" x2="121" y1="279.2969" y2="279.2969"/><text fill="#000000" font-family="sans-serif" font-size="14" font-weight="bold" lengthAdjust="spacing" textLength="68" x="44" y="271.9951">monster</text><!--MD5=[606c166253d3f3c4d8f01fd78e8182e9]
cluster pathfinding--><polygon fill="#FFFFFF" filter="url(#f1qrad3lvvozsd)" points="1767,480,1868,480,1875,502.2969,2449,502.2969,2449,861,1767,861,1767,480" style="stroke:#000000;stroke-width:1.5;"/><line style="stroke:#000000;stroke-width:1.5;" x1="1767" x2="1875" y1="502.2969" y2="502.2969"/><text fill="#000000" font-family="sans-serif" font-size="14" font-weight="bold" lengthAdjust="spacing" textLength="95" x="1771" y="494.9951">pathfinding</text><!--MD5=[bd3e63b53fe29677d33415e0b75cb5a8]
cluster wall--><polygon fill="#FFFFFF" filter="url(#f1qrad3lvvozsd)" points="2473,282.5,2512,282.5,2519,304.7969,3146,304.7969,3146,758.5,2473,758.5,2473,282.5" style="stroke:#000000;stroke-width:1.5;"/><line style="stroke:#000000;stroke-width:1.5;" x1="2473" x2="2519" y1="304.7969" y2="304.7969"/><text fill="#000000" font-family="sans-serif" font-size="14" font-weight="bold" lengthAdjust="spacing" textLength="33" x="2477" y="297.4951">wall</text><!--MD5=[6527a645d74431924274afc52d134787]
cluster cellEffect--><polygon fill="#FFFFFF" filter="url(#f1qrad3lvvozsd)" points="1054,589,1137,589,1144,611.2969,1727,611.2969,1727,1074,1054,1074,1054,589" style="stroke:#000000;stroke-width:1.5;"/><line style="stroke:#000000;stroke-width:1.5;" x1="1054" x2="1144" y1="611.2969" y2="611.2969"/><text fill="#000000" font-family="sans-serif" font-size="14" font-weight="bold" lengthAdjust="spacing" textLength="77" x="1058" y="603.9951">cellEffect</text><!--MD5=[86cbce8df1eb9d604fbbb2fa357940f8]
cluster view--><polygon fill="#FFFFFF" filter="url(#f1qrad3lvvozsd)" points="3194,582.5,3236,582.5,3243,604.7969,3986,604.7969,3986,758.5,3194,758.5,3194,582.5" style="stroke:#000000;stroke-width:1.5;"/><line style="stroke:#000000;stroke-width:1.5;" x1="3194" x2="3243" y1="604.7969" y2="604.7969"/><text fill="#000000" font-family="sans-serif" font-size="14" font-weight="bold" lengthAdjust="spacing" textLength="36" x="3198" y="597.4951">view</text><!--MD5=[10ea673caf457862023e152271927b45]
cluster controller--><polygon fill="#FFFFFF" filter="url(#f1qrad3lvvozsd)" points="3327,885,3413,885,3420,907.2969,3791,907.2969,3791,1074,3327,1074,3327,885" style="stroke:#000000;stroke-width:1.5;"/><line style="stroke:#000000;stroke-width:1.5;" x1="3327" x2="3420" y1="907.2969" y2="907.2969"/><text fill="#000000" font-family="sans-serif" font-size="14" font-weight="bold" lengthAdjust="spacing" textLength="80" x="3331" y="899.9951">controller</text><!--MD5=[22238981d4678d24a4b690f00fa36180]
cluster factory--><polygon fill="#FFFFFF" filter="url(#f1qrad3lvvozsd)" points="3970,6,4036,6,4043,28.2969,4891,28.2969,4891,182,3970,182,3970,6" style="stroke:#000000;stroke-width:1.5;"/><line style="stroke:#000000;stroke-width:1.5;" x1="3970" x2="4043" y1="28.2969" y2="28.2969"/><text fill="#000000" font-family="sans-serif" font-size="14" font-weight="bold" lengthAdjust="spacing" textLength="60" x="3974" y="20.9951">factory</text><!--MD5=[fc1b526ef1efe17a0b1fd0a54bd82165]
cluster libgdx--><polygon fill="#FFFFFF" filter="url(#f1qrad3lvvozsd)" points="3815,930,3870,930,3877,952.2969,4073,952.2969,4073,1029,3815,1029,3815,930" style="stroke:#000000;stroke-width:1.5;"/><line style="stroke:#000000;stroke-width:1.5;" x1="3815" x2="3877" y1="952.2969" y2="952.2969"/><text fill="#000000" font-family="sans-serif" font-size="14" font-weight="bold" lengthAdjust="spacing" textLength="49" x="3819" y="944.9951">libgdx</text><!--MD5=[5c040679990284a825a3903b11c133d5]
class e--><rect codeLine="2" fill="#FEFECE" filter="url(#f1qrad3lvvozsd)" height="137.6328" id="e" style="stroke:#A80036;stroke-width:1.5;" width="194" x="658" y="920"/><ellipse cx="732.75" cy="936" fill="#A9DCDF" rx="11" ry="11" style="stroke:#A80036;stroke-width:1.0;"/><path d="M734.8281,937.8125 L735.2188,938.7969 L734.8281,938.7969 C734.375,938.7969 734.2656,938.8125 734.1094,938.9219 C733.8594,939.0781 733.7031,939.3594 733.7031,939.6563 C733.7031,939.9219 733.8438,940.1719 734.0625,940.3281 C734.2031,940.4531 734.4063,940.5 734.8281,940.5 L737.1875,940.5 C737.5469,940.5 737.7656,940.4688 737.9063,940.375 C738.1563,940.2344 738.3125,939.9375 738.3125,939.6563 C738.3125,939.375 738.1719,939.125 737.9531,938.9688 C737.7813,938.8281 737.625,938.7969 737.1563,938.7969 L733.7656,930.5938 L730.0938,930.5938 C729.6406,930.5938 729.5156,930.6094 729.3594,930.7031 C729.1094,930.875 728.9531,931.1563 728.9531,931.4375 C728.9531,931.7188 729.0938,931.9688 729.3125,932.1406 C729.4844,932.25 729.6563,932.2813 730.0938,932.2813 L731.1719,932.2813 L728.5313,938.7969 C728.1094,938.7969 727.9531,938.8125 727.7969,938.9219 C727.5469,939.0781 727.3906,939.3594 727.3906,939.6563 C727.3906,940.2188 727.7656,940.5 728.5156,940.5 L730.7813,940.5 C731.1406,940.5 731.3594,940.4688 731.4844,940.375 C731.75,940.2344 731.8906,939.9375 731.8906,939.6563 C731.8906,939.375 731.7656,939.125 731.5469,938.9531 C731.375,938.8281 731.2344,938.7969 730.7813,938.7969 L730.3906,938.7969 L730.7813,937.8125 L734.8281,937.8125 Z M734.125,936.1094 L731.4531,936.1094 L732.7969,932.8438 L734.125,936.1094 Z " fill="#000000"/><text fill="#000000" font-family="sans-serif" font-size="12" font-style="italic" lengthAdjust="spacing" textLength="36" x="753.25" y="940.1543">Entity</text><line style="stroke:#A80036;stroke-width:1.5;" x1="659" x2="851" y1="952" y2="952"/><text fill="#000000" font-family="sans-serif" font-size="11" lengthAdjust="spacing" textLength="46" x="664" y="966.2104">int posX</text><text fill="#000000" font-family="sans-serif" font-size="11" lengthAdjust="spacing" textLength="45" x="664" y="979.0151">int posY</text><text fill="#000000" font-family="sans-serif" font-size="11" lengthAdjust="spacing" textLength="32" x="664" y="991.8198">int hp</text><text fill="#000000" font-family="sans-serif" font-size="11" lengthAdjust="spacing" textLength="85" x="664" y="1004.6245">int attackPoints</text><text fill="#000000" font-family="sans-serif" font-size="11" lengthAdjust="spacing" textLength="42" x="664" y="1017.4292">int size</text><text fill="#000000" font-family="sans-serif" font-size="11" lengthAdjust="spacing" textLength="61" x="664" y="1030.2339">Body body</text><line style="stroke:#A80036;stroke-width:1.5;" x1="659" x2="851" y1="1036.8281" y2="1036.8281"/><text fill="#000000" font-family="sans-serif" font-size="11" lengthAdjust="spacing" textLength="182" x="664" y="1051.0386">void applyForce(Vector2 vector)</text><!--MD5=[217537f29afe639f347895754667a4fd]
class p--><rect codeLine="117" fill="#FEFECE" filter="url(#f1qrad3lvvozsd)" height="112.0234" id="p" style="stroke:#A80036;stroke-width:1.5;" width="238" x="797" y="624"/><ellipse cx="893.75" cy="640" fill="#ADD1B2" rx="11" ry="11" style="stroke:#A80036;stroke-width:1.0;"/><path d="M896.0938,635.6719 C895.1563,635.2344 894.5625,635.0938 893.6875,635.0938 C891.0625,635.0938 889.0625,637.1719 889.0625,639.8906 L889.0625,641.0156 C889.0625,643.5938 891.1719,645.4844 894.0625,645.4844 C895.2813,645.4844 896.4375,645.1875 897.1875,644.6406 C897.7656,644.2344 898.0938,643.7813 898.0938,643.3906 C898.0938,642.9375 897.7031,642.5469 897.2344,642.5469 C897.0156,642.5469 896.8125,642.625 896.625,642.8125 C896.1719,643.2969 896.1719,643.2969 895.9844,643.3906 C895.5625,643.6563 894.875,643.7813 894.1094,643.7813 C892.0625,643.7813 890.7656,642.6875 890.7656,640.9844 L890.7656,639.8906 C890.7656,638.1094 892.0156,636.7969 893.75,636.7969 C894.3281,636.7969 894.9375,636.9531 895.4063,637.2031 C895.8906,637.4844 896.0625,637.7031 896.1563,638.1094 C896.2188,638.5156 896.25,638.6406 896.3906,638.7656 C896.5313,638.9063 896.7656,639.0156 896.9844,639.0156 C897.25,639.0156 897.5156,638.875 897.6875,638.6563 C897.7969,638.5 897.8281,638.3125 897.8281,637.8906 L897.8281,636.4688 C897.8281,636.0313 897.8125,635.9063 897.7188,635.75 C897.5625,635.4844 897.2813,635.3438 896.9844,635.3438 C896.6875,635.3438 896.4844,635.4375 896.2656,635.75 L896.0938,635.6719 Z " fill="#000000"/><text fill="#000000" font-family="sans-serif" font-size="12" lengthAdjust="spacing" textLength="36" x="914.25" y="644.1543">Player</text><line style="stroke:#A80036;stroke-width:1.5;" x1="798" x2="1034" y1="656" y2="656"/><text fill="#000000" font-family="sans-serif" font-size="11" lengthAdjust="spacing" textLength="86" x="803" y="670.2104">private int size</text><text fill="#000000" font-family="sans-serif" font-size="11" lengthAdjust="spacing" textLength="105" x="803" y="683.0151">private Body body</text><text fill="#000000" font-family="sans-serif" font-size="11" lengthAdjust="spacing" textLength="130" x="803" y="695.8198">private Boolean active</text><line style="stroke:#A80036;stroke-width:1.5;" x1="798" x2="1034" y1="702.4141" y2="702.4141"/><text fill="#000000" font-family="sans-serif" font-size="11" lengthAdjust="spacing" textLength="226" x="803" y="716.6245">Player(World world, int x, int y, int size )</text><text fill="#000000" font-family="sans-serif" font-size="11" lengthAdjust="spacing" textLength="213" x="803" y="729.4292">Potion(World world, int posX, int posY)</text><!--MD5=[0f65af93373b1d3e54eea2ca19f3018b]
class l--><rect codeLine="81" fill="#FEFECE" filter="url(#f1qrad3lvvozsd)" height="214.4609" id="l" style="stroke:#A80036;stroke-width:1.5;" width="246" x="1895" y="241"/><ellipse cx="1986.75" cy="257" fill="#ADD1B2" rx="11" ry="11" style="stroke:#A80036;stroke-width:1.0;"/><path d="M1989.0938,252.6719 C1988.1563,252.2344 1987.5625,252.0938 1986.6875,252.0938 C1984.0625,252.0938 1982.0625,254.1719 1982.0625,256.8906 L1982.0625,258.0156 C1982.0625,260.5938 1984.1719,262.4844 1987.0625,262.4844 C1988.2813,262.4844 1989.4375,262.1875 1990.1875,261.6406 C1990.7656,261.2344 1991.0938,260.7813 1991.0938,260.3906 C1991.0938,259.9375 1990.7031,259.5469 1990.2344,259.5469 C1990.0156,259.5469 1989.8125,259.625 1989.625,259.8125 C1989.1719,260.2969 1989.1719,260.2969 1988.9844,260.3906 C1988.5625,260.6563 1987.875,260.7813 1987.1094,260.7813 C1985.0625,260.7813 1983.7656,259.6875 1983.7656,257.9844 L1983.7656,256.8906 C1983.7656,255.1094 1985.0156,253.7969 1986.75,253.7969 C1987.3281,253.7969 1987.9375,253.9531 1988.4063,254.2031 C1988.8906,254.4844 1989.0625,254.7031 1989.1563,255.1094 C1989.2188,255.5156 1989.25,255.6406 1989.3906,255.7656 C1989.5313,255.9063 1989.7656,256.0156 1989.9844,256.0156 C1990.25,256.0156 1990.5156,255.875 1990.6875,255.6563 C1990.7969,255.5 1990.8281,255.3125 1990.8281,254.8906 L1990.8281,253.4688 C1990.8281,253.0313 1990.8125,252.9063 1990.7188,252.75 C1990.5625,252.4844 1990.2813,252.3438 1989.9844,252.3438 C1989.6875,252.3438 1989.4844,252.4375 1989.2656,252.75 L1989.0938,252.6719 Z " fill="#000000"/><text fill="#000000" font-family="sans-serif" font-size="12" lengthAdjust="spacing" textLength="54" x="2007.25" y="261.1543">Labyrinth</text><line style="stroke:#A80036;stroke-width:1.5;" x1="1896" x2="2140" y1="273" y2="273"/><text fill="#000000" font-family="sans-serif" font-size="11" lengthAdjust="spacing" textLength="94" x="1901" y="287.2104">private int sizeX</text><text fill="#000000" font-family="sans-serif" font-size="11" lengthAdjust="spacing" textLength="93" x="1901" y="300.0151">private int sizeY</text><text fill="#000000" font-family="sans-serif" font-size="11" lengthAdjust="spacing" textLength="103" x="1901" y="312.8198">private int[][] map</text><text fill="#000000" font-family="sans-serif" font-size="11" lengthAdjust="spacing" textLength="205" x="1901" y="325.6245">private AtomicBoolean playerAttack</text><text fill="#000000" font-family="sans-serif" font-size="11" lengthAdjust="spacing" textLength="110" x="1901" y="338.4292">private World world</text><line style="stroke:#A80036;stroke-width:1.5;" x1="1896" x2="2140" y1="345.0234" y2="345.0234"/><text fill="#000000" font-family="sans-serif" font-size="11" lengthAdjust="spacing" textLength="203" x="1901" y="359.2339">public Labyrinth(int sizeX, int sizeY)</text><text fill="#000000" font-family="sans-serif" font-size="11" lengthAdjust="spacing" textLength="218" x="1901" y="372.0386">public void mazeRecursion(int x, int y)</text><text fill="#000000" font-family="sans-serif" font-size="11" lengthAdjust="spacing" textLength="165" x="1901" y="384.8433">private void actionMonsters()</text><text fill="#000000" font-family="sans-serif" font-size="11" lengthAdjust="spacing" textLength="174" x="1901" y="397.6479">private void randomDirection()</text><text fill="#000000" font-family="sans-serif" font-size="11" lengthAdjust="spacing" textLength="234" x="1901" y="410.4526">public void draw(SpriteBatch spriteBatch)</text><text fill="#000000" font-family="sans-serif" font-size="11" lengthAdjust="spacing" textLength="107" x="1901" y="423.2573">public void attack()</text><text fill="#000000" font-family="sans-serif" font-size="11" lengthAdjust="spacing" textLength="232" x="1901" y="436.062">public void movePlayer(Vector2 vector2)</text><text fill="#000000" font-family="sans-serif" font-size="11" lengthAdjust="spacing" textLength="157" x="1901" y="448.8667">public void moveMonsters()</text><!--MD5=[3a0eb407db395671c67c4950880c56d7]
class m--><rect codeLine="18" fill="#FEFECE" filter="url(#f1qrad3lvvozsd)" height="112.0234" id="m" style="stroke:#A80036;stroke-width:1.5;" width="333" x="428.5" y="624"/><ellipse cx="566.75" cy="640" fill="#A9DCDF" rx="11" ry="11" style="stroke:#A80036;stroke-width:1.0;"/><path d="M568.8281,641.8125 L569.2188,642.7969 L568.8281,642.7969 C568.375,642.7969 568.2656,642.8125 568.1094,642.9219 C567.8594,643.0781 567.7031,643.3594 567.7031,643.6563 C567.7031,643.9219 567.8438,644.1719 568.0625,644.3281 C568.2031,644.4531 568.4063,644.5 568.8281,644.5 L571.1875,644.5 C571.5469,644.5 571.7656,644.4688 571.9063,644.375 C572.1563,644.2344 572.3125,643.9375 572.3125,643.6563 C572.3125,643.375 572.1719,643.125 571.9531,642.9688 C571.7813,642.8281 571.625,642.7969 571.1563,642.7969 L567.7656,634.5938 L564.0938,634.5938 C563.6406,634.5938 563.5156,634.6094 563.3594,634.7031 C563.1094,634.875 562.9531,635.1563 562.9531,635.4375 C562.9531,635.7188 563.0938,635.9688 563.3125,636.1406 C563.4844,636.25 563.6563,636.2813 564.0938,636.2813 L565.1719,636.2813 L562.5313,642.7969 C562.1094,642.7969 561.9531,642.8125 561.7969,642.9219 C561.5469,643.0781 561.3906,643.3594 561.3906,643.6563 C561.3906,644.2188 561.7656,644.5 562.5156,644.5 L564.7813,644.5 C565.1406,644.5 565.3594,644.4688 565.4844,644.375 C565.75,644.2344 565.8906,643.9375 565.8906,643.6563 C565.8906,643.375 565.7656,643.125 565.5469,642.9531 C565.375,642.8281 565.2344,642.7969 564.7813,642.7969 L564.3906,642.7969 L564.7813,641.8125 L568.8281,641.8125 Z M568.125,640.1094 L565.4531,640.1094 L566.7969,636.8438 L568.125,640.1094 Z " fill="#000000"/><text fill="#000000" font-family="sans-serif" font-size="12" font-style="italic" lengthAdjust="spacing" textLength="48" x="587.25" y="644.1543">Monster</text><line style="stroke:#A80036;stroke-width:1.5;" x1="429.5" x2="760.5" y1="656" y2="656"/><text fill="#000000" font-family="sans-serif" font-size="11" lengthAdjust="spacing" textLength="94" x="434.5" y="670.2104">private int[] goal</text><text fill="#000000" font-family="sans-serif" font-size="11" lengthAdjust="spacing" textLength="179" x="434.5" y="683.0151">protected PolygonShape shape</text><text fill="#000000" font-family="sans-serif" font-size="11" lengthAdjust="spacing" textLength="186" x="434.5" y="695.8198">private boolean finishedMoving ;</text><line style="stroke:#A80036;stroke-width:1.5;" x1="429.5" x2="760.5" y1="702.4141" y2="702.4141"/><text fill="#000000" font-family="sans-serif" font-size="11" lengthAdjust="spacing" textLength="321" x="434.5" y="716.6245">Monster(World world, int x, int y, int hp, int size, int ratio)</text><text fill="#000000" font-family="sans-serif" font-size="11" lengthAdjust="spacing" textLength="156" x="434.5" y="729.4292">public boolean isMonster1()</text><!--MD5=[71558e40f574c4d2fa8d542d54ab550d]
class Monster1--><rect codeLine="26" fill="#FEFECE" filter="url(#f1qrad3lvvozsd)" height="112.0234" id="Monster1" style="stroke:#A80036;stroke-width:1.5;" width="333" x="431.5" y="292"/><ellipse cx="565.75" cy="308" fill="#ADD1B2" rx="11" ry="11" style="stroke:#A80036;stroke-width:1.0;"/><path d="M568.0938,303.6719 C567.1563,303.2344 566.5625,303.0938 565.6875,303.0938 C563.0625,303.0938 561.0625,305.1719 561.0625,307.8906 L561.0625,309.0156 C561.0625,311.5938 563.1719,313.4844 566.0625,313.4844 C567.2813,313.4844 568.4375,313.1875 569.1875,312.6406 C569.7656,312.2344 570.0938,311.7813 570.0938,311.3906 C570.0938,310.9375 569.7031,310.5469 569.2344,310.5469 C569.0156,310.5469 568.8125,310.625 568.625,310.8125 C568.1719,311.2969 568.1719,311.2969 567.9844,311.3906 C567.5625,311.6563 566.875,311.7813 566.1094,311.7813 C564.0625,311.7813 562.7656,310.6875 562.7656,308.9844 L562.7656,307.8906 C562.7656,306.1094 564.0156,304.7969 565.75,304.7969 C566.3281,304.7969 566.9375,304.9531 567.4063,305.2031 C567.8906,305.4844 568.0625,305.7031 568.1563,306.1094 C568.2188,306.5156 568.25,306.6406 568.3906,306.7656 C568.5313,306.9063 568.7656,307.0156 568.9844,307.0156 C569.25,307.0156 569.5156,306.875 569.6875,306.6563 C569.7969,306.5 569.8281,306.3125 569.8281,305.8906 L569.8281,304.4688 C569.8281,304.0313 569.8125,303.9063 569.7188,303.75 C569.5625,303.4844 569.2813,303.3438 568.9844,303.3438 C568.6875,303.3438 568.4844,303.4375 568.2656,303.75 L568.0938,303.6719 Z " fill="#000000"/><text fill="#000000" font-family="sans-serif" font-size="12" lengthAdjust="spacing" textLength="56" x="586.25" y="312.1543">Monster1</text><line style="stroke:#A80036;stroke-width:1.5;" x1="432.5" x2="763.5" y1="324" y2="324"/><text fill="#000000" font-family="sans-serif" font-size="11" lengthAdjust="spacing" textLength="94" x="437.5" y="338.2104">private int[] goal</text><text fill="#000000" font-family="sans-serif" font-size="11" lengthAdjust="spacing" textLength="179" x="437.5" y="351.0151">protected PolygonShape shape</text><text fill="#000000" font-family="sans-serif" font-size="11" lengthAdjust="spacing" textLength="222" x="437.5" y="363.8198">private boolean finishedMoving = true;</text><line style="stroke:#A80036;stroke-width:1.5;" x1="432.5" x2="763.5" y1="370.4141" y2="370.4141"/><text fill="#000000" font-family="sans-serif" font-size="11" lengthAdjust="spacing" textLength="321" x="437.5" y="384.6245">Monster(World world, int x, int y, int hp, int size, int ratio)</text><text fill="#000000" font-family="sans-serif" font-size="11" lengthAdjust="spacing" textLength="156" x="437.5" y="397.4292">public boolean isMonster1()</text><!--MD5=[55d5cb0aae3dc0d7c2e2f7f576b3e5c2]
class Monster2--><rect codeLine="35" fill="#FEFECE" filter="url(#f1qrad3lvvozsd)" height="60.8047" id="Monster2" style="stroke:#A80036;stroke-width:1.5;" width="340" x="56" y="317.5"/><ellipse cx="193.25" cy="333.5" fill="#ADD1B2" rx="11" ry="11" style="stroke:#A80036;stroke-width:1.0;"/><path d="M195.5938,329.1719 C194.6563,328.7344 194.0625,328.5938 193.1875,328.5938 C190.5625,328.5938 188.5625,330.6719 188.5625,333.3906 L188.5625,334.5156 C188.5625,337.0938 190.6719,338.9844 193.5625,338.9844 C194.7813,338.9844 195.9375,338.6875 196.6875,338.1406 C197.2656,337.7344 197.5938,337.2813 197.5938,336.8906 C197.5938,336.4375 197.2031,336.0469 196.7344,336.0469 C196.5156,336.0469 196.3125,336.125 196.125,336.3125 C195.6719,336.7969 195.6719,336.7969 195.4844,336.8906 C195.0625,337.1563 194.375,337.2813 193.6094,337.2813 C191.5625,337.2813 190.2656,336.1875 190.2656,334.4844 L190.2656,333.3906 C190.2656,331.6094 191.5156,330.2969 193.25,330.2969 C193.8281,330.2969 194.4375,330.4531 194.9063,330.7031 C195.3906,330.9844 195.5625,331.2031 195.6563,331.6094 C195.7188,332.0156 195.75,332.1406 195.8906,332.2656 C196.0313,332.4063 196.2656,332.5156 196.4844,332.5156 C196.75,332.5156 197.0156,332.375 197.1875,332.1563 C197.2969,332 197.3281,331.8125 197.3281,331.3906 L197.3281,329.9688 C197.3281,329.5313 197.3125,329.4063 197.2188,329.25 C197.0625,328.9844 196.7813,328.8438 196.4844,328.8438 C196.1875,328.8438 195.9844,328.9375 195.7656,329.25 L195.5938,329.1719 Z " fill="#000000"/><text fill="#000000" font-family="sans-serif" font-size="12" lengthAdjust="spacing" textLength="57" x="213.75" y="337.6543">Monster2</text><line style="stroke:#A80036;stroke-width:1.5;" x1="57" x2="395" y1="349.5" y2="349.5"/><line style="stroke:#A80036;stroke-width:1.5;" x1="57" x2="395" y1="357.5" y2="357.5"/><text fill="#000000" font-family="sans-serif" font-size="11" lengthAdjust="spacing" textLength="328" x="62" y="371.7104">Monster2(World world, int x, int y, int hp, int size, int ratio)</text><!--MD5=[9613924afaa425a65cc3b882f86e0b0f]
class AStar--><rect codeLine="43" fill="#FEFECE" filter="url(#f1qrad3lvvozsd)" height="137.6328" id="AStar" style="stroke:#A80036;stroke-width:1.5;" width="289" x="2143.5" y="611"/><ellipse cx="2267.75" cy="627" fill="#ADD1B2" rx="11" ry="11" style="stroke:#A80036;stroke-width:1.0;"/><path d="M2270.0938,622.6719 C2269.1563,622.2344 2268.5625,622.0938 2267.6875,622.0938 C2265.0625,622.0938 2263.0625,624.1719 2263.0625,626.8906 L2263.0625,628.0156 C2263.0625,630.5938 2265.1719,632.4844 2268.0625,632.4844 C2269.2813,632.4844 2270.4375,632.1875 2271.1875,631.6406 C2271.7656,631.2344 2272.0938,630.7813 2272.0938,630.3906 C2272.0938,629.9375 2271.7031,629.5469 2271.2344,629.5469 C2271.0156,629.5469 2270.8125,629.625 2270.625,629.8125 C2270.1719,630.2969 2270.1719,630.2969 2269.9844,630.3906 C2269.5625,630.6563 2268.875,630.7813 2268.1094,630.7813 C2266.0625,630.7813 2264.7656,629.6875 2264.7656,627.9844 L2264.7656,626.8906 C2264.7656,625.1094 2266.0156,623.7969 2267.75,623.7969 C2268.3281,623.7969 2268.9375,623.9531 2269.4063,624.2031 C2269.8906,624.4844 2270.0625,624.7031 2270.1563,625.1094 C2270.2188,625.5156 2270.25,625.6406 2270.3906,625.7656 C2270.5313,625.9063 2270.7656,626.0156 2270.9844,626.0156 C2271.25,626.0156 2271.5156,625.875 2271.6875,625.6563 C2271.7969,625.5 2271.8281,625.3125 2271.8281,624.8906 L2271.8281,623.4688 C2271.8281,623.0313 2271.8125,622.9063 2271.7188,622.75 C2271.5625,622.4844 2271.2813,622.3438 2270.9844,622.3438 C2270.6875,622.3438 2270.4844,622.4375 2270.2656,622.75 L2270.0938,622.6719 Z " fill="#000000"/><text fill="#000000" font-family="sans-serif" font-size="12" lengthAdjust="spacing" textLength="32" x="2288.25" y="631.1543">AStar</text><line style="stroke:#A80036;stroke-width:1.5;" x1="2144.5" x2="2431.5" y1="643" y2="643"/><text fill="#000000" font-family="sans-serif" font-size="11" lengthAdjust="spacing" textLength="107" x="2149.5" y="657.2104">private int [][] map</text><line style="stroke:#A80036;stroke-width:1.5;" x1="2144.5" x2="2431.5" y1="663.8047" y2="663.8047"/><text fill="#000000" font-family="sans-serif" font-size="11" lengthAdjust="spacing" textLength="98" x="2149.5" y="678.0151">AStar(int[][] map)</text><text fill="#000000" font-family="sans-serif" font-size="11" lengthAdjust="spacing" textLength="266" x="2149.5" y="690.8198">public int[] getNextMove(int[] start, int[] target)</text><text fill="#000000" font-family="sans-serif" font-size="11" lengthAdjust="spacing" textLength="263" x="2149.5" y="703.6245">public int getPathLength(int[] start, int[] target)</text><text fill="#000000" font-family="sans-serif" font-size="11" lengthAdjust="spacing" textLength="207" x="2149.5" y="716.4292">private Node nextStep(Node target)</text><text fill="#000000" font-family="sans-serif" font-size="11" lengthAdjust="spacing" textLength="250" x="2149.5" y="729.2339">private Node aStar(Node start, Node target)</text><text fill="#000000" font-family="sans-serif" font-size="11" lengthAdjust="spacing" textLength="277" x="2149.5" y="742.0386">private ArrayList&lt;Node&gt; getSuccessors(Node n)</text><!--MD5=[3fee75583bb7a64f68d843a3c9534ab3]
class Node--><rect codeLine="54" fill="#FEFECE" filter="url(#f1qrad3lvvozsd)" height="329.7031" id="Node" style="stroke:#A80036;stroke-width:1.5;" width="325" x="1783.5" y="515"/><ellipse cx="1925.75" cy="531" fill="#ADD1B2" rx="11" ry="11" style="stroke:#A80036;stroke-width:1.0;"/><path d="M1928.0938,526.6719 C1927.1563,526.2344 1926.5625,526.0938 1925.6875,526.0938 C1923.0625,526.0938 1921.0625,528.1719 1921.0625,530.8906 L1921.0625,532.0156 C1921.0625,534.5938 1923.1719,536.4844 1926.0625,536.4844 C1927.2813,536.4844 1928.4375,536.1875 1929.1875,535.6406 C1929.7656,535.2344 1930.0938,534.7813 1930.0938,534.3906 C1930.0938,533.9375 1929.7031,533.5469 1929.2344,533.5469 C1929.0156,533.5469 1928.8125,533.625 1928.625,533.8125 C1928.1719,534.2969 1928.1719,534.2969 1927.9844,534.3906 C1927.5625,534.6563 1926.875,534.7813 1926.1094,534.7813 C1924.0625,534.7813 1922.7656,533.6875 1922.7656,531.9844 L1922.7656,530.8906 C1922.7656,529.1094 1924.0156,527.7969 1925.75,527.7969 C1926.3281,527.7969 1926.9375,527.9531 1927.4063,528.2031 C1927.8906,528.4844 1928.0625,528.7031 1928.1563,529.1094 C1928.2188,529.5156 1928.25,529.6406 1928.3906,529.7656 C1928.5313,529.9063 1928.7656,530.0156 1928.9844,530.0156 C1929.25,530.0156 1929.5156,529.875 1929.6875,529.6563 C1929.7969,529.5 1929.8281,529.3125 1929.8281,528.8906 L1929.8281,527.4688 C1929.8281,527.0313 1929.8125,526.9063 1929.7188,526.75 C1929.5625,526.4844 1929.2813,526.3438 1928.9844,526.3438 C1928.6875,526.3438 1928.4844,526.4375 1928.2656,526.75 L1928.0938,526.6719 Z " fill="#000000"/><text fill="#000000" font-family="sans-serif" font-size="12" lengthAdjust="spacing" textLength="32" x="1946.25" y="535.1543">Node</text><line style="stroke:#A80036;stroke-width:1.5;" x1="1784.5" x2="2107.5" y1="547" y2="547"/><text fill="#000000" font-family="sans-serif" font-size="11" lengthAdjust="spacing" textLength="115" x="1789.5" y="561.2104">private Node parent</text><text fill="#000000" font-family="sans-serif" font-size="11" lengthAdjust="spacing" textLength="151" x="1789.5" y="574.0151">private int totalPathWeight</text><text fill="#000000" font-family="sans-serif" font-size="11" lengthAdjust="spacing" textLength="163" x="1789.5" y="586.8198">private int weightToGetHere</text><text fill="#000000" font-family="sans-serif" font-size="11" lengthAdjust="spacing" textLength="110" x="1789.5" y="599.6245">private int heuristic</text><text fill="#000000" font-family="sans-serif" font-size="11" lengthAdjust="spacing" textLength="69" x="1789.5" y="612.4292">private int x</text><text fill="#000000" font-family="sans-serif" font-size="11" lengthAdjust="spacing" textLength="69" x="1789.5" y="625.2339">private int y</text><line style="stroke:#A80036;stroke-width:1.5;" x1="1784.5" x2="2107.5" y1="631.8281" y2="631.8281"/><text fill="#000000" font-family="sans-serif" font-size="11" lengthAdjust="spacing" textLength="205" x="1789.5" y="646.0386">public Node(int heuristic, int x, int y)</text><text fill="#000000" font-family="sans-serif" font-size="11" lengthAdjust="spacing" textLength="134" x="1789.5" y="658.8433">public Node getParent()</text><text fill="#000000" font-family="sans-serif" font-size="11" lengthAdjust="spacing" textLength="198" x="1789.5" y="671.6479">public void setParent(Node parent)</text><text fill="#000000" font-family="sans-serif" font-size="11" lengthAdjust="spacing" textLength="174" x="1789.5" y="684.4526">public int getTotalPathWeight()</text><text fill="#000000" font-family="sans-serif" font-size="11" lengthAdjust="spacing" textLength="290" x="1789.5" y="697.2573">public void setTotalPathWeight(int totalPathWeight)</text><text fill="#000000" font-family="sans-serif" font-size="11" lengthAdjust="spacing" textLength="185" x="1789.5" y="710.062">public int getWeightToGetHere()</text><text fill="#000000" font-family="sans-serif" font-size="11" lengthAdjust="spacing" textLength="313" x="1789.5" y="722.8667">public void setWeightToGetHere(int weightToGetHere)</text><text fill="#000000" font-family="sans-serif" font-size="11" lengthAdjust="spacing" textLength="273" x="1789.5" y="735.6714">public int calculateAndSetHeuristic(Node target)</text><text fill="#000000" font-family="sans-serif" font-size="11" lengthAdjust="spacing" textLength="206" x="1789.5" y="748.4761">public void setHeuristic(int heuristic)</text><text fill="#000000" font-family="sans-serif" font-size="11" lengthAdjust="spacing" textLength="89" x="1789.5" y="761.2808">public int setX()</text><text fill="#000000" font-family="sans-serif" font-size="11" lengthAdjust="spacing" textLength="90" x="1789.5" y="774.0854">public int getX()</text><text fill="#000000" font-family="sans-serif" font-size="11" lengthAdjust="spacing" textLength="88" x="1789.5" y="786.8901">public int setY()</text><text fill="#000000" font-family="sans-serif" font-size="11" lengthAdjust="spacing" textLength="89" x="1789.5" y="799.6948">public int getY()</text><text fill="#000000" font-family="sans-serif" font-size="11" lengthAdjust="spacing" textLength="168" x="1789.5" y="812.4995">public int compareTo(Node n)</text><text fill="#000000" font-family="sans-serif" font-size="11" lengthAdjust="spacing" textLength="181" x="1789.5" y="825.3042">public boolean equals(Object o)</text><text fill="#000000" font-family="sans-serif" font-size="11" lengthAdjust="spacing" textLength="126" x="1789.5" y="838.1089">public String toString()</text><!--MD5=[e27ec6c0f62a2819cd01b5dacade6e8e]
class w--><rect codeLine="97" fill="#FEFECE" filter="url(#f1qrad3lvvozsd)" height="124.8281" id="w" style="stroke:#A80036;stroke-width:1.5;" width="264" x="2503" y="617.5"/><ellipse cx="2618.25" cy="633.5" fill="#A9DCDF" rx="11" ry="11" style="stroke:#A80036;stroke-width:1.0;"/><path d="M2620.3281,635.3125 L2620.7188,636.2969 L2620.3281,636.2969 C2619.875,636.2969 2619.7656,636.3125 2619.6094,636.4219 C2619.3594,636.5781 2619.2031,636.8594 2619.2031,637.1563 C2619.2031,637.4219 2619.3438,637.6719 2619.5625,637.8281 C2619.7031,637.9531 2619.9063,638 2620.3281,638 L2622.6875,638 C2623.0469,638 2623.2656,637.9688 2623.4063,637.875 C2623.6563,637.7344 2623.8125,637.4375 2623.8125,637.1563 C2623.8125,636.875 2623.6719,636.625 2623.4531,636.4688 C2623.2813,636.3281 2623.125,636.2969 2622.6563,636.2969 L2619.2656,628.0938 L2615.5938,628.0938 C2615.1406,628.0938 2615.0156,628.1094 2614.8594,628.2031 C2614.6094,628.375 2614.4531,628.6563 2614.4531,628.9375 C2614.4531,629.2188 2614.5938,629.4688 2614.8125,629.6406 C2614.9844,629.75 2615.1563,629.7813 2615.5938,629.7813 L2616.6719,629.7813 L2614.0313,636.2969 C2613.6094,636.2969 2613.4531,636.3125 2613.2969,636.4219 C2613.0469,636.5781 2612.8906,636.8594 2612.8906,637.1563 C2612.8906,637.7188 2613.2656,638 2614.0156,638 L2616.2813,638 C2616.6406,638 2616.8594,637.9688 2616.9844,637.875 C2617.25,637.7344 2617.3906,637.4375 2617.3906,637.1563 C2617.3906,636.875 2617.2656,636.625 2617.0469,636.4531 C2616.875,636.3281 2616.7344,636.2969 2616.2813,636.2969 L2615.8906,636.2969 L2616.2813,635.3125 L2620.3281,635.3125 Z M2619.625,633.6094 L2616.9531,633.6094 L2618.2969,630.3438 L2619.625,633.6094 Z " fill="#000000"/><text fill="#000000" font-family="sans-serif" font-size="12" font-style="italic" lengthAdjust="spacing" textLength="25" x="2638.75" y="637.6543">Wall</text><line style="stroke:#A80036;stroke-width:1.5;" x1="2504" x2="2766" y1="649.5" y2="649.5"/><text fill="#000000" font-family="sans-serif" font-size="11" lengthAdjust="spacing" textLength="90" x="2509" y="663.7104">private int posX</text><text fill="#000000" font-family="sans-serif" font-size="11" lengthAdjust="spacing" textLength="89" x="2509" y="676.5151">private int posY</text><text fill="#000000" font-family="sans-serif" font-size="11" lengthAdjust="spacing" textLength="86" x="2509" y="689.3198">private int size</text><text fill="#000000" font-family="sans-serif" font-size="11" lengthAdjust="spacing" textLength="120" x="2509" y="702.1245">protected Body body</text><text fill="#000000" font-family="sans-serif" font-size="11" lengthAdjust="spacing" textLength="179" x="2509" y="714.9292">protected PolygonShape shape</text><line style="stroke:#A80036;stroke-width:1.5;" x1="2504" x2="2766" y1="721.5234" y2="721.5234"/><text fill="#000000" font-family="sans-serif" font-size="11" lengthAdjust="spacing" textLength="252" x="2509" y="735.7339">Wall(World world, int posX, int posY, int size)</text><!--MD5=[8fcf2e5db17c4ae3317dfb47f8a9af4a]
class WallObstacle--><rect codeLine="106" fill="#FEFECE" filter="url(#f1qrad3lvvozsd)" height="60.8047" id="WallObstacle" style="stroke:#A80036;stroke-width:1.5;" width="314" x="2816" y="317.5"/><ellipse cx="2929.25" cy="333.5" fill="#ADD1B2" rx="11" ry="11" style="stroke:#A80036;stroke-width:1.0;"/><path d="M2931.5938,329.1719 C2930.6563,328.7344 2930.0625,328.5938 2929.1875,328.5938 C2926.5625,328.5938 2924.5625,330.6719 2924.5625,333.3906 L2924.5625,334.5156 C2924.5625,337.0938 2926.6719,338.9844 2929.5625,338.9844 C2930.7813,338.9844 2931.9375,338.6875 2932.6875,338.1406 C2933.2656,337.7344 2933.5938,337.2813 2933.5938,336.8906 C2933.5938,336.4375 2933.2031,336.0469 2932.7344,336.0469 C2932.5156,336.0469 2932.3125,336.125 2932.125,336.3125 C2931.6719,336.7969 2931.6719,336.7969 2931.4844,336.8906 C2931.0625,337.1563 2930.375,337.2813 2929.6094,337.2813 C2927.5625,337.2813 2926.2656,336.1875 2926.2656,334.4844 L2926.2656,333.3906 C2926.2656,331.6094 2927.5156,330.2969 2929.25,330.2969 C2929.8281,330.2969 2930.4375,330.4531 2930.9063,330.7031 C2931.3906,330.9844 2931.5625,331.2031 2931.6563,331.6094 C2931.7188,332.0156 2931.75,332.1406 2931.8906,332.2656 C2932.0313,332.4063 2932.2656,332.5156 2932.4844,332.5156 C2932.75,332.5156 2933.0156,332.375 2933.1875,332.1563 C2933.2969,332 2933.3281,331.8125 2933.3281,331.3906 L2933.3281,329.9688 C2933.3281,329.5313 2933.3125,329.4063 2933.2188,329.25 C2933.0625,328.9844 2932.7813,328.8438 2932.4844,328.8438 C2932.1875,328.8438 2931.9844,328.9375 2931.7656,329.25 L2931.5938,329.1719 Z " fill="#000000"/><text fill="#000000" font-family="sans-serif" font-size="12" lengthAdjust="spacing" textLength="79" x="2949.75" y="337.6543">WallObstacle</text><line style="stroke:#A80036;stroke-width:1.5;" x1="2817" x2="3129" y1="349.5" y2="349.5"/><line style="stroke:#A80036;stroke-width:1.5;" x1="2817" x2="3129" y1="357.5" y2="357.5"/><text fill="#000000" font-family="sans-serif" font-size="11" lengthAdjust="spacing" textLength="302" x="2822" y="371.7104">WallObstacle(World world, int posX, int posY, int size)</text><!--MD5=[96d765f81ebe98fe293d737dedd5b313]
class WallLimit--><rect codeLine="110" fill="#FEFECE" filter="url(#f1qrad3lvvozsd)" height="60.8047" id="WallLimit" style="stroke:#A80036;stroke-width:1.5;" width="291" x="2489.5" y="317.5"/><ellipse cx="2604.75" cy="333.5" fill="#ADD1B2" rx="11" ry="11" style="stroke:#A80036;stroke-width:1.0;"/><path d="M2607.0938,329.1719 C2606.1563,328.7344 2605.5625,328.5938 2604.6875,328.5938 C2602.0625,328.5938 2600.0625,330.6719 2600.0625,333.3906 L2600.0625,334.5156 C2600.0625,337.0938 2602.1719,338.9844 2605.0625,338.9844 C2606.2813,338.9844 2607.4375,338.6875 2608.1875,338.1406 C2608.7656,337.7344 2609.0938,337.2813 2609.0938,336.8906 C2609.0938,336.4375 2608.7031,336.0469 2608.2344,336.0469 C2608.0156,336.0469 2607.8125,336.125 2607.625,336.3125 C2607.1719,336.7969 2607.1719,336.7969 2606.9844,336.8906 C2606.5625,337.1563 2605.875,337.2813 2605.1094,337.2813 C2603.0625,337.2813 2601.7656,336.1875 2601.7656,334.4844 L2601.7656,333.3906 C2601.7656,331.6094 2603.0156,330.2969 2604.75,330.2969 C2605.3281,330.2969 2605.9375,330.4531 2606.4063,330.7031 C2606.8906,330.9844 2607.0625,331.2031 2607.1563,331.6094 C2607.2188,332.0156 2607.25,332.1406 2607.3906,332.2656 C2607.5313,332.4063 2607.7656,332.5156 2607.9844,332.5156 C2608.25,332.5156 2608.5156,332.375 2608.6875,332.1563 C2608.7969,332 2608.8281,331.8125 2608.8281,331.3906 L2608.8281,329.9688 C2608.8281,329.5313 2608.8125,329.4063 2608.7188,329.25 C2608.5625,328.9844 2608.2813,328.8438 2607.9844,328.8438 C2607.6875,328.8438 2607.4844,328.9375 2607.2656,329.25 L2607.0938,329.1719 Z " fill="#000000"/><text fill="#000000" font-family="sans-serif" font-size="12" lengthAdjust="spacing" textLength="52" x="2625.25" y="337.6543">WallLimit</text><line style="stroke:#A80036;stroke-width:1.5;" x1="2490.5" x2="2779.5" y1="349.5" y2="349.5"/><line style="stroke:#A80036;stroke-width:1.5;" x1="2490.5" x2="2779.5" y1="357.5" y2="357.5"/><text fill="#000000" font-family="sans-serif" font-size="11" lengthAdjust="spacing" textLength="279" x="2495.5" y="371.7104">WallLimit(World world, int posX, int posY, int size)</text><!--MD5=[26efd2e1d59de112df14df86c5c974fe]
class ce--><rect codeLine="128" fill="#FEFECE" filter="url(#f1qrad3lvvozsd)" height="137.6328" id="ce" style="stroke:#A80036;stroke-width:1.5;" width="248" x="1282" y="920"/><ellipse cx="1379.75" cy="936" fill="#ADD1B2" rx="11" ry="11" style="stroke:#A80036;stroke-width:1.0;"/><path d="M1382.0938,931.6719 C1381.1563,931.2344 1380.5625,931.0938 1379.6875,931.0938 C1377.0625,931.0938 1375.0625,933.1719 1375.0625,935.8906 L1375.0625,937.0156 C1375.0625,939.5938 1377.1719,941.4844 1380.0625,941.4844 C1381.2813,941.4844 1382.4375,941.1875 1383.1875,940.6406 C1383.7656,940.2344 1384.0938,939.7813 1384.0938,939.3906 C1384.0938,938.9375 1383.7031,938.5469 1383.2344,938.5469 C1383.0156,938.5469 1382.8125,938.625 1382.625,938.8125 C1382.1719,939.2969 1382.1719,939.2969 1381.9844,939.3906 C1381.5625,939.6563 1380.875,939.7813 1380.1094,939.7813 C1378.0625,939.7813 1376.7656,938.6875 1376.7656,936.9844 L1376.7656,935.8906 C1376.7656,934.1094 1378.0156,932.7969 1379.75,932.7969 C1380.3281,932.7969 1380.9375,932.9531 1381.4063,933.2031 C1381.8906,933.4844 1382.0625,933.7031 1382.1563,934.1094 C1382.2188,934.5156 1382.25,934.6406 1382.3906,934.7656 C1382.5313,934.9063 1382.7656,935.0156 1382.9844,935.0156 C1383.25,935.0156 1383.5156,934.875 1383.6875,934.6563 C1383.7969,934.5 1383.8281,934.3125 1383.8281,933.8906 L1383.8281,932.4688 C1383.8281,932.0313 1383.8125,931.9063 1383.7188,931.75 C1383.5625,931.4844 1383.2813,931.3438 1382.9844,931.3438 C1382.6875,931.3438 1382.4844,931.4375 1382.2656,931.75 L1382.0938,931.6719 Z " fill="#000000"/><text fill="#000000" font-family="sans-serif" font-size="12" lengthAdjust="spacing" textLength="44" x="1400.25" y="940.1543">CellEnd</text><line style="stroke:#A80036;stroke-width:1.5;" x1="1283" x2="1529" y1="952" y2="952"/><text fill="#000000" font-family="sans-serif" font-size="11" lengthAdjust="spacing" textLength="105" x="1288" y="966.2104">private Body body</text><text fill="#000000" font-family="sans-serif" font-size="11" lengthAdjust="spacing" textLength="86" x="1288" y="979.0151">private int size</text><line style="stroke:#A80036;stroke-width:1.5;" x1="1283" x2="1529" y1="985.6094" y2="985.6094"/><text fill="#000000" font-family="sans-serif" font-size="11" lengthAdjust="spacing" textLength="236" x="1288" y="999.8198">CellNext(World world, int x, int y, int size)</text><text fill="#000000" font-family="sans-serif" font-size="11" lengthAdjust="spacing" textLength="173" x="1288" y="1012.6245">public float getBodyPositionX()</text><text fill="#000000" font-family="sans-serif" font-size="11" lengthAdjust="spacing" textLength="172" x="1288" y="1025.4292">public float getBodyPositionY()</text><text fill="#000000" font-family="sans-serif" font-size="11" lengthAdjust="spacing" textLength="108" x="1288" y="1038.2339">public int getSize()</text><text fill="#000000" font-family="sans-serif" font-size="11" lengthAdjust="spacing" textLength="177" x="1288" y="1051.0386">public boolean isTreasureCell()</text><!--MD5=[c308a51a3d31e1fc4196c1eecc3a5b43]
class CellTrap--><rect codeLine="139" fill="#FEFECE" filter="url(#f1qrad3lvvozsd)" height="86.4141" id="CellTrap" style="stroke:#A80036;stroke-width:1.5;" width="296" x="1415" y="637"/><ellipse cx="1534.25" cy="653" fill="#ADD1B2" rx="11" ry="11" style="stroke:#A80036;stroke-width:1.0;"/><path d="M1536.5938,648.6719 C1535.6563,648.2344 1535.0625,648.0938 1534.1875,648.0938 C1531.5625,648.0938 1529.5625,650.1719 1529.5625,652.8906 L1529.5625,654.0156 C1529.5625,656.5938 1531.6719,658.4844 1534.5625,658.4844 C1535.7813,658.4844 1536.9375,658.1875 1537.6875,657.6406 C1538.2656,657.2344 1538.5938,656.7813 1538.5938,656.3906 C1538.5938,655.9375 1538.2031,655.5469 1537.7344,655.5469 C1537.5156,655.5469 1537.3125,655.625 1537.125,655.8125 C1536.6719,656.2969 1536.6719,656.2969 1536.4844,656.3906 C1536.0625,656.6563 1535.375,656.7813 1534.6094,656.7813 C1532.5625,656.7813 1531.2656,655.6875 1531.2656,653.9844 L1531.2656,652.8906 C1531.2656,651.1094 1532.5156,649.7969 1534.25,649.7969 C1534.8281,649.7969 1535.4375,649.9531 1535.9063,650.2031 C1536.3906,650.4844 1536.5625,650.7031 1536.6563,651.1094 C1536.7188,651.5156 1536.75,651.6406 1536.8906,651.7656 C1537.0313,651.9063 1537.2656,652.0156 1537.4844,652.0156 C1537.75,652.0156 1538.0156,651.875 1538.1875,651.6563 C1538.2969,651.5 1538.3281,651.3125 1538.3281,650.8906 L1538.3281,649.4688 C1538.3281,649.0313 1538.3125,648.9063 1538.2188,648.75 C1538.0625,648.4844 1537.7813,648.3438 1537.4844,648.3438 C1537.1875,648.3438 1536.9844,648.4375 1536.7656,648.75 L1536.5938,648.6719 Z " fill="#000000"/><text fill="#000000" font-family="sans-serif" font-size="12" lengthAdjust="spacing" textLength="49" x="1554.75" y="657.1543">CellTrap</text><line style="stroke:#A80036;stroke-width:1.5;" x1="1416" x2="1710" y1="669" y2="669"/><text fill="#000000" font-family="sans-serif" font-size="11" lengthAdjust="spacing" textLength="108" x="1421" y="683.2104">private Body body;</text><line style="stroke:#A80036;stroke-width:1.5;" x1="1416" x2="1710" y1="689.8047" y2="689.8047"/><text fill="#000000" font-family="sans-serif" font-size="11" lengthAdjust="spacing" textLength="284" x="1421" y="704.0151">CellTrap(World world, int x, int y, int size, int ratio)</text><text fill="#000000" font-family="sans-serif" font-size="11" lengthAdjust="spacing" textLength="200" x="1421" y="716.8198">public void getEffect(Player player)</text><!--MD5=[d379e0c2aa70536250d91cf2c8e59a33]
class CellTreasure--><rect codeLine="147" fill="#FEFECE" filter="url(#f1qrad3lvvozsd)" height="112.0234" id="CellTreasure" style="stroke:#A80036;stroke-width:1.5;" width="309" x="1070.5" y="624"/><ellipse cx="1182.75" cy="640" fill="#ADD1B2" rx="11" ry="11" style="stroke:#A80036;stroke-width:1.0;"/><path d="M1185.0938,635.6719 C1184.1563,635.2344 1183.5625,635.0938 1182.6875,635.0938 C1180.0625,635.0938 1178.0625,637.1719 1178.0625,639.8906 L1178.0625,641.0156 C1178.0625,643.5938 1180.1719,645.4844 1183.0625,645.4844 C1184.2813,645.4844 1185.4375,645.1875 1186.1875,644.6406 C1186.7656,644.2344 1187.0938,643.7813 1187.0938,643.3906 C1187.0938,642.9375 1186.7031,642.5469 1186.2344,642.5469 C1186.0156,642.5469 1185.8125,642.625 1185.625,642.8125 C1185.1719,643.2969 1185.1719,643.2969 1184.9844,643.3906 C1184.5625,643.6563 1183.875,643.7813 1183.1094,643.7813 C1181.0625,643.7813 1179.7656,642.6875 1179.7656,640.9844 L1179.7656,639.8906 C1179.7656,638.1094 1181.0156,636.7969 1182.75,636.7969 C1183.3281,636.7969 1183.9375,636.9531 1184.4063,637.2031 C1184.8906,637.4844 1185.0625,637.7031 1185.1563,638.1094 C1185.2188,638.5156 1185.25,638.6406 1185.3906,638.7656 C1185.5313,638.9063 1185.7656,639.0156 1185.9844,639.0156 C1186.25,639.0156 1186.5156,638.875 1186.6875,638.6563 C1186.7969,638.5 1186.8281,638.3125 1186.8281,637.8906 L1186.8281,636.4688 C1186.8281,636.0313 1186.8125,635.9063 1186.7188,635.75 C1186.5625,635.4844 1186.2813,635.3438 1185.9844,635.3438 C1185.6875,635.3438 1185.4844,635.4375 1185.2656,635.75 L1185.0938,635.6719 Z " fill="#000000"/><text fill="#000000" font-family="sans-serif" font-size="12" lengthAdjust="spacing" textLength="76" x="1203.25" y="644.1543">CellTreasure</text><line style="stroke:#A80036;stroke-width:1.5;" x1="1071.5" x2="1378.5" y1="656" y2="656"/><text fill="#000000" font-family="sans-serif" font-size="11" lengthAdjust="spacing" textLength="142" x="1076.5" y="670.2104">private boolean treasure</text><line style="stroke:#A80036;stroke-width:1.5;" x1="1071.5" x2="1378.5" y1="676.8047" y2="676.8047"/><text fill="#000000" font-family="sans-serif" font-size="11" lengthAdjust="spacing" textLength="297" x="1076.5" y="691.0151">public CellTreasure(World world, int x, int y, int size)</text><text fill="#000000" font-family="sans-serif" font-size="11" lengthAdjust="spacing" textLength="155" x="1076.5" y="703.8198">public boolean isTreasure()</text><text fill="#000000" font-family="sans-serif" font-size="11" lengthAdjust="spacing" textLength="240" x="1076.5" y="716.6245">public void setTreasure(boolean treasure)</text><text fill="#000000" font-family="sans-serif" font-size="11" lengthAdjust="spacing" textLength="177" x="1076.5" y="729.4292">public boolean isTreasureCell()</text><!--MD5=[ead73416652826f9fe132029f85a92e8]
class gs--><rect codeLine="174" fill="#FEFECE" filter="url(#f1qrad3lvvozsd)" height="124.8281" id="gs" style="stroke:#A80036;stroke-width:1.5;" width="230" x="3740" y="617.5"/><ellipse cx="3811.75" cy="633.5" fill="#ADD1B2" rx="11" ry="11" style="stroke:#A80036;stroke-width:1.0;"/><path d="M3814.0938,629.1719 C3813.1563,628.7344 3812.5625,628.5938 3811.6875,628.5938 C3809.0625,628.5938 3807.0625,630.6719 3807.0625,633.3906 L3807.0625,634.5156 C3807.0625,637.0938 3809.1719,638.9844 3812.0625,638.9844 C3813.2813,638.9844 3814.4375,638.6875 3815.1875,638.1406 C3815.7656,637.7344 3816.0938,637.2813 3816.0938,636.8906 C3816.0938,636.4375 3815.7031,636.0469 3815.2344,636.0469 C3815.0156,636.0469 3814.8125,636.125 3814.625,636.3125 C3814.1719,636.7969 3814.1719,636.7969 3813.9844,636.8906 C3813.5625,637.1563 3812.875,637.2813 3812.1094,637.2813 C3810.0625,637.2813 3808.7656,636.1875 3808.7656,634.4844 L3808.7656,633.3906 C3808.7656,631.6094 3810.0156,630.2969 3811.75,630.2969 C3812.3281,630.2969 3812.9375,630.4531 3813.4063,630.7031 C3813.8906,630.9844 3814.0625,631.2031 3814.1563,631.6094 C3814.2188,632.0156 3814.25,632.1406 3814.3906,632.2656 C3814.5313,632.4063 3814.7656,632.5156 3814.9844,632.5156 C3815.25,632.5156 3815.5156,632.375 3815.6875,632.1563 C3815.7969,632 3815.8281,631.8125 3815.8281,631.3906 L3815.8281,629.9688 C3815.8281,629.5313 3815.8125,629.4063 3815.7188,629.25 C3815.5625,628.9844 3815.2813,628.8438 3814.9844,628.8438 C3814.6875,628.8438 3814.4844,628.9375 3814.2656,629.25 L3814.0938,629.1719 Z " fill="#000000"/><text fill="#000000" font-family="sans-serif" font-size="12" lengthAdjust="spacing" textLength="78" x="3832.25" y="637.6543">GameScreen</text><line style="stroke:#A80036;stroke-width:1.5;" x1="3741" x2="3969" y1="649.5" y2="649.5"/><text fill="#000000" font-family="sans-serif" font-size="11" lengthAdjust="spacing" textLength="208" x="3746" y="663.7104">private OrthographicCamera camera</text><text fill="#000000" font-family="sans-serif" font-size="11" lengthAdjust="spacing" textLength="178" x="3746" y="676.5151">private SpriteBatch spriteBatch</text><line style="stroke:#A80036;stroke-width:1.5;" x1="3741" x2="3969" y1="683.1094" y2="683.1094"/><text fill="#000000" font-family="sans-serif" font-size="11" lengthAdjust="spacing" textLength="197" x="3746" y="697.3198">GameScreen(Labyrinthe labyrinth)</text><text fill="#000000" font-family="sans-serif" font-size="11" lengthAdjust="spacing" textLength="169" x="3746" y="710.1245">public void render(float delta)</text><text fill="#000000" font-family="sans-serif" font-size="11" lengthAdjust="spacing" textLength="218" x="3746" y="722.9292">public void resize(int width, int height)</text><text fill="#000000" font-family="sans-serif" font-size="11" lengthAdjust="spacing" textLength="117" x="3746" y="735.7339">public void dispose()</text><!--MD5=[9b0b2fbeba1f784743fb1b1f2ae85e79]
class gos--><rect codeLine="184" fill="#FEFECE" filter="url(#f1qrad3lvvozsd)" height="124.8281" id="gos" style="stroke:#A80036;stroke-width:1.5;" width="230" x="3475" y="617.5"/><ellipse cx="3531.75" cy="633.5" fill="#ADD1B2" rx="11" ry="11" style="stroke:#A80036;stroke-width:1.0;"/><path d="M3534.0938,629.1719 C3533.1563,628.7344 3532.5625,628.5938 3531.6875,628.5938 C3529.0625,628.5938 3527.0625,630.6719 3527.0625,633.3906 L3527.0625,634.5156 C3527.0625,637.0938 3529.1719,638.9844 3532.0625,638.9844 C3533.2813,638.9844 3534.4375,638.6875 3535.1875,638.1406 C3535.7656,637.7344 3536.0938,637.2813 3536.0938,636.8906 C3536.0938,636.4375 3535.7031,636.0469 3535.2344,636.0469 C3535.0156,636.0469 3534.8125,636.125 3534.625,636.3125 C3534.1719,636.7969 3534.1719,636.7969 3533.9844,636.8906 C3533.5625,637.1563 3532.875,637.2813 3532.1094,637.2813 C3530.0625,637.2813 3528.7656,636.1875 3528.7656,634.4844 L3528.7656,633.3906 C3528.7656,631.6094 3530.0156,630.2969 3531.75,630.2969 C3532.3281,630.2969 3532.9375,630.4531 3533.4063,630.7031 C3533.8906,630.9844 3534.0625,631.2031 3534.1563,631.6094 C3534.2188,632.0156 3534.25,632.1406 3534.3906,632.2656 C3534.5313,632.4063 3534.7656,632.5156 3534.9844,632.5156 C3535.25,632.5156 3535.5156,632.375 3535.6875,632.1563 C3535.7969,632 3535.8281,631.8125 3535.8281,631.3906 L3535.8281,629.9688 C3535.8281,629.5313 3535.8125,629.4063 3535.7188,629.25 C3535.5625,628.9844 3535.2813,628.8438 3534.9844,628.8438 C3534.6875,628.8438 3534.4844,628.9375 3534.2656,629.25 L3534.0938,629.1719 Z " fill="#000000"/><text fill="#000000" font-family="sans-serif" font-size="12" lengthAdjust="spacing" textLength="108" x="3552.25" y="637.6543">GameOverScreen</text><line style="stroke:#A80036;stroke-width:1.5;" x1="3476" x2="3704" y1="649.5" y2="649.5"/><text fill="#000000" font-family="sans-serif" font-size="11" lengthAdjust="spacing" textLength="178" x="3481" y="663.7104">private SpriteBatch spriteBatch</text><text fill="#000000" font-family="sans-serif" font-size="11" lengthAdjust="spacing" textLength="208" x="3481" y="676.5151">private OrthographicCamera camera</text><line style="stroke:#A80036;stroke-width:1.5;" x1="3476" x2="3704" y1="683.1094" y2="683.1094"/><text fill="#000000" font-family="sans-serif" font-size="11" lengthAdjust="spacing" textLength="149" x="3481" y="697.3198">public GameOverScreen()</text><text fill="#000000" font-family="sans-serif" font-size="11" lengthAdjust="spacing" textLength="169" x="3481" y="710.1245">public void render(float delta)</text><text fill="#000000" font-family="sans-serif" font-size="11" lengthAdjust="spacing" textLength="218" x="3481" y="722.9292">public void resize(int width, int height)</text><text fill="#000000" font-family="sans-serif" font-size="11" lengthAdjust="spacing" textLength="117" x="3481" y="735.7339">public void dispose()</text><!--MD5=[cdde92398a52d7db504911c0fce5207a]
class ws--><rect codeLine="193" fill="#FEFECE" filter="url(#f1qrad3lvvozsd)" height="124.8281" id="ws" style="stroke:#A80036;stroke-width:1.5;" width="230" x="3210" y="617.5"/><ellipse cx="3288.25" cy="633.5" fill="#ADD1B2" rx="11" ry="11" style="stroke:#A80036;stroke-width:1.0;"/><path d="M3290.5938,629.1719 C3289.6563,628.7344 3289.0625,628.5938 3288.1875,628.5938 C3285.5625,628.5938 3283.5625,630.6719 3283.5625,633.3906 L3283.5625,634.5156 C3283.5625,637.0938 3285.6719,638.9844 3288.5625,638.9844 C3289.7813,638.9844 3290.9375,638.6875 3291.6875,638.1406 C3292.2656,637.7344 3292.5938,637.2813 3292.5938,636.8906 C3292.5938,636.4375 3292.2031,636.0469 3291.7344,636.0469 C3291.5156,636.0469 3291.3125,636.125 3291.125,636.3125 C3290.6719,636.7969 3290.6719,636.7969 3290.4844,636.8906 C3290.0625,637.1563 3289.375,637.2813 3288.6094,637.2813 C3286.5625,637.2813 3285.2656,636.1875 3285.2656,634.4844 L3285.2656,633.3906 C3285.2656,631.6094 3286.5156,630.2969 3288.25,630.2969 C3288.8281,630.2969 3289.4375,630.4531 3289.9063,630.7031 C3290.3906,630.9844 3290.5625,631.2031 3290.6563,631.6094 C3290.7188,632.0156 3290.75,632.1406 3290.8906,632.2656 C3291.0313,632.4063 3291.2656,632.5156 3291.4844,632.5156 C3291.75,632.5156 3292.0156,632.375 3292.1875,632.1563 C3292.2969,632 3292.3281,631.8125 3292.3281,631.3906 L3292.3281,629.9688 C3292.3281,629.5313 3292.3125,629.4063 3292.2188,629.25 C3292.0625,628.9844 3291.7813,628.8438 3291.4844,628.8438 C3291.1875,628.8438 3290.9844,628.9375 3290.7656,629.25 L3290.5938,629.1719 Z " fill="#000000"/><text fill="#000000" font-family="sans-serif" font-size="12" lengthAdjust="spacing" textLength="65" x="3308.75" y="637.6543">WinScreen</text><line style="stroke:#A80036;stroke-width:1.5;" x1="3211" x2="3439" y1="649.5" y2="649.5"/><text fill="#000000" font-family="sans-serif" font-size="11" lengthAdjust="spacing" textLength="178" x="3216" y="663.7104">private SpriteBatch spriteBatch</text><text fill="#000000" font-family="sans-serif" font-size="11" lengthAdjust="spacing" textLength="208" x="3216" y="676.5151">private OrthographicCamera camera</text><line style="stroke:#A80036;stroke-width:1.5;" x1="3211" x2="3439" y1="683.1094" y2="683.1094"/><text fill="#000000" font-family="sans-serif" font-size="11" lengthAdjust="spacing" textLength="149" x="3216" y="697.3198">public GameOverScreen()</text><text fill="#000000" font-family="sans-serif" font-size="11" lengthAdjust="spacing" textLength="169" x="3216" y="710.1245">public void render(float delta)</text><text fill="#000000" font-family="sans-serif" font-size="11" lengthAdjust="spacing" textLength="218" x="3216" y="722.9292">public void resize(int width, int height)</text><text fill="#000000" font-family="sans-serif" font-size="11" lengthAdjust="spacing" textLength="117" x="3216" y="735.7339">public void dispose()</text><!--MD5=[0ba94c7f1574f474e13f6b7da3e0d95b]
class kb--><rect codeLine="207" fill="#FEFECE" filter="url(#f1qrad3lvvozsd)" height="137.6328" id="kb" style="stroke:#A80036;stroke-width:1.5;" width="432" x="3343" y="920"/><ellipse cx="3525.25" cy="936" fill="#ADD1B2" rx="11" ry="11" style="stroke:#A80036;stroke-width:1.0;"/><path d="M3527.5938,931.6719 C3526.6563,931.2344 3526.0625,931.0938 3525.1875,931.0938 C3522.5625,931.0938 3520.5625,933.1719 3520.5625,935.8906 L3520.5625,937.0156 C3520.5625,939.5938 3522.6719,941.4844 3525.5625,941.4844 C3526.7813,941.4844 3527.9375,941.1875 3528.6875,940.6406 C3529.2656,940.2344 3529.5938,939.7813 3529.5938,939.3906 C3529.5938,938.9375 3529.2031,938.5469 3528.7344,938.5469 C3528.5156,938.5469 3528.3125,938.625 3528.125,938.8125 C3527.6719,939.2969 3527.6719,939.2969 3527.4844,939.3906 C3527.0625,939.6563 3526.375,939.7813 3525.6094,939.7813 C3523.5625,939.7813 3522.2656,938.6875 3522.2656,936.9844 L3522.2656,935.8906 C3522.2656,934.1094 3523.5156,932.7969 3525.25,932.7969 C3525.8281,932.7969 3526.4375,932.9531 3526.9063,933.2031 C3527.3906,933.4844 3527.5625,933.7031 3527.6563,934.1094 C3527.7188,934.5156 3527.75,934.6406 3527.8906,934.7656 C3528.0313,934.9063 3528.2656,935.0156 3528.4844,935.0156 C3528.75,935.0156 3529.0156,934.875 3529.1875,934.6563 C3529.2969,934.5 3529.3281,934.3125 3529.3281,933.8906 L3529.3281,932.4688 C3529.3281,932.0313 3529.3125,931.9063 3529.2188,931.75 C3529.0625,931.4844 3528.7813,931.3438 3528.4844,931.3438 C3528.1875,931.3438 3527.9844,931.4375 3527.7656,931.75 L3527.5938,931.6719 Z " fill="#000000"/><text fill="#000000" font-family="sans-serif" font-size="12" lengthAdjust="spacing" textLength="59" x="3545.75" y="940.1543">Keyboard</text><line style="stroke:#A80036;stroke-width:1.5;" x1="3344" x2="3774" y1="952" y2="952"/><text fill="#000000" font-family="sans-serif" font-size="11" lengthAdjust="spacing" textLength="111" x="3349" y="966.2104">private Vector2 acc</text><text fill="#000000" font-family="sans-serif" font-size="11" lengthAdjust="spacing" textLength="91" x="3349" y="979.0151">private int coeff</text><text fill="#000000" font-family="sans-serif" font-size="11" lengthAdjust="spacing" textLength="131" x="3349" y="991.8198">private Boolean debug</text><line style="stroke:#A80036;stroke-width:1.5;" x1="3344" x2="3774" y1="998.4141" y2="998.4141"/><text fill="#000000" font-family="sans-serif" font-size="11" lengthAdjust="spacing" textLength="212" x="3349" y="1012.6245">public Keyboard(Labyrinth labyrinthe)</text><text fill="#000000" font-family="sans-serif" font-size="11" lengthAdjust="spacing" textLength="218" x="3349" y="1025.4292">public boolean KeyDown(int keyCode)</text><text fill="#000000" font-family="sans-serif" font-size="11" lengthAdjust="spacing" textLength="199" x="3349" y="1038.2339">public boolean KeyUp(int keycode)</text><text fill="#000000" font-family="sans-serif" font-size="11" lengthAdjust="spacing" textLength="420" x="3349" y="1051.0386">public boolean touchDown(int screenX, int screenY, int pointer, int button)</text><!--MD5=[1b181a3347da2b73896c49ae2cdc57fa]
class FactoryTexture--><rect codeLine="224" fill="#FEFECE" filter="url(#f1qrad3lvvozsd)" height="124.8281" id="FactoryTexture" style="stroke:#A80036;stroke-width:1.5;" width="228" x="4629" y="41"/><ellipse cx="4693.25" cy="57" fill="#ADD1B2" rx="11" ry="11" style="stroke:#A80036;stroke-width:1.0;"/><path d="M4695.5938,52.6719 C4694.6563,52.2344 4694.0625,52.0938 4693.1875,52.0938 C4690.5625,52.0938 4688.5625,54.1719 4688.5625,56.8906 L4688.5625,58.0156 C4688.5625,60.5938 4690.6719,62.4844 4693.5625,62.4844 C4694.7813,62.4844 4695.9375,62.1875 4696.6875,61.6406 C4697.2656,61.2344 4697.5938,60.7813 4697.5938,60.3906 C4697.5938,59.9375 4697.2031,59.5469 4696.7344,59.5469 C4696.5156,59.5469 4696.3125,59.625 4696.125,59.8125 C4695.6719,60.2969 4695.6719,60.2969 4695.4844,60.3906 C4695.0625,60.6563 4694.375,60.7813 4693.6094,60.7813 C4691.5625,60.7813 4690.2656,59.6875 4690.2656,57.9844 L4690.2656,56.8906 C4690.2656,55.1094 4691.5156,53.7969 4693.25,53.7969 C4693.8281,53.7969 4694.4375,53.9531 4694.9063,54.2031 C4695.3906,54.4844 4695.5625,54.7031 4695.6563,55.1094 C4695.7188,55.5156 4695.75,55.6406 4695.8906,55.7656 C4696.0313,55.9063 4696.2656,56.0156 4696.4844,56.0156 C4696.75,56.0156 4697.0156,55.875 4697.1875,55.6563 C4697.2969,55.5 4697.3281,55.3125 4697.3281,54.8906 L4697.3281,53.4688 C4697.3281,53.0313 4697.3125,52.9063 4697.2188,52.75 C4697.0625,52.4844 4696.7813,52.3438 4696.4844,52.3438 C4696.1875,52.3438 4695.9844,52.4375 4695.7656,52.75 L4695.5938,52.6719 Z " fill="#000000"/><text fill="#000000" font-family="sans-serif" font-size="12" lengthAdjust="spacing" textLength="91" x="4713.75" y="61.1543">FactoryTexture</text><line style="stroke:#A80036;stroke-width:1.5;" x1="4630" x2="4856" y1="73" y2="73"/><text fill="#000000" font-family="sans-serif" font-size="11" lengthAdjust="spacing" textLength="163" x="4635" y="87.2104">private Texture mapTexture</text><text fill="#000000" font-family="sans-serif" font-size="11" lengthAdjust="spacing" textLength="174" x="4635" y="100.0151">private Texture playerTexture</text><text fill="#000000" font-family="sans-serif" font-size="11" lengthAdjust="spacing" textLength="160" x="4635" y="112.8198">private Texture wallTexture</text><text fill="#000000" font-family="sans-serif" font-size="11" lengthAdjust="spacing" textLength="192" x="4635" y="125.6245">private Texture monsterTexture1</text><text fill="#000000" font-family="sans-serif" font-size="11" lengthAdjust="spacing" textLength="192" x="4635" y="138.4292">private Texture monsterTexture2</text><text fill="#000000" font-family="sans-serif" font-size="11" lengthAdjust="spacing" textLength="216" x="4635" y="151.2339">private static TextureFactory instance</text><line style="stroke:#A80036;stroke-width:1.5;" x1="4630" x2="4856" y1="157.8281" y2="157.8281"/><!--MD5=[ebbadf164b8736cdfc4e16f5617d90d9]
class SoundFactory--><rect codeLine="234" fill="#FEFECE" filter="url(#f1qrad3lvvozsd)" height="73.6094" id="SoundFactory" style="stroke:#A80036;stroke-width:1.5;" width="219" x="4356.5" y="66.5"/><ellipse cx="4420.25" cy="82.5" fill="#ADD1B2" rx="11" ry="11" style="stroke:#A80036;stroke-width:1.0;"/><path d="M4422.5938,78.1719 C4421.6563,77.7344 4421.0625,77.5938 4420.1875,77.5938 C4417.5625,77.5938 4415.5625,79.6719 4415.5625,82.3906 L4415.5625,83.5156 C4415.5625,86.0938 4417.6719,87.9844 4420.5625,87.9844 C4421.7813,87.9844 4422.9375,87.6875 4423.6875,87.1406 C4424.2656,86.7344 4424.5938,86.2813 4424.5938,85.8906 C4424.5938,85.4375 4424.2031,85.0469 4423.7344,85.0469 C4423.5156,85.0469 4423.3125,85.125 4423.125,85.3125 C4422.6719,85.7969 4422.6719,85.7969 4422.4844,85.8906 C4422.0625,86.1563 4421.375,86.2813 4420.6094,86.2813 C4418.5625,86.2813 4417.2656,85.1875 4417.2656,83.4844 L4417.2656,82.3906 C4417.2656,80.6094 4418.5156,79.2969 4420.25,79.2969 C4420.8281,79.2969 4421.4375,79.4531 4421.9063,79.7031 C4422.3906,79.9844 4422.5625,80.2031 4422.6563,80.6094 C4422.7188,81.0156 4422.75,81.1406 4422.8906,81.2656 C4423.0313,81.4063 4423.2656,81.5156 4423.4844,81.5156 C4423.75,81.5156 4424.0156,81.375 4424.1875,81.1563 C4424.2969,81 4424.3281,80.8125 4424.3281,80.3906 L4424.3281,78.9688 C4424.3281,78.5313 4424.3125,78.4063 4424.2188,78.25 C4424.0625,77.9844 4423.7813,77.8438 4423.4844,77.8438 C4423.1875,77.8438 4422.9844,77.9375 4422.7656,78.25 L4422.5938,78.1719 Z " fill="#000000"/><text fill="#000000" font-family="sans-serif" font-size="12" lengthAdjust="spacing" textLength="83" x="4440.75" y="86.6543">SoundFactory</text><line style="stroke:#A80036;stroke-width:1.5;" x1="4357.5" x2="4574.5" y1="98.5" y2="98.5"/><text fill="#000000" font-family="sans-serif" font-size="11" lengthAdjust="spacing" textLength="175" x="4362.5" y="112.7104">private Music backgroundMusic</text><text fill="#000000" font-family="sans-serif" font-size="11" lengthAdjust="spacing" textLength="207" x="4362.5" y="125.5151">private static SoundFactory instance</text><line style="stroke:#A80036;stroke-width:1.5;" x1="4357.5" x2="4574.5" y1="132.1094" y2="132.1094"/><!--MD5=[4f690aa9c8cbc9d2fcd8ae473aedfe2c]
class Constante--><rect codeLine="240" fill="#FEFECE" filter="url(#f1qrad3lvvozsd)" height="112.0234" id="Constante" style="stroke:#A80036;stroke-width:1.5;" width="335" x="3986.5" y="47.5"/><ellipse cx="4119.75" cy="63.5" fill="#ADD1B2" rx="11" ry="11" style="stroke:#A80036;stroke-width:1.0;"/><path d="M4122.0938,59.1719 C4121.1563,58.7344 4120.5625,58.5938 4119.6875,58.5938 C4117.0625,58.5938 4115.0625,60.6719 4115.0625,63.3906 L4115.0625,64.5156 C4115.0625,67.0938 4117.1719,68.9844 4120.0625,68.9844 C4121.2813,68.9844 4122.4375,68.6875 4123.1875,68.1406 C4123.7656,67.7344 4124.0938,67.2813 4124.0938,66.8906 C4124.0938,66.4375 4123.7031,66.0469 4123.2344,66.0469 C4123.0156,66.0469 4122.8125,66.125 4122.625,66.3125 C4122.1719,66.7969 4122.1719,66.7969 4121.9844,66.8906 C4121.5625,67.1563 4120.875,67.2813 4120.1094,67.2813 C4118.0625,67.2813 4116.7656,66.1875 4116.7656,64.4844 L4116.7656,63.3906 C4116.7656,61.6094 4118.0156,60.2969 4119.75,60.2969 C4120.3281,60.2969 4120.9375,60.4531 4121.4063,60.7031 C4121.8906,60.9844 4122.0625,61.2031 4122.1563,61.6094 C4122.2188,62.0156 4122.25,62.1406 4122.3906,62.2656 C4122.5313,62.4063 4122.7656,62.5156 4122.9844,62.5156 C4123.25,62.5156 4123.5156,62.375 4123.6875,62.1563 C4123.7969,62 4123.8281,61.8125 4123.8281,61.3906 L4123.8281,59.9688 C4123.8281,59.5313 4123.8125,59.4063 4123.7188,59.25 C4123.5625,58.9844 4123.2813,58.8438 4122.9844,58.8438 C4122.6875,58.8438 4122.4844,58.9375 4122.2656,59.25 L4122.0938,59.1719 Z " fill="#000000"/><text fill="#000000" font-family="sans-serif" font-size="12" lengthAdjust="spacing" textLength="60" x="4140.25" y="67.6543">Constante</text><line style="stroke:#A80036;stroke-width:1.5;" x1="3987.5" x2="4320.5" y1="79.5" y2="79.5"/><text fill="#000000" font-family="sans-serif" font-size="11" lengthAdjust="spacing" textLength="292" x="3992.5" y="93.7104">public static final short CATEGORY_WALL = 0x0001;</text><text fill="#000000" font-family="sans-serif" font-size="11" lengthAdjust="spacing" textLength="302" x="3992.5" y="106.5151">public static final short CATEGORY_PLAYER = 0x0002;</text><text fill="#000000" font-family="sans-serif" font-size="11" lengthAdjust="spacing" textLength="323" x="3992.5" y="119.3198">public static final short CATEGORY_MONSTER1 = 0x0004;</text><text fill="#000000" font-family="sans-serif" font-size="11" lengthAdjust="spacing" textLength="323" x="3992.5" y="132.1245">public static final short CATEGORY_MONSTER2 = 0x0008;</text><text fill="#000000" font-family="sans-serif" font-size="11" lengthAdjust="spacing" textLength="310" x="3992.5" y="144.9292">public static final short CATEGORY_POTION = 0x00016;</text><line style="stroke:#A80036;stroke-width:1.5;" x1="3987.5" x2="4320.5" y1="151.5234" y2="151.5234"/><!--MD5=[877124a1642becb84b65628d35815720]
class ScreenAdapter--><rect codeLine="254" fill="#FEFECE" filter="url(#f1qrad3lvvozsd)" height="48" id="ScreenAdapter" style="stroke:#A80036;stroke-width:1.5;" width="123" x="3831.5" y="965"/><ellipse cx="3846.5" cy="981" fill="#ADD1B2" rx="11" ry="11" style="stroke:#A80036;stroke-width:1.0;"/><path d="M3848.8438,976.6719 C3847.9063,976.2344 3847.3125,976.0938 3846.4375,976.0938 C3843.8125,976.0938 3841.8125,978.1719 3841.8125,980.8906 L3841.8125,982.0156 C3841.8125,984.5938 3843.9219,986.4844 3846.8125,986.4844 C3848.0313,986.4844 3849.1875,986.1875 3849.9375,985.6406 C3850.5156,985.2344 3850.8438,984.7813 3850.8438,984.3906 C3850.8438,983.9375 3850.4531,983.5469 3849.9844,983.5469 C3849.7656,983.5469 3849.5625,983.625 3849.375,983.8125 C3848.9219,984.2969 3848.9219,984.2969 3848.7344,984.3906 C3848.3125,984.6563 3847.625,984.7813 3846.8594,984.7813 C3844.8125,984.7813 3843.5156,983.6875 3843.5156,981.9844 L3843.5156,980.8906 C3843.5156,979.1094 3844.7656,977.7969 3846.5,977.7969 C3847.0781,977.7969 3847.6875,977.9531 3848.1563,978.2031 C3848.6406,978.4844 3848.8125,978.7031 3848.9063,979.1094 C3848.9688,979.5156 3849,979.6406 3849.1406,979.7656 C3849.2813,979.9063 3849.5156,980.0156 3849.7344,980.0156 C3850,980.0156 3850.2656,979.875 3850.4375,979.6563 C3850.5469,979.5 3850.5781,979.3125 3850.5781,978.8906 L3850.5781,977.4688 C3850.5781,977.0313 3850.5625,976.9063 3850.4688,976.75 C3850.3125,976.4844 3850.0313,976.3438 3849.7344,976.3438 C3849.4375,976.3438 3849.2344,976.4375 3849.0156,976.75 L3848.8438,976.6719 Z " fill="#000000"/><text fill="#000000" font-family="sans-serif" font-size="12" lengthAdjust="spacing" textLength="91" x="3860.5" y="985.1543">ScreenAdapter</text><line style="stroke:#A80036;stroke-width:1.5;" x1="3832.5" x2="3953.5" y1="997" y2="997"/><line style="stroke:#A80036;stroke-width:1.5;" x1="3832.5" x2="3953.5" y1="1005" y2="1005"/><!--MD5=[b6dcce5e5ef3c84b0b048d11301373dd]
class Game--><rect codeLine="255" fill="#FEFECE" filter="url(#f1qrad3lvvozsd)" height="48" id="Game" style="stroke:#A80036;stroke-width:1.5;" width="67" x="3989.5" y="965"/><ellipse cx="4004.5" cy="981" fill="#ADD1B2" rx="11" ry="11" style="stroke:#A80036;stroke-width:1.0;"/><path d="M4006.8438,976.6719 C4005.9063,976.2344 4005.3125,976.0938 4004.4375,976.0938 C4001.8125,976.0938 3999.8125,978.1719 3999.8125,980.8906 L3999.8125,982.0156 C3999.8125,984.5938 4001.9219,986.4844 4004.8125,986.4844 C4006.0313,986.4844 4007.1875,986.1875 4007.9375,985.6406 C4008.5156,985.2344 4008.8438,984.7813 4008.8438,984.3906 C4008.8438,983.9375 4008.4531,983.5469 4007.9844,983.5469 C4007.7656,983.5469 4007.5625,983.625 4007.375,983.8125 C4006.9219,984.2969 4006.9219,984.2969 4006.7344,984.3906 C4006.3125,984.6563 4005.625,984.7813 4004.8594,984.7813 C4002.8125,984.7813 4001.5156,983.6875 4001.5156,981.9844 L4001.5156,980.8906 C4001.5156,979.1094 4002.7656,977.7969 4004.5,977.7969 C4005.0781,977.7969 4005.6875,977.9531 4006.1563,978.2031 C4006.6406,978.4844 4006.8125,978.7031 4006.9063,979.1094 C4006.9688,979.5156 4007,979.6406 4007.1406,979.7656 C4007.2813,979.9063 4007.5156,980.0156 4007.7344,980.0156 C4008,980.0156 4008.2656,979.875 4008.4375,979.6563 C4008.5469,979.5 4008.5781,979.3125 4008.5781,978.8906 L4008.5781,977.4688 C4008.5781,977.0313 4008.5625,976.9063 4008.4688,976.75 C4008.3125,976.4844 4008.0313,976.3438 4007.7344,976.3438 C4007.4375,976.3438 4007.2344,976.4375 4007.0156,976.75 L4006.8438,976.6719 Z " fill="#000000"/><text fill="#000000" font-family="sans-serif" font-size="12" lengthAdjust="spacing" textLength="35" x="4018.5" y="985.1543">Game</text><line style="stroke:#A80036;stroke-width:1.5;" x1="3990.5" x2="4055.5" y1="997" y2="997"/><line style="stroke:#A80036;stroke-width:1.5;" x1="3990.5" x2="4055.5" y1="1005" y2="1005"/><!--MD5=[1c44201a84307e68bbc50e05181386cc]
class g--><rect codeLine="162" fill="#FEFECE" filter="url(#f1qrad3lvvozsd)" height="99.2188" id="g" style="stroke:#A80036;stroke-width:1.5;" width="193" x="3758.5" y="54"/><ellipse cx="3833.25" cy="70" fill="#ADD1B2" rx="11" ry="11" style="stroke:#A80036;stroke-width:1.0;"/><path d="M3835.5938,65.6719 C3834.6563,65.2344 3834.0625,65.0938 3833.1875,65.0938 C3830.5625,65.0938 3828.5625,67.1719 3828.5625,69.8906 L3828.5625,71.0156 C3828.5625,73.5938 3830.6719,75.4844 3833.5625,75.4844 C3834.7813,75.4844 3835.9375,75.1875 3836.6875,74.6406 C3837.2656,74.2344 3837.5938,73.7813 3837.5938,73.3906 C3837.5938,72.9375 3837.2031,72.5469 3836.7344,72.5469 C3836.5156,72.5469 3836.3125,72.625 3836.125,72.8125 C3835.6719,73.2969 3835.6719,73.2969 3835.4844,73.3906 C3835.0625,73.6563 3834.375,73.7813 3833.6094,73.7813 C3831.5625,73.7813 3830.2656,72.6875 3830.2656,70.9844 L3830.2656,69.8906 C3830.2656,68.1094 3831.5156,66.7969 3833.25,66.7969 C3833.8281,66.7969 3834.4375,66.9531 3834.9063,67.2031 C3835.3906,67.4844 3835.5625,67.7031 3835.6563,68.1094 C3835.7188,68.5156 3835.75,68.6406 3835.8906,68.7656 C3836.0313,68.9063 3836.2656,69.0156 3836.4844,69.0156 C3836.75,69.0156 3837.0156,68.875 3837.1875,68.6563 C3837.2969,68.5 3837.3281,68.3125 3837.3281,67.8906 L3837.3281,66.4688 C3837.3281,66.0313 3837.3125,65.9063 3837.2188,65.75 C3837.0625,65.4844 3836.7813,65.3438 3836.4844,65.3438 C3836.1875,65.3438 3835.9844,65.4375 3835.7656,65.75 L3835.5938,65.6719 Z " fill="#000000"/><text fill="#000000" font-family="sans-serif" font-size="12" lengthAdjust="spacing" textLength="35" x="3853.75" y="74.1543">Game</text><line style="stroke:#A80036;stroke-width:1.5;" x1="3759.5" x2="3950.5" y1="86" y2="86"/><line style="stroke:#A80036;stroke-width:1.5;" x1="3759.5" x2="3950.5" y1="94" y2="94"/><text fill="#000000" font-family="sans-serif" font-size="11" lengthAdjust="spacing" textLength="73" x="3764.5" y="108.2104">void create()</text><text fill="#000000" font-family="sans-serif" font-size="11" lengthAdjust="spacing" textLength="74" x="3764.5" y="121.0151">void render()</text><text fill="#000000" font-family="sans-serif" font-size="11" lengthAdjust="spacing" textLength="181" x="3764.5" y="133.8198">void resize(int width, int height)</text><text fill="#000000" font-family="sans-serif" font-size="11" lengthAdjust="spacing" textLength="80" x="3764.5" y="146.6245">void dispose()</text><!--MD5=[7f216751cffc336d44dffe79673c0129]
link WallLimit to w--><path codeLine="258" d="M2635,378.576 C2635,427.315 2635,526.177 2635,597.193 " fill="none" id="WallLimit-to-w" style="stroke:#A80036;stroke-width:1.0;"/><polygon fill="none" points="2642,597.334,2635,617.334,2628,597.334,2642,597.334" style="stroke:#A80036;stroke-width:1.0;"/><!--MD5=[33097679340d26baf0334913e3d5b85d]
link WallObstacle to w--><path codeLine="259" d="M2942.71,378.576 C2891.39,428.675 2785.84,531.732 2712.77,603.07 " fill="none" id="WallObstacle-to-w" style="stroke:#A80036;stroke-width:1.0;"/><polygon fill="none" points="2717.36,608.371,2698.16,617.334,2707.58,598.354,2717.36,608.371" style="stroke:#A80036;stroke-width:1.0;"/><!--MD5=[3bba302c9d928eb0ad7173beeeb15b1f]
link Monster1 to m--><path codeLine="260" d="M597.498,404.235 C597.001,458.927 596.236,543.067 595.683,603.829 " fill="none" id="Monster1-to-m" style="stroke:#A80036;stroke-width:1.0;"/><polygon fill="none" points="602.683,603.925,595.501,623.861,588.683,603.798,602.683,603.925" style="stroke:#A80036;stroke-width:1.0;"/><!--MD5=[045b0424dbba6b54bb1d4bd07da5ed91]
link Monster2 to m--><path codeLine="261" d="M259.071,378.576 C316.95,430.337 438.038,538.628 517.914,610.061 " fill="none" id="Monster2-to-m" style="stroke:#A80036;stroke-width:1.0;"/><polygon fill="none" points="523.067,605.278,533.308,623.829,513.734,615.714,523.067,605.278" style="stroke:#A80036;stroke-width:1.0;"/><!--MD5=[499cf067e3078196c729110ce86d1f68]
link l to AStar--><path codeLine="262" d="M2111.75,455.015 C2116.6,460.734 2121.37,466.422 2126,472 C2163.72,517.492 2204.73,569.928 2236.06,610.643 " fill="none" id="l-AStar" style="stroke:#A80036;stroke-width:1.0;"/><text fill="#000000" font-family="sans-serif" font-size="13" lengthAdjust="spacing" textLength="8" x="2222.2912" y="599.8098">1</text><!--MD5=[5d0f996902ab3d47e0e2b7fb64191c67]
link l to ce--><path codeLine="263" d="M1894.91,380.975 C1847.36,399.659 1797.22,428.44 1767,472 C1665.94,617.669 1836.33,728.653 1728,869 C1680.93,929.978 1599.31,959.716 1530.03,974.216 " fill="none" id="l-ce" style="stroke:#A80036;stroke-width:1.0;"/><text fill="#000000" font-family="sans-serif" font-size="13" lengthAdjust="spacing" textLength="8" x="1537.8318" y="969.9402">1</text><!--MD5=[f8dd096886f6a3762578ee5e03f9dfdd]
link CellTreasure to ce--><path codeLine="264" d="M1257.57,736.24 C1284.82,782.459 1324.16,849.183 1355.49,902.328 " fill="none" id="CellTreasure-to-ce" style="stroke:#A80036;stroke-width:1.0;"/><polygon fill="none" points="1361.65,898.998,1365.78,919.782,1349.59,906.108,1361.65,898.998" style="stroke:#A80036;stroke-width:1.0;"/><!--MD5=[cfb4035d3e0ca15f833748a041b1a227]
link l to CellTrap--><path codeLine="265" d="M1894.86,381.815 C1836.37,401.497 1767.86,430.846 1715,472 C1656.78,517.33 1610.31,590.564 1584.73,636.677 " fill="none" id="l-CellTrap" style="stroke:#A80036;stroke-width:1.0;"/><text fill="#000000" font-family="sans-serif" font-size="13" lengthAdjust="spacing" textLength="7" x="1580.5215" y="625.9401">*</text><!--MD5=[06671228e53804cdb665ae98d238d954]
link gs to ScreenAdapter--><path codeLine="266" d="M3862.64,742.757 C3870.06,802.661 3881.12,892.011 3887.64,944.707 " fill="none" id="gs-to-ScreenAdapter" style="stroke:#A80036;stroke-width:1.0;"/><polygon fill="none" points="3894.63,944.145,3890.14,964.854,3880.73,945.865,3894.63,944.145" style="stroke:#A80036;stroke-width:1.0;"/><!--MD5=[1dd917cd8d771d789d672d998e61bc56]
link g to gs--><path codeLine="267" d="M3855,153.482 C3855,257.951 3855,502.454 3855,617.322 " fill="none" id="g-gs" style="stroke:#A80036;stroke-width:1.0;"/><text fill="#000000" font-family="sans-serif" font-size="13" lengthAdjust="spacing" textLength="8" x="3846.5375" y="606.2922">1</text><!--MD5=[701e08a0931028500cde217463eceb3a]
link l to gs--><path codeLine="268" d="M2141.27,385.316 C2232.08,410.198 2359.07,441.119 2473,455 C2507.44,459.197 3691.66,455.163 3722,472 C3777.84,502.989 3813.82,568.378 3834.09,617.421 " fill="none" id="l-gs" style="stroke:#A80036;stroke-width:1.0;"/><text fill="#000000" font-family="sans-serif" font-size="13" lengthAdjust="spacing" textLength="8" x="2149.0255" y="384.1898">1</text><!--MD5=[979796c559b7d3019a4281ad07339a6c]
link l to w--><path codeLine="269" d="M2141.11,365.364 C2231.63,381.685 2354.79,413.148 2449,472 C2508.62,509.245 2560.55,571.02 2594.28,617.411 " fill="none" id="l-w" style="stroke:#A80036;stroke-width:1.0;"/><text fill="#000000" font-family="sans-serif" font-size="13" lengthAdjust="spacing" textLength="7" x="2582.1671" y="606.3915">*</text><!--MD5=[e8d6be7f373513b2faccc6358d12b366]
link l to p--><path codeLine="270" d="M1894.97,352.158 C1667.55,360.011 1192.03,386.45 1054,472 C997.28,507.155 958.759,575.273 937.129,623.761 " fill="none" id="l-p" style="stroke:#A80036;stroke-width:1.0;"/><text fill="#000000" font-family="sans-serif" font-size="13" lengthAdjust="spacing" textLength="8" x="931.2166" y="613.0664">1</text><!--MD5=[dd8c20f5519ea3770b30bc787350ac39]
link p to e--><path codeLine="271" d="M887.03,736.24 C862.844,782.359 827.952,848.893 800.111,901.982 " fill="none" id="p-to-e" style="stroke:#A80036;stroke-width:1.0;"/><polygon fill="none" points="806.264,905.321,790.776,919.782,793.865,898.819,806.264,905.321" style="stroke:#A80036;stroke-width:1.0;"/><!--MD5=[2b6ff9488f941b0674d538207cf971fa]
link m to e--><path codeLine="272" d="M623.79,736.24 C647.825,782.359 682.501,848.893 710.17,901.982 " fill="none" id="m-to-e" style="stroke:#A80036;stroke-width:1.0;"/><polygon fill="none" points="716.411,898.811,719.447,919.782,703.996,905.281,716.411,898.811" style="stroke:#A80036;stroke-width:1.0;"/><!--MD5=[00d532bbcb26f823d133068dced2afca]
link l to m--><path codeLine="273" d="M1894.89,349.274 C1618.64,351.759 958.468,368.672 765,472 C701.419,505.957 652.51,574.679 623.814,623.619 " fill="none" id="l-m" style="stroke:#A80036;stroke-width:1.0;"/><text fill="#000000" font-family="sans-serif" font-size="13" lengthAdjust="spacing" textLength="7" x="619.8991" y="612.9071">*</text><!--MD5=[9aaf6c87ae604cb2f1db2c8fe79244db]
link g to l--><path codeLine="274" d="M3758.28,107.91 C3486.54,117.995 2719.98,149.986 2473,198 C2357.95,220.366 2231.61,263.295 2141.31,297.351 " fill="none" id="g-l" style="stroke:#A80036;stroke-width:1.0;stroke-dasharray:7.0,7.0;"/><text fill="#000000" font-family="sans-serif" font-size="13" lengthAdjust="spacing" textLength="8" x="2149.068" y="290.8644">1</text><!--MD5=[e4ae1d78223a87d74e799979014d002a]
link gs to kb--><path codeLine="275" d="M3818.52,742.827 C3794.02,781.486 3759.46,830.978 3722,869 C3704.3,886.971 3683.66,904.246 3663.13,919.796 " fill="none" id="gs-kb" style="stroke:#A80036;stroke-width:1.0;"/><text fill="#000000" font-family="sans-serif" font-size="13" lengthAdjust="spacing" textLength="8" x="3665.4559" y="908.9786">1</text><!--MD5=[dee5e965d540261af34878738c571cd9]
link g to Game--><path codeLine="276" d="M3877.17,153.199 C3907.57,222.426 3961.22,354.007 3986,472 C4022.17,644.207 4024.65,855.054 4023.82,944.535 " fill="none" id="g-to-Game" style="stroke:#A80036;stroke-width:1.0;"/><polygon fill="none" points="4030.81,944.899,4023.55,964.805,4016.82,944.714,4030.81,944.899" style="stroke:#A80036;stroke-width:1.0;"/><!--MD5=[20b1412d73c4c446a71bcd181590bf03]
link FactoryTexture to FactoryTexture--><path codeLine="277" d="M4857.01,60.35 C4877.59,65.88 4892,80.27 4892,103.5 C4892,126.732 4877.59,141.117 4857.01,146.652 " fill="none" id="FactoryTexture-FactoryTexture" style="stroke:#A80036;stroke-width:1.0;"/><text fill="#000000" font-family="sans-serif" font-size="13" lengthAdjust="spacing" textLength="8" x="4864.9388" y="146.1245">1</text><!--MD5=[ebc9536d056e7bade3b051e1dbbe9623]
link SoundFactory to SoundFactory--><path codeLine="278" d="M4515.23,66.35 C4561,47.39 4610.5,59.78 4610.5,103.5 C4610.5,147.225 4561,159.608 4515.23,140.649 " fill="none" id="SoundFactory-SoundFactory" style="stroke:#A80036;stroke-width:1.0;"/><text fill="#000000" font-family="sans-serif" font-size="13" lengthAdjust="spacing" textLength="8" x="4514.7212" y="160.1542">1</text><!--MD5=[60935045e711edd7cda41ec461095486]
@startuml
package "model"{ 
abstract class "Entity" as e{
	int posX
    int posY
  	int hp
    int attackPoints
   	int size 
    Body body 
    void applyForce(Vector2 vector)

}

class "Player" as p{

	Player(World world, int x, int y, int size )
}
package "monster"{
abstract class "Monster" as m{

    private int[] goal
    protected PolygonShape shape
    private boolean finishedMoving ;
  	Monster(World world, int x, int y, int hp, int size, int ratio)
   	public boolean isMonster1()
}
class "Monster1"{

    private int[] goal
    protected PolygonShape shape
    private boolean finishedMoving = true;
  	Monster(World world, int x, int y, int hp, int size, int ratio)
    public boolean isMonster1()
}

class "Monster2"{
  Monster2(World world, int x, int y, int hp, int size, int ratio)
  
  
}
}
  
package "pathfinding"{
  class "AStar"{
    private int [][] map
    AStar(int[][] map)
    public int[] getNextMove(int[] start, int[] target)
    public int getPathLength(int[] start, int[] target)
    private Node nextStep(Node target)
    private Node aStar(Node start, Node target)
    private ArrayList<Node> getSuccessors(Node n)
    
  }
  
  class "Node"{
    private Node parent
    private int totalPathWeight
    private int weightToGetHere
    private int heuristic
    private int x
    private int y
    public Node(int heuristic, int x, int y)
    public Node getParent()
    public void setParent(Node parent)
    public int getTotalPathWeight()
    public void setTotalPathWeight(int totalPathWeight)
    public int getWeightToGetHere()
    public void setWeightToGetHere(int weightToGetHere)
    public int calculateAndSetHeuristic(Node target)
    public void setHeuristic(int heuristic)
    public int setX()
    public int getX()
    public int setY()
    public int getY()
    public int compareTo(Node n)
    public boolean equals(Object o)
    public String toString()
  }
  
}
  
 class "Labyrinth" as l{
    private int sizeX
    private int sizeY
    private int[][] map
   	private AtomicBoolean playerAttack
    private World world
	public Labyrinth(int sizeX, int sizeY)
    public void mazeRecursion(int x, int y)
    private void actionMonsters()
    private void randomDirection()
    public void draw(SpriteBatch spriteBatch)
    public void attack()
    public void movePlayer(Vector2 vector2)
    public void moveMonsters()
}
package "wall"{
  abstract class "Wall" as w {
       private int posX
       private int posY
       private int size
       protected Body body
       protected PolygonShape shape
      Wall(World world, int posX, int posY, int size) 
  }
  
  class "WallObstacle" {
    WallObstacle(World world, int posX, int posY, int size) 
  }
  
   class "WallLimit" {
    WallLimit(World world, int posX, int posY, int size) 
  }
  
 
}

class "Potion" as p {
  
    private int size
    private Body body
    private Boolean active
 	 Potion(World world, int posX, int posY) 
  
}
  
package "cellEffect" {
 	
  class "CellEnd" as ce {
     private Body body
     private int size 
     CellNext(World world, int x, int y, int size)
     public float getBodyPositionX()
     public float getBodyPositionY()
     public int getSize()
     public boolean isTreasureCell()
  }
   
    
  class "CellTrap" {
   	private Body body;
    CellTrap(World world, int x, int y, int size, int ratio)
    public void getEffect(Player player) 

    
  }
  
  class "CellTreasure" {
	private boolean treasure
    public CellTreasure(World world, int x, int y, int size)
    public boolean isTreasure()
    public void setTreasure(boolean treasure)
    public boolean isTreasureCell()
  }
 
}

}




class "Game" as g{
  void create()
  void render()
  void resize(int width, int height)
  void dispose()
}




package view {

class "GameScreen" as gs {
  private OrthographicCamera camera 
  private SpriteBatch spriteBatch
  GameScreen(Labyrinthe labyrinth) 
  public void render(float delta) 
  public void resize(int width, int height) 
  public void dispose() 
  
}
  
class "GameOverScreen" as gos {
  private SpriteBatch spriteBatch
  private OrthographicCamera camera
  public GameOverScreen()
  public void render(float delta)
  public void resize(int width, int height)
  public void dispose()
}
  
class "WinScreen" as ws {
  private SpriteBatch spriteBatch
  private OrthographicCamera camera
  public GameOverScreen()
  public void render(float delta)
  public void resize(int width, int height)
  public void dispose()
}
  
}


package controller{

class "Keyboard" as kb {
  private Vector2 acc 
  private int coeff
  private Boolean debug 
  
  public Keyboard(Labyrinth labyrinthe)
  public boolean KeyDown(int keyCode)
  public boolean KeyUp(int keycode) 
  public boolean touchDown(int screenX, int screenY, int pointer, int button)
  
  
}

}

package factory{

class FactoryTexture{
	private Texture mapTexture
    private Texture playerTexture
    private Texture wallTexture
    private Texture monsterTexture1
  	private Texture monsterTexture2
  	private static TextureFactory instance
  	
  
}
class SoundFactory{
  private Music backgroundMusic
  private static SoundFactory instance
  
}
  
class Constante{
    public static final short CATEGORY_WALL = 0x0001;
    public static final short CATEGORY_PLAYER = 0x0002;
    public static final short CATEGORY_MONSTER1 = 0x0004;
    public static final short CATEGORY_MONSTER2 = 0x0008;
    public static final short CATEGORY_POTION = 0x00016;
  
}

}



package libgdx{
  class ScreenAdapter{}
  class Game{}
  
}
WallLimit - -|> w
WallObstacle - -|> w
Monster1 - -|> m
Monster2 - -|> m
l - -"1" AStar
l - -"1" ce
CellTreasure - -|> ce
l - -"*" CellTrap
gs - -|> ScreenAdapter
g - -"1" gs 
l "1"- - gs 
l - -"*" w
l - -"1" p
p - -|> e
m - -|> e
l - -"*" m
g .."1" l
gs - -"1" kb
g - -|> Game
FactoryTexture - -"1" FactoryTexture 
SoundFactory - -"1" SoundFactory
@enduml

PlantUML version 1.2021.15beta6(Unknown compile time)
(GPL source distribution)
Java Runtime: Java(TM) SE Runtime Environment
JVM: Java HotSpot(TM) 64-Bit Server VM
Default Encoding: UTF-8
Language: en
Country: US
--></g></svg>