<?xml version="1.0" encoding="UTF-8" standalone="no"?><svg xmlns="http://www.w3.org/2000/svg" xmlns:xlink="http://www.w3.org/1999/xlink" contentScriptType="application/ecmascript" contentStyleType="text/css" height="1117px" preserveAspectRatio="none" style="width:4907px;height:1117px;background:#FFFFFF;" version="1.1" viewBox="0 0 4907 1117" width="4907px" zoomAndPan="magnify"><defs><filter height="300%" id="f1w0tcveabvgb5" width="300%" x="-1" y="-1"><feGaussianBlur result="blurOut" stdDeviation="2.0"/><feColorMatrix in="blurOut" result="blurOut2" type="matrix" values="0 0 0 0 0 0 0 0 0 0 0 0 0 0 0 0 0 0 .4 0"/><feOffset dx="4.0" dy="4.0" in="blurOut2" result="blurOut3"/><feBlend in="SourceGraphic" in2="blurOut3" mode="normal"/></filter></defs><g><!--MD5=[5d4cd377749310b66bf14896f5cd8d9b]
cluster model--><polygon fill="#FFFFFF" filter="url(#f1w0tcveabvgb5)" points="16,206,71,206,78,228.2969,3169,228.2969,3169,1110,16,1110,16,206" style="stroke:#000000;stroke-width:1.5;"/><line style="stroke:#000000;stroke-width:1.5;" x1="16" x2="78" y1="228.2969" y2="228.2969"/><text fill="#000000" font-family="sans-serif" font-size="14" font-weight="bold" lengthAdjust="spacing" textLength="49" x="20" y="220.9951">model</text><!--MD5=[08ef9281f9faa26b7455822c0f59c064]
cluster monster--><polygon fill="#FFFFFF" filter="url(#f1w0tcveabvgb5)" points="40,249,114,249,121,271.2969,1489,271.2969,1489,866.5,40,866.5,40,249" style="stroke:#000000;stroke-width:1.5;"/><line style="stroke:#000000;stroke-width:1.5;" x1="40" x2="121" y1="271.2969" y2="271.2969"/><text fill="#000000" font-family="sans-serif" font-size="14" font-weight="bold" lengthAdjust="spacing" textLength="68" x="44" y="263.9951">monster</text><!--MD5=[606c166253d3f3c4d8f01fd78e8182e9]
cluster pathfinding--><polygon fill="#FFFFFF" filter="url(#f1w0tcveabvgb5)" points="783,292,884,292,891,314.2969,1465,314.2969,1465,673,783,673,783,292" style="stroke:#000000;stroke-width:1.5;"/><line style="stroke:#000000;stroke-width:1.5;" x1="783" x2="891" y1="314.2969" y2="314.2969"/><text fill="#000000" font-family="sans-serif" font-size="14" font-weight="bold" lengthAdjust="spacing" textLength="95" x="787" y="306.9951">pathfinding</text><!--MD5=[bd3e63b53fe29677d33415e0b75cb5a8]
cluster wall--><polygon fill="#FFFFFF" filter="url(#f1w0tcveabvgb5)" points="2472,426.5,2511,426.5,2518,448.7969,3145,448.7969,3145,873,2472,873,2472,426.5" style="stroke:#000000;stroke-width:1.5;"/><line style="stroke:#000000;stroke-width:1.5;" x1="2472" x2="2518" y1="448.7969" y2="448.7969"/><text fill="#000000" font-family="sans-serif" font-size="14" font-weight="bold" lengthAdjust="spacing" textLength="33" x="2476" y="441.4951">wall</text><!--MD5=[6527a645d74431924274afc52d134787]
cluster cellEffect--><polygon fill="#FFFFFF" filter="url(#f1w0tcveabvgb5)" points="1762,703.5,1845,703.5,1852,725.7969,2435,725.7969,2435,1086,1762,1086,1762,703.5" style="stroke:#000000;stroke-width:1.5;"/><line style="stroke:#000000;stroke-width:1.5;" x1="1762" x2="1852" y1="725.7969" y2="725.7969"/><text fill="#000000" font-family="sans-serif" font-size="14" font-weight="bold" lengthAdjust="spacing" textLength="77" x="1766" y="718.4951">cellEffect</text><!--MD5=[86cbce8df1eb9d604fbbb2fa357940f8]
cluster view--><polygon fill="#FFFFFF" filter="url(#f1w0tcveabvgb5)" points="3193,697,3235,697,3242,719.2969,3985,719.2969,3985,873,3193,873,3193,697" style="stroke:#000000;stroke-width:1.5;"/><line style="stroke:#000000;stroke-width:1.5;" x1="3193" x2="3242" y1="719.2969" y2="719.2969"/><text fill="#000000" font-family="sans-serif" font-size="14" font-weight="bold" lengthAdjust="spacing" textLength="36" x="3197" y="711.9951">view</text><!--MD5=[10ea673caf457862023e152271927b45]
cluster controller--><polygon fill="#FFFFFF" filter="url(#f1w0tcveabvgb5)" points="3326,897,3412,897,3419,919.2969,3790,919.2969,3790,1086,3326,1086,3326,897" style="stroke:#000000;stroke-width:1.5;"/><line style="stroke:#000000;stroke-width:1.5;" x1="3326" x2="3419" y1="919.2969" y2="919.2969"/><text fill="#000000" font-family="sans-serif" font-size="14" font-weight="bold" lengthAdjust="spacing" textLength="80" x="3330" y="911.9951">controller</text><!--MD5=[22238981d4678d24a4b690f00fa36180]
cluster factory--><polygon fill="#FFFFFF" filter="url(#f1w0tcveabvgb5)" points="3969,6,4035,6,4042,28.2969,4890,28.2969,4890,182,3969,182,3969,6" style="stroke:#000000;stroke-width:1.5;"/><line style="stroke:#000000;stroke-width:1.5;" x1="3969" x2="4042" y1="28.2969" y2="28.2969"/><text fill="#000000" font-family="sans-serif" font-size="14" font-weight="bold" lengthAdjust="spacing" textLength="60" x="3973" y="20.9951">factory</text><!--MD5=[fc1b526ef1efe17a0b1fd0a54bd82165]
cluster libgdx--><polygon fill="#FFFFFF" filter="url(#f1w0tcveabvgb5)" points="3814,942,3869,942,3876,964.2969,4072,964.2969,4072,1041,3814,1041,3814,942" style="stroke:#000000;stroke-width:1.5;"/><line style="stroke:#000000;stroke-width:1.5;" x1="3814" x2="3876" y1="964.2969" y2="964.2969"/><text fill="#000000" font-family="sans-serif" font-size="14" font-weight="bold" lengthAdjust="spacing" textLength="49" x="3818" y="956.9951">libgdx</text><!--MD5=[5c040679990284a825a3903b11c133d5]
class e--><rect codeLine="2" fill="#FEFECE" filter="url(#f1w0tcveabvgb5)" height="137.6328" id="e" style="stroke:#A80036;stroke-width:1.5;" width="194" x="1190" y="932"/><ellipse cx="1264.75" cy="948" fill="#A9DCDF" rx="11" ry="11" style="stroke:#A80036;stroke-width:1.0;"/><path d="M1266.8281,949.8125 L1267.2188,950.7969 L1266.8281,950.7969 C1266.375,950.7969 1266.2656,950.8125 1266.1094,950.9219 C1265.8594,951.0781 1265.7031,951.3594 1265.7031,951.6563 C1265.7031,951.9219 1265.8438,952.1719 1266.0625,952.3281 C1266.2031,952.4531 1266.4063,952.5 1266.8281,952.5 L1269.1875,952.5 C1269.5469,952.5 1269.7656,952.4688 1269.9063,952.375 C1270.1563,952.2344 1270.3125,951.9375 1270.3125,951.6563 C1270.3125,951.375 1270.1719,951.125 1269.9531,950.9688 C1269.7813,950.8281 1269.625,950.7969 1269.1563,950.7969 L1265.7656,942.5938 L1262.0938,942.5938 C1261.6406,942.5938 1261.5156,942.6094 1261.3594,942.7031 C1261.1094,942.875 1260.9531,943.1563 1260.9531,943.4375 C1260.9531,943.7188 1261.0938,943.9688 1261.3125,944.1406 C1261.4844,944.25 1261.6563,944.2813 1262.0938,944.2813 L1263.1719,944.2813 L1260.5313,950.7969 C1260.1094,950.7969 1259.9531,950.8125 1259.7969,950.9219 C1259.5469,951.0781 1259.3906,951.3594 1259.3906,951.6563 C1259.3906,952.2188 1259.7656,952.5 1260.5156,952.5 L1262.7813,952.5 C1263.1406,952.5 1263.3594,952.4688 1263.4844,952.375 C1263.75,952.2344 1263.8906,951.9375 1263.8906,951.6563 C1263.8906,951.375 1263.7656,951.125 1263.5469,950.9531 C1263.375,950.8281 1263.2344,950.7969 1262.7813,950.7969 L1262.3906,950.7969 L1262.7813,949.8125 L1266.8281,949.8125 Z M1266.125,948.1094 L1263.4531,948.1094 L1264.7969,944.8438 L1266.125,948.1094 Z " fill="#000000"/><text fill="#000000" font-family="sans-serif" font-size="12" font-style="italic" lengthAdjust="spacing" textLength="36" x="1285.25" y="952.1543">Entity</text><line style="stroke:#A80036;stroke-width:1.5;" x1="1191" x2="1383" y1="964" y2="964"/><text fill="#000000" font-family="sans-serif" font-size="11" lengthAdjust="spacing" textLength="46" x="1196" y="978.2104">int posX</text><text fill="#000000" font-family="sans-serif" font-size="11" lengthAdjust="spacing" textLength="45" x="1196" y="991.0151">int posY</text><text fill="#000000" font-family="sans-serif" font-size="11" lengthAdjust="spacing" textLength="32" x="1196" y="1003.8198">int hp</text><text fill="#000000" font-family="sans-serif" font-size="11" lengthAdjust="spacing" textLength="85" x="1196" y="1016.6245">int attackPoints</text><text fill="#000000" font-family="sans-serif" font-size="11" lengthAdjust="spacing" textLength="42" x="1196" y="1029.4292">int size</text><text fill="#000000" font-family="sans-serif" font-size="11" lengthAdjust="spacing" textLength="61" x="1196" y="1042.2339">Body body</text><line style="stroke:#A80036;stroke-width:1.5;" x1="1191" x2="1383" y1="1048.8281" y2="1048.8281"/><text fill="#000000" font-family="sans-serif" font-size="11" lengthAdjust="spacing" textLength="182" x="1196" y="1063.0386">void applyForce(Vector2 vector)</text><!--MD5=[217537f29afe639f347895754667a4fd]
class p--><rect codeLine="120" fill="#FEFECE" filter="url(#f1w0tcveabvgb5)" height="112.0234" id="p" style="stroke:#A80036;stroke-width:1.5;" width="238" x="1505" y="738.5"/><ellipse cx="1601.75" cy="754.5" fill="#ADD1B2" rx="11" ry="11" style="stroke:#A80036;stroke-width:1.0;"/><path d="M1604.0938,750.1719 C1603.1563,749.7344 1602.5625,749.5938 1601.6875,749.5938 C1599.0625,749.5938 1597.0625,751.6719 1597.0625,754.3906 L1597.0625,755.5156 C1597.0625,758.0938 1599.1719,759.9844 1602.0625,759.9844 C1603.2813,759.9844 1604.4375,759.6875 1605.1875,759.1406 C1605.7656,758.7344 1606.0938,758.2813 1606.0938,757.8906 C1606.0938,757.4375 1605.7031,757.0469 1605.2344,757.0469 C1605.0156,757.0469 1604.8125,757.125 1604.625,757.3125 C1604.1719,757.7969 1604.1719,757.7969 1603.9844,757.8906 C1603.5625,758.1563 1602.875,758.2813 1602.1094,758.2813 C1600.0625,758.2813 1598.7656,757.1875 1598.7656,755.4844 L1598.7656,754.3906 C1598.7656,752.6094 1600.0156,751.2969 1601.75,751.2969 C1602.3281,751.2969 1602.9375,751.4531 1603.4063,751.7031 C1603.8906,751.9844 1604.0625,752.2031 1604.1563,752.6094 C1604.2188,753.0156 1604.25,753.1406 1604.3906,753.2656 C1604.5313,753.4063 1604.7656,753.5156 1604.9844,753.5156 C1605.25,753.5156 1605.5156,753.375 1605.6875,753.1563 C1605.7969,753 1605.8281,752.8125 1605.8281,752.3906 L1605.8281,750.9688 C1605.8281,750.5313 1605.8125,750.4063 1605.7188,750.25 C1605.5625,749.9844 1605.2813,749.8438 1604.9844,749.8438 C1604.6875,749.8438 1604.4844,749.9375 1604.2656,750.25 L1604.0938,750.1719 Z " fill="#000000"/><text fill="#000000" font-family="sans-serif" font-size="12" lengthAdjust="spacing" textLength="36" x="1622.25" y="758.6543">Player</text><line style="stroke:#A80036;stroke-width:1.5;" x1="1506" x2="1742" y1="770.5" y2="770.5"/><text fill="#000000" font-family="sans-serif" font-size="11" lengthAdjust="spacing" textLength="86" x="1511" y="784.7104">private int size</text><text fill="#000000" font-family="sans-serif" font-size="11" lengthAdjust="spacing" textLength="105" x="1511" y="797.5151">private Body body</text><text fill="#000000" font-family="sans-serif" font-size="11" lengthAdjust="spacing" textLength="130" x="1511" y="810.3198">private Boolean active</text><line style="stroke:#A80036;stroke-width:1.5;" x1="1506" x2="1742" y1="816.9141" y2="816.9141"/><text fill="#000000" font-family="sans-serif" font-size="11" lengthAdjust="spacing" textLength="226" x="1511" y="831.1245">Player(World world, int x, int y, int size )</text><text fill="#000000" font-family="sans-serif" font-size="11" lengthAdjust="spacing" textLength="213" x="1511" y="843.9292">Potion(World world, int posX, int posY)</text><!--MD5=[0f65af93373b1d3e54eea2ca19f3018b]
class l--><rect codeLine="84" fill="#FEFECE" filter="url(#f1w0tcveabvgb5)" height="214.4609" id="l" style="stroke:#A80036;stroke-width:1.5;" width="246" x="2207" y="385"/><ellipse cx="2298.75" cy="401" fill="#ADD1B2" rx="11" ry="11" style="stroke:#A80036;stroke-width:1.0;"/><path d="M2301.0938,396.6719 C2300.1563,396.2344 2299.5625,396.0938 2298.6875,396.0938 C2296.0625,396.0938 2294.0625,398.1719 2294.0625,400.8906 L2294.0625,402.0156 C2294.0625,404.5938 2296.1719,406.4844 2299.0625,406.4844 C2300.2813,406.4844 2301.4375,406.1875 2302.1875,405.6406 C2302.7656,405.2344 2303.0938,404.7813 2303.0938,404.3906 C2303.0938,403.9375 2302.7031,403.5469 2302.2344,403.5469 C2302.0156,403.5469 2301.8125,403.625 2301.625,403.8125 C2301.1719,404.2969 2301.1719,404.2969 2300.9844,404.3906 C2300.5625,404.6563 2299.875,404.7813 2299.1094,404.7813 C2297.0625,404.7813 2295.7656,403.6875 2295.7656,401.9844 L2295.7656,400.8906 C2295.7656,399.1094 2297.0156,397.7969 2298.75,397.7969 C2299.3281,397.7969 2299.9375,397.9531 2300.4063,398.2031 C2300.8906,398.4844 2301.0625,398.7031 2301.1563,399.1094 C2301.2188,399.5156 2301.25,399.6406 2301.3906,399.7656 C2301.5313,399.9063 2301.7656,400.0156 2301.9844,400.0156 C2302.25,400.0156 2302.5156,399.875 2302.6875,399.6563 C2302.7969,399.5 2302.8281,399.3125 2302.8281,398.8906 L2302.8281,397.4688 C2302.8281,397.0313 2302.8125,396.9063 2302.7188,396.75 C2302.5625,396.4844 2302.2813,396.3438 2301.9844,396.3438 C2301.6875,396.3438 2301.4844,396.4375 2301.2656,396.75 L2301.0938,396.6719 Z " fill="#000000"/><text fill="#000000" font-family="sans-serif" font-size="12" lengthAdjust="spacing" textLength="54" x="2319.25" y="405.1543">Labyrinth</text><line style="stroke:#A80036;stroke-width:1.5;" x1="2208" x2="2452" y1="417" y2="417"/><text fill="#000000" font-family="sans-serif" font-size="11" lengthAdjust="spacing" textLength="94" x="2213" y="431.2104">private int sizeX</text><text fill="#000000" font-family="sans-serif" font-size="11" lengthAdjust="spacing" textLength="93" x="2213" y="444.0151">private int sizeY</text><text fill="#000000" font-family="sans-serif" font-size="11" lengthAdjust="spacing" textLength="103" x="2213" y="456.8198">private int[][] map</text><text fill="#000000" font-family="sans-serif" font-size="11" lengthAdjust="spacing" textLength="205" x="2213" y="469.6245">private AtomicBoolean playerAttack</text><text fill="#000000" font-family="sans-serif" font-size="11" lengthAdjust="spacing" textLength="110" x="2213" y="482.4292">private World world</text><line style="stroke:#A80036;stroke-width:1.5;" x1="2208" x2="2452" y1="489.0234" y2="489.0234"/><text fill="#000000" font-family="sans-serif" font-size="11" lengthAdjust="spacing" textLength="203" x="2213" y="503.2339">public Labyrinth(int sizeX, int sizeY)</text><text fill="#000000" font-family="sans-serif" font-size="11" lengthAdjust="spacing" textLength="218" x="2213" y="516.0386">public void mazeRecursion(int x, int y)</text><text fill="#000000" font-family="sans-serif" font-size="11" lengthAdjust="spacing" textLength="165" x="2213" y="528.8433">private void actionMonsters()</text><text fill="#000000" font-family="sans-serif" font-size="11" lengthAdjust="spacing" textLength="174" x="2213" y="541.6479">private void randomDirection()</text><text fill="#000000" font-family="sans-serif" font-size="11" lengthAdjust="spacing" textLength="234" x="2213" y="554.4526">public void draw(SpriteBatch spriteBatch)</text><text fill="#000000" font-family="sans-serif" font-size="11" lengthAdjust="spacing" textLength="107" x="2213" y="567.2573">public void attack()</text><text fill="#000000" font-family="sans-serif" font-size="11" lengthAdjust="spacing" textLength="232" x="2213" y="580.062">public void movePlayer(Vector2 vector2)</text><text fill="#000000" font-family="sans-serif" font-size="11" lengthAdjust="spacing" textLength="157" x="2213" y="592.8667">public void moveMonsters()</text><!--MD5=[3a0eb407db395671c67c4950880c56d7]
class m--><rect codeLine="18" fill="#FEFECE" filter="url(#f1w0tcveabvgb5)" height="112.0234" id="m" style="stroke:#A80036;stroke-width:1.5;" width="333" x="783.5" y="738.5"/><ellipse cx="921.75" cy="754.5" fill="#A9DCDF" rx="11" ry="11" style="stroke:#A80036;stroke-width:1.0;"/><path d="M923.8281,756.3125 L924.2188,757.2969 L923.8281,757.2969 C923.375,757.2969 923.2656,757.3125 923.1094,757.4219 C922.8594,757.5781 922.7031,757.8594 922.7031,758.1563 C922.7031,758.4219 922.8438,758.6719 923.0625,758.8281 C923.2031,758.9531 923.4063,759 923.8281,759 L926.1875,759 C926.5469,759 926.7656,758.9688 926.9063,758.875 C927.1563,758.7344 927.3125,758.4375 927.3125,758.1563 C927.3125,757.875 927.1719,757.625 926.9531,757.4688 C926.7813,757.3281 926.625,757.2969 926.1563,757.2969 L922.7656,749.0938 L919.0938,749.0938 C918.6406,749.0938 918.5156,749.1094 918.3594,749.2031 C918.1094,749.375 917.9531,749.6563 917.9531,749.9375 C917.9531,750.2188 918.0938,750.4688 918.3125,750.6406 C918.4844,750.75 918.6563,750.7813 919.0938,750.7813 L920.1719,750.7813 L917.5313,757.2969 C917.1094,757.2969 916.9531,757.3125 916.7969,757.4219 C916.5469,757.5781 916.3906,757.8594 916.3906,758.1563 C916.3906,758.7188 916.7656,759 917.5156,759 L919.7813,759 C920.1406,759 920.3594,758.9688 920.4844,758.875 C920.75,758.7344 920.8906,758.4375 920.8906,758.1563 C920.8906,757.875 920.7656,757.625 920.5469,757.4531 C920.375,757.3281 920.2344,757.2969 919.7813,757.2969 L919.3906,757.2969 L919.7813,756.3125 L923.8281,756.3125 Z M923.125,754.6094 L920.4531,754.6094 L921.7969,751.3438 L923.125,754.6094 Z " fill="#000000"/><text fill="#000000" font-family="sans-serif" font-size="12" font-style="italic" lengthAdjust="spacing" textLength="48" x="942.25" y="758.6543">Monster</text><line style="stroke:#A80036;stroke-width:1.5;" x1="784.5" x2="1115.5" y1="770.5" y2="770.5"/><text fill="#000000" font-family="sans-serif" font-size="11" lengthAdjust="spacing" textLength="94" x="789.5" y="784.7104">private int[] goal</text><text fill="#000000" font-family="sans-serif" font-size="11" lengthAdjust="spacing" textLength="179" x="789.5" y="797.5151">protected PolygonShape shape</text><text fill="#000000" font-family="sans-serif" font-size="11" lengthAdjust="spacing" textLength="186" x="789.5" y="810.3198">private boolean finishedMoving ;</text><line style="stroke:#A80036;stroke-width:1.5;" x1="784.5" x2="1115.5" y1="816.9141" y2="816.9141"/><text fill="#000000" font-family="sans-serif" font-size="11" lengthAdjust="spacing" textLength="321" x="789.5" y="831.1245">Monster(World world, int x, int y, int hp, int size, int ratio)</text><text fill="#000000" font-family="sans-serif" font-size="11" lengthAdjust="spacing" textLength="156" x="789.5" y="843.9292">public boolean isMonster1()</text><!--MD5=[71558e40f574c4d2fa8d542d54ab550d]
class Monster1--><rect codeLine="26" fill="#FEFECE" filter="url(#f1w0tcveabvgb5)" height="112.0234" id="Monster1" style="stroke:#A80036;stroke-width:1.5;" width="333" x="431.5" y="436"/><ellipse cx="565.75" cy="452" fill="#ADD1B2" rx="11" ry="11" style="stroke:#A80036;stroke-width:1.0;"/><path d="M568.0938,447.6719 C567.1563,447.2344 566.5625,447.0938 565.6875,447.0938 C563.0625,447.0938 561.0625,449.1719 561.0625,451.8906 L561.0625,453.0156 C561.0625,455.5938 563.1719,457.4844 566.0625,457.4844 C567.2813,457.4844 568.4375,457.1875 569.1875,456.6406 C569.7656,456.2344 570.0938,455.7813 570.0938,455.3906 C570.0938,454.9375 569.7031,454.5469 569.2344,454.5469 C569.0156,454.5469 568.8125,454.625 568.625,454.8125 C568.1719,455.2969 568.1719,455.2969 567.9844,455.3906 C567.5625,455.6563 566.875,455.7813 566.1094,455.7813 C564.0625,455.7813 562.7656,454.6875 562.7656,452.9844 L562.7656,451.8906 C562.7656,450.1094 564.0156,448.7969 565.75,448.7969 C566.3281,448.7969 566.9375,448.9531 567.4063,449.2031 C567.8906,449.4844 568.0625,449.7031 568.1563,450.1094 C568.2188,450.5156 568.25,450.6406 568.3906,450.7656 C568.5313,450.9063 568.7656,451.0156 568.9844,451.0156 C569.25,451.0156 569.5156,450.875 569.6875,450.6563 C569.7969,450.5 569.8281,450.3125 569.8281,449.8906 L569.8281,448.4688 C569.8281,448.0313 569.8125,447.9063 569.7188,447.75 C569.5625,447.4844 569.2813,447.3438 568.9844,447.3438 C568.6875,447.3438 568.4844,447.4375 568.2656,447.75 L568.0938,447.6719 Z " fill="#000000"/><text fill="#000000" font-family="sans-serif" font-size="12" lengthAdjust="spacing" textLength="56" x="586.25" y="456.1543">Monster1</text><line style="stroke:#A80036;stroke-width:1.5;" x1="432.5" x2="763.5" y1="468" y2="468"/><text fill="#000000" font-family="sans-serif" font-size="11" lengthAdjust="spacing" textLength="94" x="437.5" y="482.2104">private int[] goal</text><text fill="#000000" font-family="sans-serif" font-size="11" lengthAdjust="spacing" textLength="179" x="437.5" y="495.0151">protected PolygonShape shape</text><text fill="#000000" font-family="sans-serif" font-size="11" lengthAdjust="spacing" textLength="222" x="437.5" y="507.8198">private boolean finishedMoving = true;</text><line style="stroke:#A80036;stroke-width:1.5;" x1="432.5" x2="763.5" y1="514.4141" y2="514.4141"/><text fill="#000000" font-family="sans-serif" font-size="11" lengthAdjust="spacing" textLength="321" x="437.5" y="528.6245">Monster(World world, int x, int y, int hp, int size, int ratio)</text><text fill="#000000" font-family="sans-serif" font-size="11" lengthAdjust="spacing" textLength="156" x="437.5" y="541.4292">public boolean isMonster1()</text><!--MD5=[55d5cb0aae3dc0d7c2e2f7f576b3e5c2]
class Monster2--><rect codeLine="35" fill="#FEFECE" filter="url(#f1w0tcveabvgb5)" height="60.8047" id="Monster2" style="stroke:#A80036;stroke-width:1.5;" width="340" x="56" y="461.5"/><ellipse cx="193.25" cy="477.5" fill="#ADD1B2" rx="11" ry="11" style="stroke:#A80036;stroke-width:1.0;"/><path d="M195.5938,473.1719 C194.6563,472.7344 194.0625,472.5938 193.1875,472.5938 C190.5625,472.5938 188.5625,474.6719 188.5625,477.3906 L188.5625,478.5156 C188.5625,481.0938 190.6719,482.9844 193.5625,482.9844 C194.7813,482.9844 195.9375,482.6875 196.6875,482.1406 C197.2656,481.7344 197.5938,481.2813 197.5938,480.8906 C197.5938,480.4375 197.2031,480.0469 196.7344,480.0469 C196.5156,480.0469 196.3125,480.125 196.125,480.3125 C195.6719,480.7969 195.6719,480.7969 195.4844,480.8906 C195.0625,481.1563 194.375,481.2813 193.6094,481.2813 C191.5625,481.2813 190.2656,480.1875 190.2656,478.4844 L190.2656,477.3906 C190.2656,475.6094 191.5156,474.2969 193.25,474.2969 C193.8281,474.2969 194.4375,474.4531 194.9063,474.7031 C195.3906,474.9844 195.5625,475.2031 195.6563,475.6094 C195.7188,476.0156 195.75,476.1406 195.8906,476.2656 C196.0313,476.4063 196.2656,476.5156 196.4844,476.5156 C196.75,476.5156 197.0156,476.375 197.1875,476.1563 C197.2969,476 197.3281,475.8125 197.3281,475.3906 L197.3281,473.9688 C197.3281,473.5313 197.3125,473.4063 197.2188,473.25 C197.0625,472.9844 196.7813,472.8438 196.4844,472.8438 C196.1875,472.8438 195.9844,472.9375 195.7656,473.25 L195.5938,473.1719 Z " fill="#000000"/><text fill="#000000" font-family="sans-serif" font-size="12" lengthAdjust="spacing" textLength="57" x="213.75" y="481.6543">Monster2</text><line style="stroke:#A80036;stroke-width:1.5;" x1="57" x2="395" y1="493.5" y2="493.5"/><line style="stroke:#A80036;stroke-width:1.5;" x1="57" x2="395" y1="501.5" y2="501.5"/><text fill="#000000" font-family="sans-serif" font-size="11" lengthAdjust="spacing" textLength="328" x="62" y="515.7104">Monster2(World world, int x, int y, int hp, int size, int ratio)</text><!--MD5=[9613924afaa425a65cc3b882f86e0b0f]
class AStar--><rect codeLine="42" fill="#FEFECE" filter="url(#f1w0tcveabvgb5)" height="137.6328" id="AStar" style="stroke:#A80036;stroke-width:1.5;" width="289" x="1159.5" y="423"/><ellipse cx="1283.75" cy="439" fill="#ADD1B2" rx="11" ry="11" style="stroke:#A80036;stroke-width:1.0;"/><path d="M1286.0938,434.6719 C1285.1563,434.2344 1284.5625,434.0938 1283.6875,434.0938 C1281.0625,434.0938 1279.0625,436.1719 1279.0625,438.8906 L1279.0625,440.0156 C1279.0625,442.5938 1281.1719,444.4844 1284.0625,444.4844 C1285.2813,444.4844 1286.4375,444.1875 1287.1875,443.6406 C1287.7656,443.2344 1288.0938,442.7813 1288.0938,442.3906 C1288.0938,441.9375 1287.7031,441.5469 1287.2344,441.5469 C1287.0156,441.5469 1286.8125,441.625 1286.625,441.8125 C1286.1719,442.2969 1286.1719,442.2969 1285.9844,442.3906 C1285.5625,442.6563 1284.875,442.7813 1284.1094,442.7813 C1282.0625,442.7813 1280.7656,441.6875 1280.7656,439.9844 L1280.7656,438.8906 C1280.7656,437.1094 1282.0156,435.7969 1283.75,435.7969 C1284.3281,435.7969 1284.9375,435.9531 1285.4063,436.2031 C1285.8906,436.4844 1286.0625,436.7031 1286.1563,437.1094 C1286.2188,437.5156 1286.25,437.6406 1286.3906,437.7656 C1286.5313,437.9063 1286.7656,438.0156 1286.9844,438.0156 C1287.25,438.0156 1287.5156,437.875 1287.6875,437.6563 C1287.7969,437.5 1287.8281,437.3125 1287.8281,436.8906 L1287.8281,435.4688 C1287.8281,435.0313 1287.8125,434.9063 1287.7188,434.75 C1287.5625,434.4844 1287.2813,434.3438 1286.9844,434.3438 C1286.6875,434.3438 1286.4844,434.4375 1286.2656,434.75 L1286.0938,434.6719 Z " fill="#000000"/><text fill="#000000" font-family="sans-serif" font-size="12" lengthAdjust="spacing" textLength="32" x="1304.25" y="443.1543">AStar</text><line style="stroke:#A80036;stroke-width:1.5;" x1="1160.5" x2="1447.5" y1="455" y2="455"/><text fill="#000000" font-family="sans-serif" font-size="11" lengthAdjust="spacing" textLength="107" x="1165.5" y="469.2104">private int [][] map</text><line style="stroke:#A80036;stroke-width:1.5;" x1="1160.5" x2="1447.5" y1="475.8047" y2="475.8047"/><text fill="#000000" font-family="sans-serif" font-size="11" lengthAdjust="spacing" textLength="98" x="1165.5" y="490.0151">AStar(int[][] map)</text><text fill="#000000" font-family="sans-serif" font-size="11" lengthAdjust="spacing" textLength="266" x="1165.5" y="502.8198">public int[] getNextMove(int[] start, int[] target)</text><text fill="#000000" font-family="sans-serif" font-size="11" lengthAdjust="spacing" textLength="263" x="1165.5" y="515.6245">public int getPathLength(int[] start, int[] target)</text><text fill="#000000" font-family="sans-serif" font-size="11" lengthAdjust="spacing" textLength="207" x="1165.5" y="528.4292">private Node nextStep(Node target)</text><text fill="#000000" font-family="sans-serif" font-size="11" lengthAdjust="spacing" textLength="250" x="1165.5" y="541.2339">private Node aStar(Node start, Node target)</text><text fill="#000000" font-family="sans-serif" font-size="11" lengthAdjust="spacing" textLength="277" x="1165.5" y="554.0386">private ArrayList&lt;Node&gt; getSuccessors(Node n)</text><!--MD5=[3fee75583bb7a64f68d843a3c9534ab3]
class Node--><rect codeLine="53" fill="#FEFECE" filter="url(#f1w0tcveabvgb5)" height="329.7031" id="Node" style="stroke:#A80036;stroke-width:1.5;" width="325" x="799.5" y="327"/><ellipse cx="941.75" cy="343" fill="#ADD1B2" rx="11" ry="11" style="stroke:#A80036;stroke-width:1.0;"/><path d="M944.0938,338.6719 C943.1563,338.2344 942.5625,338.0938 941.6875,338.0938 C939.0625,338.0938 937.0625,340.1719 937.0625,342.8906 L937.0625,344.0156 C937.0625,346.5938 939.1719,348.4844 942.0625,348.4844 C943.2813,348.4844 944.4375,348.1875 945.1875,347.6406 C945.7656,347.2344 946.0938,346.7813 946.0938,346.3906 C946.0938,345.9375 945.7031,345.5469 945.2344,345.5469 C945.0156,345.5469 944.8125,345.625 944.625,345.8125 C944.1719,346.2969 944.1719,346.2969 943.9844,346.3906 C943.5625,346.6563 942.875,346.7813 942.1094,346.7813 C940.0625,346.7813 938.7656,345.6875 938.7656,343.9844 L938.7656,342.8906 C938.7656,341.1094 940.0156,339.7969 941.75,339.7969 C942.3281,339.7969 942.9375,339.9531 943.4063,340.2031 C943.8906,340.4844 944.0625,340.7031 944.1563,341.1094 C944.2188,341.5156 944.25,341.6406 944.3906,341.7656 C944.5313,341.9063 944.7656,342.0156 944.9844,342.0156 C945.25,342.0156 945.5156,341.875 945.6875,341.6563 C945.7969,341.5 945.8281,341.3125 945.8281,340.8906 L945.8281,339.4688 C945.8281,339.0313 945.8125,338.9063 945.7188,338.75 C945.5625,338.4844 945.2813,338.3438 944.9844,338.3438 C944.6875,338.3438 944.4844,338.4375 944.2656,338.75 L944.0938,338.6719 Z " fill="#000000"/><text fill="#000000" font-family="sans-serif" font-size="12" lengthAdjust="spacing" textLength="32" x="962.25" y="347.1543">Node</text><line style="stroke:#A80036;stroke-width:1.5;" x1="800.5" x2="1123.5" y1="359" y2="359"/><text fill="#000000" font-family="sans-serif" font-size="11" lengthAdjust="spacing" textLength="115" x="805.5" y="373.2104">private Node parent</text><text fill="#000000" font-family="sans-serif" font-size="11" lengthAdjust="spacing" textLength="151" x="805.5" y="386.0151">private int totalPathWeight</text><text fill="#000000" font-family="sans-serif" font-size="11" lengthAdjust="spacing" textLength="163" x="805.5" y="398.8198">private int weightToGetHere</text><text fill="#000000" font-family="sans-serif" font-size="11" lengthAdjust="spacing" textLength="110" x="805.5" y="411.6245">private int heuristic</text><text fill="#000000" font-family="sans-serif" font-size="11" lengthAdjust="spacing" textLength="69" x="805.5" y="424.4292">private int x</text><text fill="#000000" font-family="sans-serif" font-size="11" lengthAdjust="spacing" textLength="69" x="805.5" y="437.2339">private int y</text><line style="stroke:#A80036;stroke-width:1.5;" x1="800.5" x2="1123.5" y1="443.8281" y2="443.8281"/><text fill="#000000" font-family="sans-serif" font-size="11" lengthAdjust="spacing" textLength="205" x="805.5" y="458.0386">public Node(int heuristic, int x, int y)</text><text fill="#000000" font-family="sans-serif" font-size="11" lengthAdjust="spacing" textLength="134" x="805.5" y="470.8433">public Node getParent()</text><text fill="#000000" font-family="sans-serif" font-size="11" lengthAdjust="spacing" textLength="198" x="805.5" y="483.6479">public void setParent(Node parent)</text><text fill="#000000" font-family="sans-serif" font-size="11" lengthAdjust="spacing" textLength="174" x="805.5" y="496.4526">public int getTotalPathWeight()</text><text fill="#000000" font-family="sans-serif" font-size="11" lengthAdjust="spacing" textLength="290" x="805.5" y="509.2573">public void setTotalPathWeight(int totalPathWeight)</text><text fill="#000000" font-family="sans-serif" font-size="11" lengthAdjust="spacing" textLength="185" x="805.5" y="522.062">public int getWeightToGetHere()</text><text fill="#000000" font-family="sans-serif" font-size="11" lengthAdjust="spacing" textLength="313" x="805.5" y="534.8667">public void setWeightToGetHere(int weightToGetHere)</text><text fill="#000000" font-family="sans-serif" font-size="11" lengthAdjust="spacing" textLength="273" x="805.5" y="547.6714">public int calculateAndSetHeuristic(Node target)</text><text fill="#000000" font-family="sans-serif" font-size="11" lengthAdjust="spacing" textLength="206" x="805.5" y="560.4761">public void setHeuristic(int heuristic)</text><text fill="#000000" font-family="sans-serif" font-size="11" lengthAdjust="spacing" textLength="89" x="805.5" y="573.2808">public int setX()</text><text fill="#000000" font-family="sans-serif" font-size="11" lengthAdjust="spacing" textLength="90" x="805.5" y="586.0854">public int getX()</text><text fill="#000000" font-family="sans-serif" font-size="11" lengthAdjust="spacing" textLength="88" x="805.5" y="598.8901">public int setY()</text><text fill="#000000" font-family="sans-serif" font-size="11" lengthAdjust="spacing" textLength="89" x="805.5" y="611.6948">public int getY()</text><text fill="#000000" font-family="sans-serif" font-size="11" lengthAdjust="spacing" textLength="168" x="805.5" y="624.4995">public int compareTo(Node n)</text><text fill="#000000" font-family="sans-serif" font-size="11" lengthAdjust="spacing" textLength="181" x="805.5" y="637.3042">public boolean equals(Object o)</text><text fill="#000000" font-family="sans-serif" font-size="11" lengthAdjust="spacing" textLength="126" x="805.5" y="650.1089">public String toString()</text><!--MD5=[e27ec6c0f62a2819cd01b5dacade6e8e]
class w--><rect codeLine="100" fill="#FEFECE" filter="url(#f1w0tcveabvgb5)" height="124.8281" id="w" style="stroke:#A80036;stroke-width:1.5;" width="264" x="2502" y="732"/><ellipse cx="2617.25" cy="748" fill="#A9DCDF" rx="11" ry="11" style="stroke:#A80036;stroke-width:1.0;"/><path d="M2619.3281,749.8125 L2619.7188,750.7969 L2619.3281,750.7969 C2618.875,750.7969 2618.7656,750.8125 2618.6094,750.9219 C2618.3594,751.0781 2618.2031,751.3594 2618.2031,751.6563 C2618.2031,751.9219 2618.3438,752.1719 2618.5625,752.3281 C2618.7031,752.4531 2618.9063,752.5 2619.3281,752.5 L2621.6875,752.5 C2622.0469,752.5 2622.2656,752.4688 2622.4063,752.375 C2622.6563,752.2344 2622.8125,751.9375 2622.8125,751.6563 C2622.8125,751.375 2622.6719,751.125 2622.4531,750.9688 C2622.2813,750.8281 2622.125,750.7969 2621.6563,750.7969 L2618.2656,742.5938 L2614.5938,742.5938 C2614.1406,742.5938 2614.0156,742.6094 2613.8594,742.7031 C2613.6094,742.875 2613.4531,743.1563 2613.4531,743.4375 C2613.4531,743.7188 2613.5938,743.9688 2613.8125,744.1406 C2613.9844,744.25 2614.1563,744.2813 2614.5938,744.2813 L2615.6719,744.2813 L2613.0313,750.7969 C2612.6094,750.7969 2612.4531,750.8125 2612.2969,750.9219 C2612.0469,751.0781 2611.8906,751.3594 2611.8906,751.6563 C2611.8906,752.2188 2612.2656,752.5 2613.0156,752.5 L2615.2813,752.5 C2615.6406,752.5 2615.8594,752.4688 2615.9844,752.375 C2616.25,752.2344 2616.3906,751.9375 2616.3906,751.6563 C2616.3906,751.375 2616.2656,751.125 2616.0469,750.9531 C2615.875,750.8281 2615.7344,750.7969 2615.2813,750.7969 L2614.8906,750.7969 L2615.2813,749.8125 L2619.3281,749.8125 Z M2618.625,748.1094 L2615.9531,748.1094 L2617.2969,744.8438 L2618.625,748.1094 Z " fill="#000000"/><text fill="#000000" font-family="sans-serif" font-size="12" font-style="italic" lengthAdjust="spacing" textLength="25" x="2637.75" y="752.1543">Wall</text><line style="stroke:#A80036;stroke-width:1.5;" x1="2503" x2="2765" y1="764" y2="764"/><text fill="#000000" font-family="sans-serif" font-size="11" lengthAdjust="spacing" textLength="90" x="2508" y="778.2104">private int posX</text><text fill="#000000" font-family="sans-serif" font-size="11" lengthAdjust="spacing" textLength="89" x="2508" y="791.0151">private int posY</text><text fill="#000000" font-family="sans-serif" font-size="11" lengthAdjust="spacing" textLength="86" x="2508" y="803.8198">private int size</text><text fill="#000000" font-family="sans-serif" font-size="11" lengthAdjust="spacing" textLength="120" x="2508" y="816.6245">protected Body body</text><text fill="#000000" font-family="sans-serif" font-size="11" lengthAdjust="spacing" textLength="179" x="2508" y="829.4292">protected PolygonShape shape</text><line style="stroke:#A80036;stroke-width:1.5;" x1="2503" x2="2765" y1="836.0234" y2="836.0234"/><text fill="#000000" font-family="sans-serif" font-size="11" lengthAdjust="spacing" textLength="252" x="2508" y="850.2339">Wall(World world, int posX, int posY, int size)</text><!--MD5=[8fcf2e5db17c4ae3317dfb47f8a9af4a]
class WallObstacle--><rect codeLine="109" fill="#FEFECE" filter="url(#f1w0tcveabvgb5)" height="60.8047" id="WallObstacle" style="stroke:#A80036;stroke-width:1.5;" width="314" x="2815" y="461.5"/><ellipse cx="2928.25" cy="477.5" fill="#ADD1B2" rx="11" ry="11" style="stroke:#A80036;stroke-width:1.0;"/><path d="M2930.5938,473.1719 C2929.6563,472.7344 2929.0625,472.5938 2928.1875,472.5938 C2925.5625,472.5938 2923.5625,474.6719 2923.5625,477.3906 L2923.5625,478.5156 C2923.5625,481.0938 2925.6719,482.9844 2928.5625,482.9844 C2929.7813,482.9844 2930.9375,482.6875 2931.6875,482.1406 C2932.2656,481.7344 2932.5938,481.2813 2932.5938,480.8906 C2932.5938,480.4375 2932.2031,480.0469 2931.7344,480.0469 C2931.5156,480.0469 2931.3125,480.125 2931.125,480.3125 C2930.6719,480.7969 2930.6719,480.7969 2930.4844,480.8906 C2930.0625,481.1563 2929.375,481.2813 2928.6094,481.2813 C2926.5625,481.2813 2925.2656,480.1875 2925.2656,478.4844 L2925.2656,477.3906 C2925.2656,475.6094 2926.5156,474.2969 2928.25,474.2969 C2928.8281,474.2969 2929.4375,474.4531 2929.9063,474.7031 C2930.3906,474.9844 2930.5625,475.2031 2930.6563,475.6094 C2930.7188,476.0156 2930.75,476.1406 2930.8906,476.2656 C2931.0313,476.4063 2931.2656,476.5156 2931.4844,476.5156 C2931.75,476.5156 2932.0156,476.375 2932.1875,476.1563 C2932.2969,476 2932.3281,475.8125 2932.3281,475.3906 L2932.3281,473.9688 C2932.3281,473.5313 2932.3125,473.4063 2932.2188,473.25 C2932.0625,472.9844 2931.7813,472.8438 2931.4844,472.8438 C2931.1875,472.8438 2930.9844,472.9375 2930.7656,473.25 L2930.5938,473.1719 Z " fill="#000000"/><text fill="#000000" font-family="sans-serif" font-size="12" lengthAdjust="spacing" textLength="79" x="2948.75" y="481.6543">WallObstacle</text><line style="stroke:#A80036;stroke-width:1.5;" x1="2816" x2="3128" y1="493.5" y2="493.5"/><line style="stroke:#A80036;stroke-width:1.5;" x1="2816" x2="3128" y1="501.5" y2="501.5"/><text fill="#000000" font-family="sans-serif" font-size="11" lengthAdjust="spacing" textLength="302" x="2821" y="515.7104">WallObstacle(World world, int posX, int posY, int size)</text><!--MD5=[96d765f81ebe98fe293d737dedd5b313]
class WallLimit--><rect codeLine="113" fill="#FEFECE" filter="url(#f1w0tcveabvgb5)" height="60.8047" id="WallLimit" style="stroke:#A80036;stroke-width:1.5;" width="291" x="2488.5" y="461.5"/><ellipse cx="2603.75" cy="477.5" fill="#ADD1B2" rx="11" ry="11" style="stroke:#A80036;stroke-width:1.0;"/><path d="M2606.0938,473.1719 C2605.1563,472.7344 2604.5625,472.5938 2603.6875,472.5938 C2601.0625,472.5938 2599.0625,474.6719 2599.0625,477.3906 L2599.0625,478.5156 C2599.0625,481.0938 2601.1719,482.9844 2604.0625,482.9844 C2605.2813,482.9844 2606.4375,482.6875 2607.1875,482.1406 C2607.7656,481.7344 2608.0938,481.2813 2608.0938,480.8906 C2608.0938,480.4375 2607.7031,480.0469 2607.2344,480.0469 C2607.0156,480.0469 2606.8125,480.125 2606.625,480.3125 C2606.1719,480.7969 2606.1719,480.7969 2605.9844,480.8906 C2605.5625,481.1563 2604.875,481.2813 2604.1094,481.2813 C2602.0625,481.2813 2600.7656,480.1875 2600.7656,478.4844 L2600.7656,477.3906 C2600.7656,475.6094 2602.0156,474.2969 2603.75,474.2969 C2604.3281,474.2969 2604.9375,474.4531 2605.4063,474.7031 C2605.8906,474.9844 2606.0625,475.2031 2606.1563,475.6094 C2606.2188,476.0156 2606.25,476.1406 2606.3906,476.2656 C2606.5313,476.4063 2606.7656,476.5156 2606.9844,476.5156 C2607.25,476.5156 2607.5156,476.375 2607.6875,476.1563 C2607.7969,476 2607.8281,475.8125 2607.8281,475.3906 L2607.8281,473.9688 C2607.8281,473.5313 2607.8125,473.4063 2607.7188,473.25 C2607.5625,472.9844 2607.2813,472.8438 2606.9844,472.8438 C2606.6875,472.8438 2606.4844,472.9375 2606.2656,473.25 L2606.0938,473.1719 Z " fill="#000000"/><text fill="#000000" font-family="sans-serif" font-size="12" lengthAdjust="spacing" textLength="52" x="2624.25" y="481.6543">WallLimit</text><line style="stroke:#A80036;stroke-width:1.5;" x1="2489.5" x2="2778.5" y1="493.5" y2="493.5"/><line style="stroke:#A80036;stroke-width:1.5;" x1="2489.5" x2="2778.5" y1="501.5" y2="501.5"/><text fill="#000000" font-family="sans-serif" font-size="11" lengthAdjust="spacing" textLength="279" x="2494.5" y="515.7104">WallLimit(World world, int posX, int posY, int size)</text><!--MD5=[26efd2e1d59de112df14df86c5c974fe]
class ce--><rect codeLine="131" fill="#FEFECE" filter="url(#f1w0tcveabvgb5)" height="137.6328" id="ce" style="stroke:#A80036;stroke-width:1.5;" width="248" x="1990" y="932"/><ellipse cx="2087.75" cy="948" fill="#ADD1B2" rx="11" ry="11" style="stroke:#A80036;stroke-width:1.0;"/><path d="M2090.0938,943.6719 C2089.1563,943.2344 2088.5625,943.0938 2087.6875,943.0938 C2085.0625,943.0938 2083.0625,945.1719 2083.0625,947.8906 L2083.0625,949.0156 C2083.0625,951.5938 2085.1719,953.4844 2088.0625,953.4844 C2089.2813,953.4844 2090.4375,953.1875 2091.1875,952.6406 C2091.7656,952.2344 2092.0938,951.7813 2092.0938,951.3906 C2092.0938,950.9375 2091.7031,950.5469 2091.2344,950.5469 C2091.0156,950.5469 2090.8125,950.625 2090.625,950.8125 C2090.1719,951.2969 2090.1719,951.2969 2089.9844,951.3906 C2089.5625,951.6563 2088.875,951.7813 2088.1094,951.7813 C2086.0625,951.7813 2084.7656,950.6875 2084.7656,948.9844 L2084.7656,947.8906 C2084.7656,946.1094 2086.0156,944.7969 2087.75,944.7969 C2088.3281,944.7969 2088.9375,944.9531 2089.4063,945.2031 C2089.8906,945.4844 2090.0625,945.7031 2090.1563,946.1094 C2090.2188,946.5156 2090.25,946.6406 2090.3906,946.7656 C2090.5313,946.9063 2090.7656,947.0156 2090.9844,947.0156 C2091.25,947.0156 2091.5156,946.875 2091.6875,946.6563 C2091.7969,946.5 2091.8281,946.3125 2091.8281,945.8906 L2091.8281,944.4688 C2091.8281,944.0313 2091.8125,943.9063 2091.7188,943.75 C2091.5625,943.4844 2091.2813,943.3438 2090.9844,943.3438 C2090.6875,943.3438 2090.4844,943.4375 2090.2656,943.75 L2090.0938,943.6719 Z " fill="#000000"/><text fill="#000000" font-family="sans-serif" font-size="12" lengthAdjust="spacing" textLength="44" x="2108.25" y="952.1543">CellEnd</text><line style="stroke:#A80036;stroke-width:1.5;" x1="1991" x2="2237" y1="964" y2="964"/><text fill="#000000" font-family="sans-serif" font-size="11" lengthAdjust="spacing" textLength="105" x="1996" y="978.2104">private Body body</text><text fill="#000000" font-family="sans-serif" font-size="11" lengthAdjust="spacing" textLength="86" x="1996" y="991.0151">private int size</text><line style="stroke:#A80036;stroke-width:1.5;" x1="1991" x2="2237" y1="997.6094" y2="997.6094"/><text fill="#000000" font-family="sans-serif" font-size="11" lengthAdjust="spacing" textLength="236" x="1996" y="1011.8198">CellNext(World world, int x, int y, int size)</text><text fill="#000000" font-family="sans-serif" font-size="11" lengthAdjust="spacing" textLength="173" x="1996" y="1024.6245">public float getBodyPositionX()</text><text fill="#000000" font-family="sans-serif" font-size="11" lengthAdjust="spacing" textLength="172" x="1996" y="1037.4292">public float getBodyPositionY()</text><text fill="#000000" font-family="sans-serif" font-size="11" lengthAdjust="spacing" textLength="108" x="1996" y="1050.2339">public int getSize()</text><text fill="#000000" font-family="sans-serif" font-size="11" lengthAdjust="spacing" textLength="177" x="1996" y="1063.0386">public boolean isTreasureCell()</text><!--MD5=[c308a51a3d31e1fc4196c1eecc3a5b43]
class CellTrap--><rect codeLine="142" fill="#FEFECE" filter="url(#f1w0tcveabvgb5)" height="86.4141" id="CellTrap" style="stroke:#A80036;stroke-width:1.5;" width="296" x="2123" y="751.5"/><ellipse cx="2242.25" cy="767.5" fill="#ADD1B2" rx="11" ry="11" style="stroke:#A80036;stroke-width:1.0;"/><path d="M2244.5938,763.1719 C2243.6563,762.7344 2243.0625,762.5938 2242.1875,762.5938 C2239.5625,762.5938 2237.5625,764.6719 2237.5625,767.3906 L2237.5625,768.5156 C2237.5625,771.0938 2239.6719,772.9844 2242.5625,772.9844 C2243.7813,772.9844 2244.9375,772.6875 2245.6875,772.1406 C2246.2656,771.7344 2246.5938,771.2813 2246.5938,770.8906 C2246.5938,770.4375 2246.2031,770.0469 2245.7344,770.0469 C2245.5156,770.0469 2245.3125,770.125 2245.125,770.3125 C2244.6719,770.7969 2244.6719,770.7969 2244.4844,770.8906 C2244.0625,771.1563 2243.375,771.2813 2242.6094,771.2813 C2240.5625,771.2813 2239.2656,770.1875 2239.2656,768.4844 L2239.2656,767.3906 C2239.2656,765.6094 2240.5156,764.2969 2242.25,764.2969 C2242.8281,764.2969 2243.4375,764.4531 2243.9063,764.7031 C2244.3906,764.9844 2244.5625,765.2031 2244.6563,765.6094 C2244.7188,766.0156 2244.75,766.1406 2244.8906,766.2656 C2245.0313,766.4063 2245.2656,766.5156 2245.4844,766.5156 C2245.75,766.5156 2246.0156,766.375 2246.1875,766.1563 C2246.2969,766 2246.3281,765.8125 2246.3281,765.3906 L2246.3281,763.9688 C2246.3281,763.5313 2246.3125,763.4063 2246.2188,763.25 C2246.0625,762.9844 2245.7813,762.8438 2245.4844,762.8438 C2245.1875,762.8438 2244.9844,762.9375 2244.7656,763.25 L2244.5938,763.1719 Z " fill="#000000"/><text fill="#000000" font-family="sans-serif" font-size="12" lengthAdjust="spacing" textLength="49" x="2262.75" y="771.6543">CellTrap</text><line style="stroke:#A80036;stroke-width:1.5;" x1="2124" x2="2418" y1="783.5" y2="783.5"/><text fill="#000000" font-family="sans-serif" font-size="11" lengthAdjust="spacing" textLength="108" x="2129" y="797.7104">private Body body;</text><line style="stroke:#A80036;stroke-width:1.5;" x1="2124" x2="2418" y1="804.3047" y2="804.3047"/><text fill="#000000" font-family="sans-serif" font-size="11" lengthAdjust="spacing" textLength="284" x="2129" y="818.5151">CellTrap(World world, int x, int y, int size, int ratio)</text><text fill="#000000" font-family="sans-serif" font-size="11" lengthAdjust="spacing" textLength="200" x="2129" y="831.3198">public void getEffect(Player player)</text><!--MD5=[d379e0c2aa70536250d91cf2c8e59a33]
class CellTreasure--><rect codeLine="150" fill="#FEFECE" filter="url(#f1w0tcveabvgb5)" height="112.0234" id="CellTreasure" style="stroke:#A80036;stroke-width:1.5;" width="309" x="1778.5" y="738.5"/><ellipse cx="1890.75" cy="754.5" fill="#ADD1B2" rx="11" ry="11" style="stroke:#A80036;stroke-width:1.0;"/><path d="M1893.0938,750.1719 C1892.1563,749.7344 1891.5625,749.5938 1890.6875,749.5938 C1888.0625,749.5938 1886.0625,751.6719 1886.0625,754.3906 L1886.0625,755.5156 C1886.0625,758.0938 1888.1719,759.9844 1891.0625,759.9844 C1892.2813,759.9844 1893.4375,759.6875 1894.1875,759.1406 C1894.7656,758.7344 1895.0938,758.2813 1895.0938,757.8906 C1895.0938,757.4375 1894.7031,757.0469 1894.2344,757.0469 C1894.0156,757.0469 1893.8125,757.125 1893.625,757.3125 C1893.1719,757.7969 1893.1719,757.7969 1892.9844,757.8906 C1892.5625,758.1563 1891.875,758.2813 1891.1094,758.2813 C1889.0625,758.2813 1887.7656,757.1875 1887.7656,755.4844 L1887.7656,754.3906 C1887.7656,752.6094 1889.0156,751.2969 1890.75,751.2969 C1891.3281,751.2969 1891.9375,751.4531 1892.4063,751.7031 C1892.8906,751.9844 1893.0625,752.2031 1893.1563,752.6094 C1893.2188,753.0156 1893.25,753.1406 1893.3906,753.2656 C1893.5313,753.4063 1893.7656,753.5156 1893.9844,753.5156 C1894.25,753.5156 1894.5156,753.375 1894.6875,753.1563 C1894.7969,753 1894.8281,752.8125 1894.8281,752.3906 L1894.8281,750.9688 C1894.8281,750.5313 1894.8125,750.4063 1894.7188,750.25 C1894.5625,749.9844 1894.2813,749.8438 1893.9844,749.8438 C1893.6875,749.8438 1893.4844,749.9375 1893.2656,750.25 L1893.0938,750.1719 Z " fill="#000000"/><text fill="#000000" font-family="sans-serif" font-size="12" lengthAdjust="spacing" textLength="76" x="1911.25" y="758.6543">CellTreasure</text><line style="stroke:#A80036;stroke-width:1.5;" x1="1779.5" x2="2086.5" y1="770.5" y2="770.5"/><text fill="#000000" font-family="sans-serif" font-size="11" lengthAdjust="spacing" textLength="142" x="1784.5" y="784.7104">private boolean treasure</text><line style="stroke:#A80036;stroke-width:1.5;" x1="1779.5" x2="2086.5" y1="791.3047" y2="791.3047"/><text fill="#000000" font-family="sans-serif" font-size="11" lengthAdjust="spacing" textLength="297" x="1784.5" y="805.5151">public CellTreasure(World world, int x, int y, int size)</text><text fill="#000000" font-family="sans-serif" font-size="11" lengthAdjust="spacing" textLength="155" x="1784.5" y="818.3198">public boolean isTreasure()</text><text fill="#000000" font-family="sans-serif" font-size="11" lengthAdjust="spacing" textLength="240" x="1784.5" y="831.1245">public void setTreasure(boolean treasure)</text><text fill="#000000" font-family="sans-serif" font-size="11" lengthAdjust="spacing" textLength="177" x="1784.5" y="843.9292">public boolean isTreasureCell()</text><!--MD5=[ead73416652826f9fe132029f85a92e8]
class gs--><rect codeLine="177" fill="#FEFECE" filter="url(#f1w0tcveabvgb5)" height="124.8281" id="gs" style="stroke:#A80036;stroke-width:1.5;" width="230" x="3739" y="732"/><ellipse cx="3810.75" cy="748" fill="#ADD1B2" rx="11" ry="11" style="stroke:#A80036;stroke-width:1.0;"/><path d="M3813.0938,743.6719 C3812.1563,743.2344 3811.5625,743.0938 3810.6875,743.0938 C3808.0625,743.0938 3806.0625,745.1719 3806.0625,747.8906 L3806.0625,749.0156 C3806.0625,751.5938 3808.1719,753.4844 3811.0625,753.4844 C3812.2813,753.4844 3813.4375,753.1875 3814.1875,752.6406 C3814.7656,752.2344 3815.0938,751.7813 3815.0938,751.3906 C3815.0938,750.9375 3814.7031,750.5469 3814.2344,750.5469 C3814.0156,750.5469 3813.8125,750.625 3813.625,750.8125 C3813.1719,751.2969 3813.1719,751.2969 3812.9844,751.3906 C3812.5625,751.6563 3811.875,751.7813 3811.1094,751.7813 C3809.0625,751.7813 3807.7656,750.6875 3807.7656,748.9844 L3807.7656,747.8906 C3807.7656,746.1094 3809.0156,744.7969 3810.75,744.7969 C3811.3281,744.7969 3811.9375,744.9531 3812.4063,745.2031 C3812.8906,745.4844 3813.0625,745.7031 3813.1563,746.1094 C3813.2188,746.5156 3813.25,746.6406 3813.3906,746.7656 C3813.5313,746.9063 3813.7656,747.0156 3813.9844,747.0156 C3814.25,747.0156 3814.5156,746.875 3814.6875,746.6563 C3814.7969,746.5 3814.8281,746.3125 3814.8281,745.8906 L3814.8281,744.4688 C3814.8281,744.0313 3814.8125,743.9063 3814.7188,743.75 C3814.5625,743.4844 3814.2813,743.3438 3813.9844,743.3438 C3813.6875,743.3438 3813.4844,743.4375 3813.2656,743.75 L3813.0938,743.6719 Z " fill="#000000"/><text fill="#000000" font-family="sans-serif" font-size="12" lengthAdjust="spacing" textLength="78" x="3831.25" y="752.1543">GameScreen</text><line style="stroke:#A80036;stroke-width:1.5;" x1="3740" x2="3968" y1="764" y2="764"/><text fill="#000000" font-family="sans-serif" font-size="11" lengthAdjust="spacing" textLength="208" x="3745" y="778.2104">private OrthographicCamera camera</text><text fill="#000000" font-family="sans-serif" font-size="11" lengthAdjust="spacing" textLength="178" x="3745" y="791.0151">private SpriteBatch spriteBatch</text><line style="stroke:#A80036;stroke-width:1.5;" x1="3740" x2="3968" y1="797.6094" y2="797.6094"/><text fill="#000000" font-family="sans-serif" font-size="11" lengthAdjust="spacing" textLength="197" x="3745" y="811.8198">GameScreen(Labyrinthe labyrinth)</text><text fill="#000000" font-family="sans-serif" font-size="11" lengthAdjust="spacing" textLength="169" x="3745" y="824.6245">public void render(float delta)</text><text fill="#000000" font-family="sans-serif" font-size="11" lengthAdjust="spacing" textLength="218" x="3745" y="837.4292">public void resize(int width, int height)</text><text fill="#000000" font-family="sans-serif" font-size="11" lengthAdjust="spacing" textLength="117" x="3745" y="850.2339">public void dispose()</text><!--MD5=[9b0b2fbeba1f784743fb1b1f2ae85e79]
class gos--><rect codeLine="187" fill="#FEFECE" filter="url(#f1w0tcveabvgb5)" height="124.8281" id="gos" style="stroke:#A80036;stroke-width:1.5;" width="230" x="3474" y="732"/><ellipse cx="3530.75" cy="748" fill="#ADD1B2" rx="11" ry="11" style="stroke:#A80036;stroke-width:1.0;"/><path d="M3533.0938,743.6719 C3532.1563,743.2344 3531.5625,743.0938 3530.6875,743.0938 C3528.0625,743.0938 3526.0625,745.1719 3526.0625,747.8906 L3526.0625,749.0156 C3526.0625,751.5938 3528.1719,753.4844 3531.0625,753.4844 C3532.2813,753.4844 3533.4375,753.1875 3534.1875,752.6406 C3534.7656,752.2344 3535.0938,751.7813 3535.0938,751.3906 C3535.0938,750.9375 3534.7031,750.5469 3534.2344,750.5469 C3534.0156,750.5469 3533.8125,750.625 3533.625,750.8125 C3533.1719,751.2969 3533.1719,751.2969 3532.9844,751.3906 C3532.5625,751.6563 3531.875,751.7813 3531.1094,751.7813 C3529.0625,751.7813 3527.7656,750.6875 3527.7656,748.9844 L3527.7656,747.8906 C3527.7656,746.1094 3529.0156,744.7969 3530.75,744.7969 C3531.3281,744.7969 3531.9375,744.9531 3532.4063,745.2031 C3532.8906,745.4844 3533.0625,745.7031 3533.1563,746.1094 C3533.2188,746.5156 3533.25,746.6406 3533.3906,746.7656 C3533.5313,746.9063 3533.7656,747.0156 3533.9844,747.0156 C3534.25,747.0156 3534.5156,746.875 3534.6875,746.6563 C3534.7969,746.5 3534.8281,746.3125 3534.8281,745.8906 L3534.8281,744.4688 C3534.8281,744.0313 3534.8125,743.9063 3534.7188,743.75 C3534.5625,743.4844 3534.2813,743.3438 3533.9844,743.3438 C3533.6875,743.3438 3533.4844,743.4375 3533.2656,743.75 L3533.0938,743.6719 Z " fill="#000000"/><text fill="#000000" font-family="sans-serif" font-size="12" lengthAdjust="spacing" textLength="108" x="3551.25" y="752.1543">GameOverScreen</text><line style="stroke:#A80036;stroke-width:1.5;" x1="3475" x2="3703" y1="764" y2="764"/><text fill="#000000" font-family="sans-serif" font-size="11" lengthAdjust="spacing" textLength="178" x="3480" y="778.2104">private SpriteBatch spriteBatch</text><text fill="#000000" font-family="sans-serif" font-size="11" lengthAdjust="spacing" textLength="208" x="3480" y="791.0151">private OrthographicCamera camera</text><line style="stroke:#A80036;stroke-width:1.5;" x1="3475" x2="3703" y1="797.6094" y2="797.6094"/><text fill="#000000" font-family="sans-serif" font-size="11" lengthAdjust="spacing" textLength="149" x="3480" y="811.8198">public GameOverScreen()</text><text fill="#000000" font-family="sans-serif" font-size="11" lengthAdjust="spacing" textLength="169" x="3480" y="824.6245">public void render(float delta)</text><text fill="#000000" font-family="sans-serif" font-size="11" lengthAdjust="spacing" textLength="218" x="3480" y="837.4292">public void resize(int width, int height)</text><text fill="#000000" font-family="sans-serif" font-size="11" lengthAdjust="spacing" textLength="117" x="3480" y="850.2339">public void dispose()</text><!--MD5=[cdde92398a52d7db504911c0fce5207a]
class ws--><rect codeLine="196" fill="#FEFECE" filter="url(#f1w0tcveabvgb5)" height="124.8281" id="ws" style="stroke:#A80036;stroke-width:1.5;" width="230" x="3209" y="732"/><ellipse cx="3287.25" cy="748" fill="#ADD1B2" rx="11" ry="11" style="stroke:#A80036;stroke-width:1.0;"/><path d="M3289.5938,743.6719 C3288.6563,743.2344 3288.0625,743.0938 3287.1875,743.0938 C3284.5625,743.0938 3282.5625,745.1719 3282.5625,747.8906 L3282.5625,749.0156 C3282.5625,751.5938 3284.6719,753.4844 3287.5625,753.4844 C3288.7813,753.4844 3289.9375,753.1875 3290.6875,752.6406 C3291.2656,752.2344 3291.5938,751.7813 3291.5938,751.3906 C3291.5938,750.9375 3291.2031,750.5469 3290.7344,750.5469 C3290.5156,750.5469 3290.3125,750.625 3290.125,750.8125 C3289.6719,751.2969 3289.6719,751.2969 3289.4844,751.3906 C3289.0625,751.6563 3288.375,751.7813 3287.6094,751.7813 C3285.5625,751.7813 3284.2656,750.6875 3284.2656,748.9844 L3284.2656,747.8906 C3284.2656,746.1094 3285.5156,744.7969 3287.25,744.7969 C3287.8281,744.7969 3288.4375,744.9531 3288.9063,745.2031 C3289.3906,745.4844 3289.5625,745.7031 3289.6563,746.1094 C3289.7188,746.5156 3289.75,746.6406 3289.8906,746.7656 C3290.0313,746.9063 3290.2656,747.0156 3290.4844,747.0156 C3290.75,747.0156 3291.0156,746.875 3291.1875,746.6563 C3291.2969,746.5 3291.3281,746.3125 3291.3281,745.8906 L3291.3281,744.4688 C3291.3281,744.0313 3291.3125,743.9063 3291.2188,743.75 C3291.0625,743.4844 3290.7813,743.3438 3290.4844,743.3438 C3290.1875,743.3438 3289.9844,743.4375 3289.7656,743.75 L3289.5938,743.6719 Z " fill="#000000"/><text fill="#000000" font-family="sans-serif" font-size="12" lengthAdjust="spacing" textLength="65" x="3307.75" y="752.1543">WinScreen</text><line style="stroke:#A80036;stroke-width:1.5;" x1="3210" x2="3438" y1="764" y2="764"/><text fill="#000000" font-family="sans-serif" font-size="11" lengthAdjust="spacing" textLength="178" x="3215" y="778.2104">private SpriteBatch spriteBatch</text><text fill="#000000" font-family="sans-serif" font-size="11" lengthAdjust="spacing" textLength="208" x="3215" y="791.0151">private OrthographicCamera camera</text><line style="stroke:#A80036;stroke-width:1.5;" x1="3210" x2="3438" y1="797.6094" y2="797.6094"/><text fill="#000000" font-family="sans-serif" font-size="11" lengthAdjust="spacing" textLength="149" x="3215" y="811.8198">public GameOverScreen()</text><text fill="#000000" font-family="sans-serif" font-size="11" lengthAdjust="spacing" textLength="169" x="3215" y="824.6245">public void render(float delta)</text><text fill="#000000" font-family="sans-serif" font-size="11" lengthAdjust="spacing" textLength="218" x="3215" y="837.4292">public void resize(int width, int height)</text><text fill="#000000" font-family="sans-serif" font-size="11" lengthAdjust="spacing" textLength="117" x="3215" y="850.2339">public void dispose()</text><!--MD5=[0ba94c7f1574f474e13f6b7da3e0d95b]
class kb--><rect codeLine="210" fill="#FEFECE" filter="url(#f1w0tcveabvgb5)" height="137.6328" id="kb" style="stroke:#A80036;stroke-width:1.5;" width="432" x="3342" y="932"/><ellipse cx="3524.25" cy="948" fill="#ADD1B2" rx="11" ry="11" style="stroke:#A80036;stroke-width:1.0;"/><path d="M3526.5938,943.6719 C3525.6563,943.2344 3525.0625,943.0938 3524.1875,943.0938 C3521.5625,943.0938 3519.5625,945.1719 3519.5625,947.8906 L3519.5625,949.0156 C3519.5625,951.5938 3521.6719,953.4844 3524.5625,953.4844 C3525.7813,953.4844 3526.9375,953.1875 3527.6875,952.6406 C3528.2656,952.2344 3528.5938,951.7813 3528.5938,951.3906 C3528.5938,950.9375 3528.2031,950.5469 3527.7344,950.5469 C3527.5156,950.5469 3527.3125,950.625 3527.125,950.8125 C3526.6719,951.2969 3526.6719,951.2969 3526.4844,951.3906 C3526.0625,951.6563 3525.375,951.7813 3524.6094,951.7813 C3522.5625,951.7813 3521.2656,950.6875 3521.2656,948.9844 L3521.2656,947.8906 C3521.2656,946.1094 3522.5156,944.7969 3524.25,944.7969 C3524.8281,944.7969 3525.4375,944.9531 3525.9063,945.2031 C3526.3906,945.4844 3526.5625,945.7031 3526.6563,946.1094 C3526.7188,946.5156 3526.75,946.6406 3526.8906,946.7656 C3527.0313,946.9063 3527.2656,947.0156 3527.4844,947.0156 C3527.75,947.0156 3528.0156,946.875 3528.1875,946.6563 C3528.2969,946.5 3528.3281,946.3125 3528.3281,945.8906 L3528.3281,944.4688 C3528.3281,944.0313 3528.3125,943.9063 3528.2188,943.75 C3528.0625,943.4844 3527.7813,943.3438 3527.4844,943.3438 C3527.1875,943.3438 3526.9844,943.4375 3526.7656,943.75 L3526.5938,943.6719 Z " fill="#000000"/><text fill="#000000" font-family="sans-serif" font-size="12" lengthAdjust="spacing" textLength="59" x="3544.75" y="952.1543">Keyboard</text><line style="stroke:#A80036;stroke-width:1.5;" x1="3343" x2="3773" y1="964" y2="964"/><text fill="#000000" font-family="sans-serif" font-size="11" lengthAdjust="spacing" textLength="111" x="3348" y="978.2104">private Vector2 acc</text><text fill="#000000" font-family="sans-serif" font-size="11" lengthAdjust="spacing" textLength="91" x="3348" y="991.0151">private int coeff</text><text fill="#000000" font-family="sans-serif" font-size="11" lengthAdjust="spacing" textLength="131" x="3348" y="1003.8198">private Boolean debug</text><line style="stroke:#A80036;stroke-width:1.5;" x1="3343" x2="3773" y1="1010.4141" y2="1010.4141"/><text fill="#000000" font-family="sans-serif" font-size="11" lengthAdjust="spacing" textLength="212" x="3348" y="1024.6245">public Keyboard(Labyrinth labyrinthe)</text><text fill="#000000" font-family="sans-serif" font-size="11" lengthAdjust="spacing" textLength="218" x="3348" y="1037.4292">public boolean KeyDown(int keyCode)</text><text fill="#000000" font-family="sans-serif" font-size="11" lengthAdjust="spacing" textLength="199" x="3348" y="1050.2339">public boolean KeyUp(int keycode)</text><text fill="#000000" font-family="sans-serif" font-size="11" lengthAdjust="spacing" textLength="420" x="3348" y="1063.0386">public boolean touchDown(int screenX, int screenY, int pointer, int button)</text><!--MD5=[1b181a3347da2b73896c49ae2cdc57fa]
class FactoryTexture--><rect codeLine="227" fill="#FEFECE" filter="url(#f1w0tcveabvgb5)" height="124.8281" id="FactoryTexture" style="stroke:#A80036;stroke-width:1.5;" width="228" x="4628" y="41"/><ellipse cx="4692.25" cy="57" fill="#ADD1B2" rx="11" ry="11" style="stroke:#A80036;stroke-width:1.0;"/><path d="M4694.5938,52.6719 C4693.6563,52.2344 4693.0625,52.0938 4692.1875,52.0938 C4689.5625,52.0938 4687.5625,54.1719 4687.5625,56.8906 L4687.5625,58.0156 C4687.5625,60.5938 4689.6719,62.4844 4692.5625,62.4844 C4693.7813,62.4844 4694.9375,62.1875 4695.6875,61.6406 C4696.2656,61.2344 4696.5938,60.7813 4696.5938,60.3906 C4696.5938,59.9375 4696.2031,59.5469 4695.7344,59.5469 C4695.5156,59.5469 4695.3125,59.625 4695.125,59.8125 C4694.6719,60.2969 4694.6719,60.2969 4694.4844,60.3906 C4694.0625,60.6563 4693.375,60.7813 4692.6094,60.7813 C4690.5625,60.7813 4689.2656,59.6875 4689.2656,57.9844 L4689.2656,56.8906 C4689.2656,55.1094 4690.5156,53.7969 4692.25,53.7969 C4692.8281,53.7969 4693.4375,53.9531 4693.9063,54.2031 C4694.3906,54.4844 4694.5625,54.7031 4694.6563,55.1094 C4694.7188,55.5156 4694.75,55.6406 4694.8906,55.7656 C4695.0313,55.9063 4695.2656,56.0156 4695.4844,56.0156 C4695.75,56.0156 4696.0156,55.875 4696.1875,55.6563 C4696.2969,55.5 4696.3281,55.3125 4696.3281,54.8906 L4696.3281,53.4688 C4696.3281,53.0313 4696.3125,52.9063 4696.2188,52.75 C4696.0625,52.4844 4695.7813,52.3438 4695.4844,52.3438 C4695.1875,52.3438 4694.9844,52.4375 4694.7656,52.75 L4694.5938,52.6719 Z " fill="#000000"/><text fill="#000000" font-family="sans-serif" font-size="12" lengthAdjust="spacing" textLength="91" x="4712.75" y="61.1543">FactoryTexture</text><line style="stroke:#A80036;stroke-width:1.5;" x1="4629" x2="4855" y1="73" y2="73"/><text fill="#000000" font-family="sans-serif" font-size="11" lengthAdjust="spacing" textLength="163" x="4634" y="87.2104">private Texture mapTexture</text><text fill="#000000" font-family="sans-serif" font-size="11" lengthAdjust="spacing" textLength="174" x="4634" y="100.0151">private Texture playerTexture</text><text fill="#000000" font-family="sans-serif" font-size="11" lengthAdjust="spacing" textLength="160" x="4634" y="112.8198">private Texture wallTexture</text><text fill="#000000" font-family="sans-serif" font-size="11" lengthAdjust="spacing" textLength="192" x="4634" y="125.6245">private Texture monsterTexture1</text><text fill="#000000" font-family="sans-serif" font-size="11" lengthAdjust="spacing" textLength="192" x="4634" y="138.4292">private Texture monsterTexture2</text><text fill="#000000" font-family="sans-serif" font-size="11" lengthAdjust="spacing" textLength="216" x="4634" y="151.2339">private static TextureFactory instance</text><line style="stroke:#A80036;stroke-width:1.5;" x1="4629" x2="4855" y1="157.8281" y2="157.8281"/><!--MD5=[ebbadf164b8736cdfc4e16f5617d90d9]
class SoundFactory--><rect codeLine="237" fill="#FEFECE" filter="url(#f1w0tcveabvgb5)" height="73.6094" id="SoundFactory" style="stroke:#A80036;stroke-width:1.5;" width="219" x="4355.5" y="66.5"/><ellipse cx="4419.25" cy="82.5" fill="#ADD1B2" rx="11" ry="11" style="stroke:#A80036;stroke-width:1.0;"/><path d="M4421.5938,78.1719 C4420.6563,77.7344 4420.0625,77.5938 4419.1875,77.5938 C4416.5625,77.5938 4414.5625,79.6719 4414.5625,82.3906 L4414.5625,83.5156 C4414.5625,86.0938 4416.6719,87.9844 4419.5625,87.9844 C4420.7813,87.9844 4421.9375,87.6875 4422.6875,87.1406 C4423.2656,86.7344 4423.5938,86.2813 4423.5938,85.8906 C4423.5938,85.4375 4423.2031,85.0469 4422.7344,85.0469 C4422.5156,85.0469 4422.3125,85.125 4422.125,85.3125 C4421.6719,85.7969 4421.6719,85.7969 4421.4844,85.8906 C4421.0625,86.1563 4420.375,86.2813 4419.6094,86.2813 C4417.5625,86.2813 4416.2656,85.1875 4416.2656,83.4844 L4416.2656,82.3906 C4416.2656,80.6094 4417.5156,79.2969 4419.25,79.2969 C4419.8281,79.2969 4420.4375,79.4531 4420.9063,79.7031 C4421.3906,79.9844 4421.5625,80.2031 4421.6563,80.6094 C4421.7188,81.0156 4421.75,81.1406 4421.8906,81.2656 C4422.0313,81.4063 4422.2656,81.5156 4422.4844,81.5156 C4422.75,81.5156 4423.0156,81.375 4423.1875,81.1563 C4423.2969,81 4423.3281,80.8125 4423.3281,80.3906 L4423.3281,78.9688 C4423.3281,78.5313 4423.3125,78.4063 4423.2188,78.25 C4423.0625,77.9844 4422.7813,77.8438 4422.4844,77.8438 C4422.1875,77.8438 4421.9844,77.9375 4421.7656,78.25 L4421.5938,78.1719 Z " fill="#000000"/><text fill="#000000" font-family="sans-serif" font-size="12" lengthAdjust="spacing" textLength="83" x="4439.75" y="86.6543">SoundFactory</text><line style="stroke:#A80036;stroke-width:1.5;" x1="4356.5" x2="4573.5" y1="98.5" y2="98.5"/><text fill="#000000" font-family="sans-serif" font-size="11" lengthAdjust="spacing" textLength="175" x="4361.5" y="112.7104">private Music backgroundMusic</text><text fill="#000000" font-family="sans-serif" font-size="11" lengthAdjust="spacing" textLength="207" x="4361.5" y="125.5151">private static SoundFactory instance</text><line style="stroke:#A80036;stroke-width:1.5;" x1="4356.5" x2="4573.5" y1="132.1094" y2="132.1094"/><!--MD5=[4f690aa9c8cbc9d2fcd8ae473aedfe2c]
class Constante--><rect codeLine="243" fill="#FEFECE" filter="url(#f1w0tcveabvgb5)" height="112.0234" id="Constante" style="stroke:#A80036;stroke-width:1.5;" width="335" x="3985.5" y="47.5"/><ellipse cx="4118.75" cy="63.5" fill="#ADD1B2" rx="11" ry="11" style="stroke:#A80036;stroke-width:1.0;"/><path d="M4121.0938,59.1719 C4120.1563,58.7344 4119.5625,58.5938 4118.6875,58.5938 C4116.0625,58.5938 4114.0625,60.6719 4114.0625,63.3906 L4114.0625,64.5156 C4114.0625,67.0938 4116.1719,68.9844 4119.0625,68.9844 C4120.2813,68.9844 4121.4375,68.6875 4122.1875,68.1406 C4122.7656,67.7344 4123.0938,67.2813 4123.0938,66.8906 C4123.0938,66.4375 4122.7031,66.0469 4122.2344,66.0469 C4122.0156,66.0469 4121.8125,66.125 4121.625,66.3125 C4121.1719,66.7969 4121.1719,66.7969 4120.9844,66.8906 C4120.5625,67.1563 4119.875,67.2813 4119.1094,67.2813 C4117.0625,67.2813 4115.7656,66.1875 4115.7656,64.4844 L4115.7656,63.3906 C4115.7656,61.6094 4117.0156,60.2969 4118.75,60.2969 C4119.3281,60.2969 4119.9375,60.4531 4120.4063,60.7031 C4120.8906,60.9844 4121.0625,61.2031 4121.1563,61.6094 C4121.2188,62.0156 4121.25,62.1406 4121.3906,62.2656 C4121.5313,62.4063 4121.7656,62.5156 4121.9844,62.5156 C4122.25,62.5156 4122.5156,62.375 4122.6875,62.1563 C4122.7969,62 4122.8281,61.8125 4122.8281,61.3906 L4122.8281,59.9688 C4122.8281,59.5313 4122.8125,59.4063 4122.7188,59.25 C4122.5625,58.9844 4122.2813,58.8438 4121.9844,58.8438 C4121.6875,58.8438 4121.4844,58.9375 4121.2656,59.25 L4121.0938,59.1719 Z " fill="#000000"/><text fill="#000000" font-family="sans-serif" font-size="12" lengthAdjust="spacing" textLength="60" x="4139.25" y="67.6543">Constante</text><line style="stroke:#A80036;stroke-width:1.5;" x1="3986.5" x2="4319.5" y1="79.5" y2="79.5"/><text fill="#000000" font-family="sans-serif" font-size="11" lengthAdjust="spacing" textLength="292" x="3991.5" y="93.7104">public static final short CATEGORY_WALL = 0x0001;</text><text fill="#000000" font-family="sans-serif" font-size="11" lengthAdjust="spacing" textLength="302" x="3991.5" y="106.5151">public static final short CATEGORY_PLAYER = 0x0002;</text><text fill="#000000" font-family="sans-serif" font-size="11" lengthAdjust="spacing" textLength="323" x="3991.5" y="119.3198">public static final short CATEGORY_MONSTER1 = 0x0004;</text><text fill="#000000" font-family="sans-serif" font-size="11" lengthAdjust="spacing" textLength="323" x="3991.5" y="132.1245">public static final short CATEGORY_MONSTER2 = 0x0008;</text><text fill="#000000" font-family="sans-serif" font-size="11" lengthAdjust="spacing" textLength="310" x="3991.5" y="144.9292">public static final short CATEGORY_POTION = 0x00016;</text><line style="stroke:#A80036;stroke-width:1.5;" x1="3986.5" x2="4319.5" y1="151.5234" y2="151.5234"/><!--MD5=[877124a1642becb84b65628d35815720]
class ScreenAdapter--><rect codeLine="257" fill="#FEFECE" filter="url(#f1w0tcveabvgb5)" height="48" id="ScreenAdapter" style="stroke:#A80036;stroke-width:1.5;" width="123" x="3830.5" y="977"/><ellipse cx="3845.5" cy="993" fill="#ADD1B2" rx="11" ry="11" style="stroke:#A80036;stroke-width:1.0;"/><path d="M3847.8438,988.6719 C3846.9063,988.2344 3846.3125,988.0938 3845.4375,988.0938 C3842.8125,988.0938 3840.8125,990.1719 3840.8125,992.8906 L3840.8125,994.0156 C3840.8125,996.5938 3842.9219,998.4844 3845.8125,998.4844 C3847.0313,998.4844 3848.1875,998.1875 3848.9375,997.6406 C3849.5156,997.2344 3849.8438,996.7813 3849.8438,996.3906 C3849.8438,995.9375 3849.4531,995.5469 3848.9844,995.5469 C3848.7656,995.5469 3848.5625,995.625 3848.375,995.8125 C3847.9219,996.2969 3847.9219,996.2969 3847.7344,996.3906 C3847.3125,996.6563 3846.625,996.7813 3845.8594,996.7813 C3843.8125,996.7813 3842.5156,995.6875 3842.5156,993.9844 L3842.5156,992.8906 C3842.5156,991.1094 3843.7656,989.7969 3845.5,989.7969 C3846.0781,989.7969 3846.6875,989.9531 3847.1563,990.2031 C3847.6406,990.4844 3847.8125,990.7031 3847.9063,991.1094 C3847.9688,991.5156 3848,991.6406 3848.1406,991.7656 C3848.2813,991.9063 3848.5156,992.0156 3848.7344,992.0156 C3849,992.0156 3849.2656,991.875 3849.4375,991.6563 C3849.5469,991.5 3849.5781,991.3125 3849.5781,990.8906 L3849.5781,989.4688 C3849.5781,989.0313 3849.5625,988.9063 3849.4688,988.75 C3849.3125,988.4844 3849.0313,988.3438 3848.7344,988.3438 C3848.4375,988.3438 3848.2344,988.4375 3848.0156,988.75 L3847.8438,988.6719 Z " fill="#000000"/><text fill="#000000" font-family="sans-serif" font-size="12" lengthAdjust="spacing" textLength="91" x="3859.5" y="997.1543">ScreenAdapter</text><line style="stroke:#A80036;stroke-width:1.5;" x1="3831.5" x2="3952.5" y1="1009" y2="1009"/><line style="stroke:#A80036;stroke-width:1.5;" x1="3831.5" x2="3952.5" y1="1017" y2="1017"/><!--MD5=[b6dcce5e5ef3c84b0b048d11301373dd]
class Game--><rect codeLine="258" fill="#FEFECE" filter="url(#f1w0tcveabvgb5)" height="48" id="Game" style="stroke:#A80036;stroke-width:1.5;" width="67" x="3988.5" y="977"/><ellipse cx="4003.5" cy="993" fill="#ADD1B2" rx="11" ry="11" style="stroke:#A80036;stroke-width:1.0;"/><path d="M4005.8438,988.6719 C4004.9063,988.2344 4004.3125,988.0938 4003.4375,988.0938 C4000.8125,988.0938 3998.8125,990.1719 3998.8125,992.8906 L3998.8125,994.0156 C3998.8125,996.5938 4000.9219,998.4844 4003.8125,998.4844 C4005.0313,998.4844 4006.1875,998.1875 4006.9375,997.6406 C4007.5156,997.2344 4007.8438,996.7813 4007.8438,996.3906 C4007.8438,995.9375 4007.4531,995.5469 4006.9844,995.5469 C4006.7656,995.5469 4006.5625,995.625 4006.375,995.8125 C4005.9219,996.2969 4005.9219,996.2969 4005.7344,996.3906 C4005.3125,996.6563 4004.625,996.7813 4003.8594,996.7813 C4001.8125,996.7813 4000.5156,995.6875 4000.5156,993.9844 L4000.5156,992.8906 C4000.5156,991.1094 4001.7656,989.7969 4003.5,989.7969 C4004.0781,989.7969 4004.6875,989.9531 4005.1563,990.2031 C4005.6406,990.4844 4005.8125,990.7031 4005.9063,991.1094 C4005.9688,991.5156 4006,991.6406 4006.1406,991.7656 C4006.2813,991.9063 4006.5156,992.0156 4006.7344,992.0156 C4007,992.0156 4007.2656,991.875 4007.4375,991.6563 C4007.5469,991.5 4007.5781,991.3125 4007.5781,990.8906 L4007.5781,989.4688 C4007.5781,989.0313 4007.5625,988.9063 4007.4688,988.75 C4007.3125,988.4844 4007.0313,988.3438 4006.7344,988.3438 C4006.4375,988.3438 4006.2344,988.4375 4006.0156,988.75 L4005.8438,988.6719 Z " fill="#000000"/><text fill="#000000" font-family="sans-serif" font-size="12" lengthAdjust="spacing" textLength="35" x="4017.5" y="997.1543">Game</text><line style="stroke:#A80036;stroke-width:1.5;" x1="3989.5" x2="4054.5" y1="1009" y2="1009"/><line style="stroke:#A80036;stroke-width:1.5;" x1="3989.5" x2="4054.5" y1="1017" y2="1017"/><!--MD5=[1c44201a84307e68bbc50e05181386cc]
class g--><rect codeLine="165" fill="#FEFECE" filter="url(#f1w0tcveabvgb5)" height="99.2188" id="g" style="stroke:#A80036;stroke-width:1.5;" width="193" x="3757.5" y="54"/><ellipse cx="3832.25" cy="70" fill="#ADD1B2" rx="11" ry="11" style="stroke:#A80036;stroke-width:1.0;"/><path d="M3834.5938,65.6719 C3833.6563,65.2344 3833.0625,65.0938 3832.1875,65.0938 C3829.5625,65.0938 3827.5625,67.1719 3827.5625,69.8906 L3827.5625,71.0156 C3827.5625,73.5938 3829.6719,75.4844 3832.5625,75.4844 C3833.7813,75.4844 3834.9375,75.1875 3835.6875,74.6406 C3836.2656,74.2344 3836.5938,73.7813 3836.5938,73.3906 C3836.5938,72.9375 3836.2031,72.5469 3835.7344,72.5469 C3835.5156,72.5469 3835.3125,72.625 3835.125,72.8125 C3834.6719,73.2969 3834.6719,73.2969 3834.4844,73.3906 C3834.0625,73.6563 3833.375,73.7813 3832.6094,73.7813 C3830.5625,73.7813 3829.2656,72.6875 3829.2656,70.9844 L3829.2656,69.8906 C3829.2656,68.1094 3830.5156,66.7969 3832.25,66.7969 C3832.8281,66.7969 3833.4375,66.9531 3833.9063,67.2031 C3834.3906,67.4844 3834.5625,67.7031 3834.6563,68.1094 C3834.7188,68.5156 3834.75,68.6406 3834.8906,68.7656 C3835.0313,68.9063 3835.2656,69.0156 3835.4844,69.0156 C3835.75,69.0156 3836.0156,68.875 3836.1875,68.6563 C3836.2969,68.5 3836.3281,68.3125 3836.3281,67.8906 L3836.3281,66.4688 C3836.3281,66.0313 3836.3125,65.9063 3836.2188,65.75 C3836.0625,65.4844 3835.7813,65.3438 3835.4844,65.3438 C3835.1875,65.3438 3834.9844,65.4375 3834.7656,65.75 L3834.5938,65.6719 Z " fill="#000000"/><text fill="#000000" font-family="sans-serif" font-size="12" lengthAdjust="spacing" textLength="35" x="3852.75" y="74.1543">Game</text><line style="stroke:#A80036;stroke-width:1.5;" x1="3758.5" x2="3949.5" y1="86" y2="86"/><line style="stroke:#A80036;stroke-width:1.5;" x1="3758.5" x2="3949.5" y1="94" y2="94"/><text fill="#000000" font-family="sans-serif" font-size="11" lengthAdjust="spacing" textLength="73" x="3763.5" y="108.2104">void create()</text><text fill="#000000" font-family="sans-serif" font-size="11" lengthAdjust="spacing" textLength="74" x="3763.5" y="121.0151">void render()</text><text fill="#000000" font-family="sans-serif" font-size="11" lengthAdjust="spacing" textLength="181" x="3763.5" y="133.8198">void resize(int width, int height)</text><text fill="#000000" font-family="sans-serif" font-size="11" lengthAdjust="spacing" textLength="80" x="3763.5" y="146.6245">void dispose()</text><!--MD5=[7f216751cffc336d44dffe79673c0129]
link WallLimit to w--><path codeLine="261" d="M2634,522.635 C2634,566.137 2634,648.899 2634,711.542 " fill="none" id="WallLimit-to-w" style="stroke:#A80036;stroke-width:1.0;"/><polygon fill="none" points="2641,711.929,2634,731.929,2627,711.929,2641,711.929" style="stroke:#A80036;stroke-width:1.0;"/><!--MD5=[33097679340d26baf0334913e3d5b85d]
link WallObstacle to w--><path codeLine="262" d="M2947.98,522.561 C2915.8,561.255 2855.87,630.124 2797,681 C2781.42,694.459 2764.22,707.776 2747,720.281 " fill="none" id="WallObstacle-to-w" style="stroke:#A80036;stroke-width:1.0;"/><polygon fill="none" points="2750.89,726.104,2730.54,731.999,2742.77,714.698,2750.89,726.104" style="stroke:#A80036;stroke-width:1.0;"/><!--MD5=[3bba302c9d928eb0ad7173beeeb15b1f]
link Monster1 to m--><path codeLine="263" d="M646.771,548.171 C682.618,587.278 733.509,639.892 783,681 C802.097,696.862 823.45,712.581 844.338,727.016 " fill="none" id="Monster1-to-m" style="stroke:#A80036;stroke-width:1.0;"/><polygon fill="none" points="848.329,721.265,860.938,738.295,840.461,732.845,848.329,721.265" style="stroke:#A80036;stroke-width:1.0;"/><!--MD5=[045b0424dbba6b54bb1d4bd07da5ed91]
link Monster2 to m--><path codeLine="264" d="M246.811,522.765 C278.024,564.999 341.136,641.558 414,681 C521.34,739.103 655.804,767.223 763.2,780.82 " fill="none" id="Monster2-to-m" style="stroke:#A80036;stroke-width:1.0;"/><polygon fill="none" points="764.247,773.895,783.269,783.233,762.576,787.795,764.247,773.895" style="stroke:#A80036;stroke-width:1.0;"/><!--MD5=[5d0f996902ab3d47e0e2b7fb64191c67]
link l to ce--><path codeLine="265" d="M2403.68,599.16 C2451.31,682.123 2494.47,797.056 2436,881 C2391.55,944.82 2308.74,974.497 2238.23,988.256 " fill="none" id="l-ce" style="stroke:#A80036;stroke-width:1.0;"/><text fill="#000000" font-family="sans-serif" font-size="13" lengthAdjust="spacing" textLength="8" x="2246.044" y="984.1045">1</text><!--MD5=[f8dd096886f6a3762578ee5e03f9dfdd]
link CellTreasure to ce--><path codeLine="266" d="M1981.74,850.571 C1999.69,870.852 2020.45,894.305 2040.12,916.532 " fill="none" id="CellTreasure-to-ce" style="stroke:#A80036;stroke-width:1.0;"/><polygon fill="none" points="2045.51,912.054,2053.52,931.67,2035.02,921.333,2045.51,912.054" style="stroke:#A80036;stroke-width:1.0;"/><!--MD5=[cfb4035d3e0ca15f833748a041b1a227]
link l to CellTrap--><path codeLine="267" d="M2309.12,599.368 C2298.84,651.707 2287.03,711.834 2279.32,751.131 " fill="none" id="l-CellTrap" style="stroke:#A80036;stroke-width:1.0;"/><text fill="#000000" font-family="sans-serif" font-size="13" lengthAdjust="spacing" textLength="7" x="2273.0581" y="740.387">*</text><!--MD5=[06671228e53804cdb665ae98d238d954]
link gs to ScreenAdapter--><path codeLine="268" d="M3865.45,857.134 C3871.43,889.279 3878.59,927.818 3883.97,956.764 " fill="none" id="gs-to-ScreenAdapter" style="stroke:#A80036;stroke-width:1.0;"/><polygon fill="none" points="3890.91,955.822,3887.68,976.764,3877.15,958.379,3890.91,955.822" style="stroke:#A80036;stroke-width:1.0;"/><!--MD5=[1dd917cd8d771d789d672d998e61bc56]
link g to gs--><path codeLine="269" d="M3854,153.224 C3854,275.744 3854,596.515 3854,731.85 " fill="none" id="g-gs" style="stroke:#A80036;stroke-width:1.0;"/><text fill="#000000" font-family="sans-serif" font-size="13" lengthAdjust="spacing" textLength="8" x="3845.5375" y="720.8234">1</text><!--MD5=[701e08a0931028500cde217463eceb3a]
link l to gs--><path codeLine="270" d="M2384.91,599.39 C2407.27,631.579 2436.36,663.111 2472,681 C2503.01,696.563 3688.25,677.554 3721,689 C3747.06,698.106 3771.91,714.614 3792.93,731.861 " fill="none" id="l-gs" style="stroke:#A80036;stroke-width:1.0;"/><text fill="#000000" font-family="sans-serif" font-size="13" lengthAdjust="spacing" textLength="8" x="2380.4896" y="619.5236">1</text><!--MD5=[979796c559b7d3019a4281ad07339a6c]
link l to w--><path codeLine="271" d="M2392.22,599.024 C2414.17,629.052 2441.18,659.406 2472,681 C2481.9,687.938 2487.26,683.451 2498,689 C2520.62,700.685 2543.3,716.221 2563.48,731.733 " fill="none" id="l-w" style="stroke:#A80036;stroke-width:1.0;"/><text fill="#000000" font-family="sans-serif" font-size="13" lengthAdjust="spacing" textLength="7" x="2548.3841" y="721.1311">*</text><!--MD5=[e8d6be7f373513b2faccc6358d12b366]
link l to p--><path codeLine="272" d="M2206.82,523.366 C2088.54,555.286 1906.95,611.648 1762,689 C1736.41,702.654 1710.51,720.862 1688.16,738.252 " fill="none" id="l-p" style="stroke:#A80036;stroke-width:1.0;"/><text fill="#000000" font-family="sans-serif" font-size="13" lengthAdjust="spacing" textLength="8" x="1687.492" y="727.5563">1</text><!--MD5=[dd8c20f5519ea3770b30bc787350ac39]
link p to e--><path codeLine="273" d="M1537.84,850.649 C1521.67,860.834 1504.86,871.309 1489,881 C1460.88,898.179 1430.35,916.392 1401.74,933.268 " fill="none" id="p-to-e" style="stroke:#A80036;stroke-width:1.0;"/><polygon fill="none" points="1405,939.471,1384.22,943.581,1397.9,927.405,1405,939.471" style="stroke:#A80036;stroke-width:1.0;"/><!--MD5=[2b6ff9488f941b0674d538207cf971fa]
link m to e--><path codeLine="274" d="M1040.75,850.571 C1081.37,875.216 1129.7,904.544 1172.74,930.664 " fill="none" id="m-to-e" style="stroke:#A80036;stroke-width:1.0;"/><polygon fill="none" points="1176.42,924.707,1189.88,941.067,1169.15,936.676,1176.42,924.707" style="stroke:#A80036;stroke-width:1.0;"/><!--MD5=[00d532bbcb26f823d133068dced2afca]
link l to m--><path codeLine="275" d="M2207,527.515 C2040.39,572.466 1733,649.065 1465,681 C1426.93,685.537 1156.77,678.139 1120,689 C1084.95,699.352 1049.91,718.92 1020.84,738.349 " fill="none" id="l-m" style="stroke:#A80036;stroke-width:1.0;"/><text fill="#000000" font-family="sans-serif" font-size="13" lengthAdjust="spacing" textLength="7" x="1022.4679" y="727.2676">*</text><!--MD5=[9aaf6c87ae604cb2f1db2c8fe79244db]
link g to l--><path codeLine="276" d="M3757.29,105.49 C3460.75,109.28 2577.94,126.527 2472,198 C2408.86,240.601 2372.84,319.534 2352.89,384.748 " fill="none" id="g-l" style="stroke:#A80036;stroke-width:1.0;stroke-dasharray:7.0,7.0;"/><text fill="#000000" font-family="sans-serif" font-size="13" lengthAdjust="spacing" textLength="8" x="2346.1592" y="374.094">1</text><!--MD5=[e4ae1d78223a87d74e799979014d002a]
link gs to kb--><path codeLine="277" d="M3764.79,857.134 C3730.66,880.714 3691.55,907.735 3656.59,931.885 " fill="none" id="gs-kb" style="stroke:#A80036;stroke-width:1.0;"/><text fill="#000000" font-family="sans-serif" font-size="13" lengthAdjust="spacing" textLength="8" x="3658.3446" y="921.0768">1</text><!--MD5=[dee5e965d540261af34878738c571cd9]
link g to Game--><path codeLine="278" d="M3868.19,153.364 C3872.19,167.7 3876.42,183.438 3880,198 C3933.25,414.71 3948.45,468.858 3985,689 C4000.79,784.097 4012.46,896.636 4018.14,956.849 " fill="none" id="g-to-Game" style="stroke:#A80036;stroke-width:1.0;"/><polygon fill="none" points="4025.12,956.319,4019.99,976.878,4011.18,957.606,4025.12,956.319" style="stroke:#A80036;stroke-width:1.0;"/><!--MD5=[20b1412d73c4c446a71bcd181590bf03]
link FactoryTexture to FactoryTexture--><path codeLine="279" d="M4798.57,40.98 C4844.05,15.97 4891,36.81 4891,103.5 C4891,170.188 4844.05,191.027 4798.57,166.02 " fill="none" id="FactoryTexture-FactoryTexture" style="stroke:#A80036;stroke-width:1.0;"/><text fill="#000000" font-family="sans-serif" font-size="13" lengthAdjust="spacing" textLength="8" x="4796.3198" y="185.762">1</text><!--MD5=[ebc9536d056e7bade3b051e1dbbe9623]
link SoundFactory to SoundFactory--><path codeLine="280" d="M4489.51,66.32 C4539.96,8.69 4609.5,21.09 4609.5,103.5 C4609.5,185.912 4539.96,198.306 4489.51,140.682 " fill="none" id="SoundFactory-SoundFactory" style="stroke:#A80036;stroke-width:1.0;"/><text fill="#000000" font-family="sans-serif" font-size="13" lengthAdjust="spacing" textLength="8" x="4484.907" y="160.1927">1</text><!--MD5=[744cf46fbec20464644264407a0762f5]
@startuml
package "model"{ 
abstract class "Entity" as e{
	int posX
    int posY
  	int hp
    int attackPoints
   	int size 
    Body body 
    void applyForce(Vector2 vector)

}

class "Player" as p{

	Player(World world, int x, int y, int size )
}
package "monster"{
abstract class "Monster" as m{

    private int[] goal
    protected PolygonShape shape
    private boolean finishedMoving ;
  	Monster(World world, int x, int y, int hp, int size, int ratio)
   	public boolean isMonster1()
}
class "Monster1"{

    private int[] goal
    protected PolygonShape shape
    private boolean finishedMoving = true;
  	Monster(World world, int x, int y, int hp, int size, int ratio)
    public boolean isMonster1()
}

class "Monster2"{
  Monster2(World world, int x, int y, int hp, int size, int ratio)
  
  
}
  
package "pathfinding"{
  class "AStar"{
    private int [][] map
    AStar(int[][] map)
    public int[] getNextMove(int[] start, int[] target)
    public int getPathLength(int[] start, int[] target)
    private Node nextStep(Node target)
    private Node aStar(Node start, Node target)
    private ArrayList<Node> getSuccessors(Node n)
    
  }
  
  class "Node"{
    private Node parent
    private int totalPathWeight
    private int weightToGetHere
    private int heuristic
    private int x
    private int y
    public Node(int heuristic, int x, int y)
    public Node getParent()
    public void setParent(Node parent)
    public int getTotalPathWeight()
    public void setTotalPathWeight(int totalPathWeight)
    public int getWeightToGetHere()
    public void setWeightToGetHere(int weightToGetHere)
    public int calculateAndSetHeuristic(Node target)
    public void setHeuristic(int heuristic)
    public int setX()
    public int getX()
    public int setY()
    public int getY()
    public int compareTo(Node n)
    public boolean equals(Object o)
    public String toString()
  }
  
}
  
  
  
}
  
 class "Labyrinth" as l{
    private int sizeX
    private int sizeY
    private int[][] map
   	private AtomicBoolean playerAttack
    private World world
	public Labyrinth(int sizeX, int sizeY)
    public void mazeRecursion(int x, int y)
    private void actionMonsters()
    private void randomDirection()
    public void draw(SpriteBatch spriteBatch)
    public void attack()
    public void movePlayer(Vector2 vector2)
    public void moveMonsters()
}
package "wall"{
  abstract class "Wall" as w {
       private int posX
       private int posY
       private int size
       protected Body body
       protected PolygonShape shape
      Wall(World world, int posX, int posY, int size) 
  }
  
  class "WallObstacle" {
    WallObstacle(World world, int posX, int posY, int size) 
  }
  
   class "WallLimit" {
    WallLimit(World world, int posX, int posY, int size) 
  }
  
 
}

class "Potion" as p {
  
    private int size
    private Body body
    private Boolean active
 	 Potion(World world, int posX, int posY) 
  
}
  
package "cellEffect" {
 	
  class "CellEnd" as ce {
     private Body body
     private int size 
     CellNext(World world, int x, int y, int size)
     public float getBodyPositionX()
     public float getBodyPositionY()
     public int getSize()
     public boolean isTreasureCell()
  }
   
    
  class "CellTrap" {
   	private Body body;
    CellTrap(World world, int x, int y, int size, int ratio)
    public void getEffect(Player player) 

    
  }
  
  class "CellTreasure" {
	private boolean treasure
    public CellTreasure(World world, int x, int y, int size)
    public boolean isTreasure()
    public void setTreasure(boolean treasure)
    public boolean isTreasureCell()
  }
 
}

}




class "Game" as g{
  void create()
  void render()
  void resize(int width, int height)
  void dispose()
}




package view {

class "GameScreen" as gs {
  private OrthographicCamera camera 
  private SpriteBatch spriteBatch
  GameScreen(Labyrinthe labyrinth) 
  public void render(float delta) 
  public void resize(int width, int height) 
  public void dispose() 
  
}
  
class "GameOverScreen" as gos {
  private SpriteBatch spriteBatch
  private OrthographicCamera camera
  public GameOverScreen()
  public void render(float delta)
  public void resize(int width, int height)
  public void dispose()
}
  
class "WinScreen" as ws {
  private SpriteBatch spriteBatch
  private OrthographicCamera camera
  public GameOverScreen()
  public void render(float delta)
  public void resize(int width, int height)
  public void dispose()
}
  
}


package controller{

class "Keyboard" as kb {
  private Vector2 acc 
  private int coeff
  private Boolean debug 
  
  public Keyboard(Labyrinth labyrinthe)
  public boolean KeyDown(int keyCode)
  public boolean KeyUp(int keycode) 
  public boolean touchDown(int screenX, int screenY, int pointer, int button)
  
  
}

}

package factory{

class FactoryTexture{
	private Texture mapTexture
    private Texture playerTexture
    private Texture wallTexture
    private Texture monsterTexture1
  	private Texture monsterTexture2
  	private static TextureFactory instance
  	
  
}
class SoundFactory{
  private Music backgroundMusic
  private static SoundFactory instance
  
}
  
class Constante{
    public static final short CATEGORY_WALL = 0x0001;
    public static final short CATEGORY_PLAYER = 0x0002;
    public static final short CATEGORY_MONSTER1 = 0x0004;
    public static final short CATEGORY_MONSTER2 = 0x0008;
    public static final short CATEGORY_POTION = 0x00016;
  
}

}



package libgdx{
  class ScreenAdapter{}
  class Game{}
  
}
WallLimit - -|> w
WallObstacle - -|> w
Monster1 - -|> m
Monster2 - -|> m
l - -"1" ce
CellTreasure - -|> ce
l - -"*" CellTrap
gs - -|> ScreenAdapter
g - -"1" gs 
l "1"- - gs 
l - -"*" w
l - -"1" p
p - -|> e
m - -|> e
l - -"*" m
g .."1" l
gs - -"1" kb
g - -|> Game
FactoryTexture - -"1" FactoryTexture 
SoundFactory - -"1" SoundFactory
@enduml

PlantUML version 1.2021.15beta6(Unknown compile time)
(GPL source distribution)
Java Runtime: Java(TM) SE Runtime Environment
JVM: Java HotSpot(TM) 64-Bit Server VM
Default Encoding: UTF-8
Language: en
Country: US
--></g></svg>